<?xml version="1.0" encoding="UTF-8" standalone="no"?>
<svg
   id="svg"
   version="1.1"
   width="400"
   height="501.62314"
   viewBox="0 0 400 501.62314"
   sodipodi:docname="up.svg"
   inkscape:version="1.1.2 (b8e25be833, 2022-02-05)"
   xmlns:inkscape="http://www.inkscape.org/namespaces/inkscape"
   xmlns:sodipodi="http://sodipodi.sourceforge.net/DTD/sodipodi-0.dtd"
   xmlns:xlink="http://www.w3.org/1999/xlink"
   xmlns="http://www.w3.org/2000/svg"
   xmlns:svg="http://www.w3.org/2000/svg">
  <defs
     id="defs11">
    <linearGradient
       inkscape:collect="always"
       id="linearGradient1425">
      <stop
         style="stop-color:#c1282d;stop-opacity:1;"
         offset="0"
         id="stop1421" />
      <stop
         style="stop-color:#ed6f23;stop-opacity:1"
         offset="1"
         id="stop1423" />
    </linearGradient>
    <linearGradient
       inkscape:collect="always"
       xlink:href="#linearGradient1425"
       id="linearGradient1427"
       x1="0"
       y1="319.93768"
       x2="402.33575"
       y2="216.38538"
       gradientUnits="userSpaceOnUse" />
  </defs>
  <sodipodi:namedview
     id="namedview9"
     pagecolor="#ffffff"
     bordercolor="#666666"
     borderopacity="1.0"
     inkscape:pageshadow="2"
     inkscape:pageopacity="0.0"
     inkscape:pagecheckerboard="0"
     showgrid="false"
     inkscape:zoom="1.284375"
     inkscape:cx="158.44282"
     inkscape:cy="188.0292"
     inkscape:window-width="1920"
     inkscape:window-height="1009"
     inkscape:window-x="-8"
     inkscape:window-y="-8"
     inkscape:window-maximized="1"
     inkscape:current-layer="svgg" />
  <g
     id="svgg"
     transform="translate(0,-69.126106)">
    <path
       id="path0"
       d="m 194.4,70.041 c 0,0.652 -0.306,0.759 -2.171,0.759 -1.397,0 -2.386,0.214 -2.772,0.6 -0.335,0.335 -1.313,0.6 -2.216,0.6 -1.272,0 -1.567,0.128 -1.386,0.6 0.179,0.465 -0.094,0.6 -1.212,0.6 -1.169,0 -1.443,0.15 -1.443,0.787 0,0.545 -0.19,0.715 -0.616,0.551 -0.393,-0.15 -0.574,-0.036 -0.5,0.313 0.079,0.373 -0.367,0.589 -1.392,0.674 -0.83,0.068 -1.408,0.287 -1.286,0.485 0.301,0.487 -2.933,3.682 -3.421,3.381 -0.212,-0.131 -0.385,0.132 -0.385,0.585 0,0.49 -0.261,0.824 -0.643,0.824 -0.407,0 -0.558,0.22 -0.412,0.6 0.126,0.33 0.064,0.6 -0.139,0.6 -0.48,0 -2.406,1.926 -2.406,2.406 0,0.203 -0.27,0.265 -0.6,0.139 -0.38,-0.146 -0.6,0.005 -0.6,0.412 0,0.382 -0.334,0.643 -0.824,0.643 -0.453,0 -0.716,0.173 -0.585,0.385 0.311,0.504 -2.902,3.717 -3.406,3.406 -0.212,-0.131 -0.385,0.132 -0.385,0.585 0,0.49 -0.261,0.824 -0.643,0.824 -0.407,0 -0.558,0.22 -0.412,0.6 0.126,0.33 0.064,0.6 -0.139,0.6 -0.48,0 -2.406,1.926 -2.406,2.406 0,0.203 -0.27,0.265 -0.6,0.139 -0.38,-0.146 -0.6,0.005 -0.6,0.412 0,0.382 -0.334,0.643 -0.824,0.643 -0.453,0 -0.716,0.173 -0.585,0.385 0.311,0.504 -2.902,3.717 -3.406,3.406 -0.212,-0.131 -0.385,0.132 -0.385,0.585 0,0.49 -0.261,0.824 -0.643,0.824 -0.407,0 -0.558,0.22 -0.412,0.6 0.126,0.33 0.064,0.6 -0.139,0.6 -0.48,0 -2.406,1.926 -2.406,2.406 0,0.203 -0.27,0.265 -0.6,0.139 -0.38,-0.146 -0.6,0.005 -0.6,0.412 0,0.382 -0.334,0.643 -0.824,0.643 -0.453,0 -0.716,0.173 -0.585,0.385 0.131,0.212 -0.495,1.119 -1.391,2.015 -0.896,0.896 -1.803,1.522 -2.015,1.391 -0.212,-0.131 -0.385,0.132 -0.385,0.585 0,0.49 -0.261,0.824 -0.643,0.824 -0.407,0 -0.558,0.22 -0.412,0.6 0.126,0.33 0.064,0.6 -0.139,0.6 -0.203,0 -0.828,0.458 -1.388,1.018 -0.56,0.56 -1.018,1.185 -1.018,1.388 0,0.203 -0.27,0.265 -0.6,0.139 -0.38,-0.146 -0.6,0.005 -0.6,0.412 0,0.382 -0.334,0.643 -0.824,0.643 -0.453,0 -0.716,0.173 -0.585,0.385 0.131,0.212 -0.495,1.119 -1.391,2.015 -0.896,0.896 -1.803,1.522 -2.015,1.391 -0.212,-0.131 -0.385,0.132 -0.385,0.585 0,0.49 -0.261,0.824 -0.643,0.824 -0.407,0 -0.558,0.22 -0.412,0.6 0.126,0.33 0.064,0.6 -0.139,0.6 -0.203,0 -0.828,0.458 -1.388,1.018 -0.56,0.56 -1.018,1.185 -1.018,1.388 0,0.203 -0.27,0.265 -0.6,0.139 -0.38,-0.146 -0.6,0.005 -0.6,0.412 0,0.382 -0.334,0.643 -0.824,0.643 -0.453,0 -0.716,0.173 -0.585,0.385 0.311,0.504 -2.902,3.717 -3.406,3.406 -0.212,-0.131 -0.385,0.132 -0.385,0.585 0,0.49 -0.261,0.824 -0.643,0.824 -0.407,0 -0.558,0.22 -0.412,0.6 0.126,0.33 0.064,0.6 -0.139,0.6 -0.48,0 -2.406,1.926 -2.406,2.406 0,0.203 -0.27,0.265 -0.6,0.139 -0.38,-0.146 -0.6,0.005 -0.6,0.412 0,0.382 -0.334,0.643 -0.824,0.643 -0.453,0 -0.716,0.173 -0.585,0.385 0.311,0.504 -2.902,3.717 -3.406,3.406 -0.212,-0.131 -0.385,0.132 -0.385,0.585 0,0.49 -0.261,0.824 -0.643,0.824 -0.407,0 -0.558,0.22 -0.412,0.6 0.126,0.33 0.064,0.6 -0.139,0.6 -0.48,0 -2.406,1.926 -2.406,2.406 0,0.203 -0.27,0.265 -0.6,0.139 -0.38,-0.146 -0.6,0.005 -0.6,0.412 0,0.382 -0.334,0.643 -0.824,0.643 -0.453,0 -0.716,0.173 -0.585,0.385 0.311,0.504 -2.902,3.717 -3.406,3.406 -0.212,-0.131 -0.385,0.132 -0.385,0.585 0,0.49 -0.261,0.824 -0.643,0.824 -0.407,0 -0.558,0.22 -0.412,0.6 0.126,0.33 0.064,0.6 -0.139,0.6 -0.48,0 -2.406,1.926 -2.406,2.406 0,0.203 -0.27,0.265 -0.6,0.139 -0.38,-0.146 -0.6,0.005 -0.6,0.412 0,0.382 -0.334,0.643 -0.824,0.643 -0.453,0 -0.716,0.173 -0.585,0.385 0.311,0.504 -2.902,3.717 -3.406,3.406 -0.212,-0.131 -0.385,0.132 -0.385,0.585 0,0.49 -0.261,0.824 -0.643,0.824 -0.407,0 -0.558,0.22 -0.412,0.6 0.126,0.33 0.064,0.6 -0.139,0.6 -0.48,0 -2.406,1.926 -2.406,2.406 0,0.203 -0.27,0.265 -0.6,0.139 -0.38,-0.146 -0.6,0.005 -0.6,0.412 0,0.382 -0.334,0.643 -0.824,0.643 -0.453,0 -0.716,0.173 -0.585,0.385 0.311,0.504 -2.902,3.717 -3.406,3.406 -0.212,-0.131 -0.385,0.132 -0.385,0.585 0,0.49 -0.261,0.824 -0.643,0.824 -0.407,0 -0.558,0.22 -0.412,0.6 0.126,0.33 0.064,0.6 -0.139,0.6 -0.48,0 -2.406,1.926 -2.406,2.406 0,0.203 -0.27,0.265 -0.6,0.139 -0.38,-0.146 -0.6,0.005 -0.6,0.412 0,0.382 -0.334,0.643 -0.824,0.643 -0.453,0 -0.716,0.173 -0.585,0.385 0.311,0.504 -2.902,3.717 -3.406,3.406 -0.212,-0.131 -0.385,0.132 -0.385,0.585 0,0.49 -0.261,0.824 -0.643,0.824 -0.407,0 -0.558,0.22 -0.412,0.6 0.126,0.33 0.064,0.6 -0.139,0.6 -0.48,0 -2.406,1.926 -2.406,2.406 0,0.203 -0.27,0.265 -0.6,0.139 -0.38,-0.146 -0.6,0.005 -0.6,0.412 0,0.382 -0.334,0.643 -0.824,0.643 -0.453,0 -0.716,0.173 -0.585,0.385 0.311,0.504 -2.902,3.717 -3.406,3.406 -0.212,-0.131 -0.385,0.132 -0.385,0.585 0,0.49 -0.261,0.824 -0.643,0.824 -0.407,0 -0.558,0.22 -0.412,0.6 0.126,0.33 0.064,0.6 -0.139,0.6 -0.48,0 -2.406,1.926 -2.406,2.406 0,0.203 -0.27,0.265 -0.6,0.139 -0.38,-0.146 -0.6,0.005 -0.6,0.412 0,0.382 -0.334,0.643 -0.824,0.643 -0.453,0 -0.716,0.173 -0.585,0.385 0.311,0.504 -2.902,3.717 -3.406,3.406 -0.212,-0.131 -0.385,0.132 -0.385,0.585 0,0.49 -0.261,0.824 -0.643,0.824 -0.407,0 -0.558,0.22 -0.412,0.6 0.126,0.33 0.064,0.6 -0.139,0.6 -0.48,0 -2.406,1.926 -2.406,2.406 0,0.203 -0.27,0.265 -0.6,0.139 -0.38,-0.146 -0.6,0.005 -0.6,0.412 0,0.382 -0.334,0.643 -0.824,0.643 -0.453,0 -0.716,0.173 -0.585,0.385 0.311,0.504 -2.902,3.717 -3.406,3.406 -0.212,-0.131 -0.385,0.132 -0.385,0.585 0,0.49 -0.261,0.824 -0.643,0.824 -0.407,0 -0.558,0.22 -0.412,0.6 0.126,0.33 0.064,0.6 -0.139,0.6 -0.48,0 -2.406,1.926 -2.406,2.406 0,0.203 -0.27,0.265 -0.6,0.139 -0.38,-0.146 -0.6,0.005 -0.6,0.412 0,0.382 -0.334,0.643 -0.824,0.643 -0.453,0 -0.716,0.173 -0.585,0.385 0.311,0.504 -2.902,3.717 -3.406,3.406 -0.212,-0.131 -0.385,0.132 -0.385,0.585 0,0.49 -0.261,0.824 -0.643,0.824 -0.407,0 -0.558,0.22 -0.412,0.6 0.126,0.33 0.064,0.6 -0.139,0.6 -0.48,0 -2.406,1.926 -2.406,2.406 0,0.203 -0.27,0.265 -0.6,0.139 -0.38,-0.146 -0.6,0.005 -0.6,0.412 0,0.382 -0.334,0.643 -0.824,0.643 -0.453,0 -0.716,0.173 -0.585,0.385 0.311,0.504 -2.902,3.717 -3.406,3.406 -0.212,-0.131 -0.385,0.132 -0.385,0.585 0,0.49 -0.261,0.824 -0.643,0.824 -0.407,0 -0.558,0.22 -0.412,0.6 0.126,0.33 0.064,0.6 -0.139,0.6 -0.48,0 -2.406,1.926 -2.406,2.406 0,0.203 -0.27,0.265 -0.6,0.139 -0.38,-0.146 -0.6,0.005 -0.6,0.412 0,0.382 -0.334,0.643 -0.824,0.643 -0.453,0 -0.716,0.173 -0.585,0.385 0.311,0.504 -2.902,3.717 -3.406,3.406 -0.212,-0.131 -0.385,0.132 -0.385,0.585 0,0.49 -0.261,0.824 -0.643,0.824 -0.407,0 -0.558,0.22 -0.412,0.6 0.126,0.33 0.064,0.6 -0.139,0.6 -0.48,0 -2.406,1.926 -2.406,2.406 0,0.203 -0.27,0.265 -0.6,0.139 -0.38,-0.146 -0.6,0.005 -0.6,0.412 0,0.382 -0.334,0.643 -0.824,0.643 -0.453,0 -0.716,0.173 -0.585,0.385 0.301,0.488 -2.894,3.722 -3.381,3.421 -0.198,-0.122 -0.417,0.456 -0.485,1.286 -0.085,1.025 -0.301,1.471 -0.674,1.392 -0.349,-0.074 -0.463,0.107 -0.313,0.5 0.164,0.426 -0.006,0.616 -0.551,0.616 -0.637,0 -0.787,0.274 -0.787,1.443 0,1.118 -0.135,1.391 -0.6,1.212 C 2.15,255.683 2,255.921 2,256.813 2,257.601 1.799,258 1.4,258 c -0.419,0 -0.6,0.422 -0.6,1.4 0,0.77 -0.18,1.4 -0.4,1.4 -0.256,0 -0.4,3.6 -0.4,10 0,6.4 0.144,10 0.4,10 0.22,0 0.4,0.829 0.4,1.843 0,1.473 0.12,1.796 0.6,1.612 0.433,-0.166 0.6,0.044 0.6,0.754 0,0.572 0.503,1.464 1.2,2.131 0.868,0.829 1.202,1.522 1.206,2.503 0.005,0.99 0.107,1.198 0.377,0.771 0.298,-0.471 0.453,-0.373 0.784,0.5 0.227,0.597 0.598,1.086 0.823,1.086 0.226,0 0.41,0.27 0.41,0.6 0,0.33 0.27,0.6 0.6,0.6 0.33,0 0.6,0.184 0.6,0.41 0,0.225 0.489,0.596 1.086,0.823 0.873,0.331 0.971,0.486 0.5,0.784 -0.461,0.292 -0.395,0.372 0.314,0.377 0.531,0.003 0.9,0.252 0.9,0.606 0,0.33 0.27,0.6 0.6,0.6 0.33,0 0.6,0.27 0.6,0.6 0,0.33 0.27,0.6 0.6,0.6 0.33,0 0.6,0.27 0.6,0.6 0,0.33 0.27,0.6 0.6,0.6 0.354,0 0.603,0.369 0.606,0.9 0.005,0.709 0.085,0.775 0.377,0.314 0.298,-0.471 0.453,-0.373 0.784,0.5 0.227,0.597 0.598,1.086 0.823,1.086 0.226,0 0.41,0.27 0.41,0.6 0,0.33 0.27,0.6 0.6,0.6 0.33,0 0.6,0.184 0.6,0.41 0,0.225 0.489,0.596 1.086,0.823 0.873,0.331 0.971,0.486 0.5,0.784 -0.461,0.292 -0.395,0.372 0.314,0.377 0.531,0.003 0.9,0.252 0.9,0.606 0,0.33 0.27,0.6 0.6,0.6 0.33,0 0.6,0.27 0.6,0.6 0,0.33 0.27,0.6 0.6,0.6 0.33,0 0.6,0.27 0.6,0.6 0,0.33 0.27,0.6 0.6,0.6 0.354,0 0.603,0.369 0.606,0.9 0.005,0.709 0.085,0.775 0.377,0.314 0.298,-0.471 0.453,-0.373 0.784,0.5 0.227,0.597 0.598,1.086 0.823,1.086 0.226,0 0.41,0.27 0.41,0.6 0,0.33 0.27,0.6 0.6,0.6 0.33,0 0.6,0.184 0.6,0.41 0,0.225 0.489,0.596 1.086,0.823 0.873,0.331 0.971,0.486 0.5,0.784 -0.461,0.292 -0.395,0.372 0.314,0.377 0.531,0.003 0.9,0.252 0.9,0.606 0,0.33 0.27,0.6 0.6,0.6 0.33,0 0.6,0.27 0.6,0.6 0,0.33 0.27,0.6 0.6,0.6 0.33,0 0.6,0.27 0.6,0.6 0,0.33 0.27,0.6 0.6,0.6 0.354,0 0.603,0.369 0.606,0.9 0.005,0.709 0.085,0.775 0.377,0.314 0.298,-0.471 0.453,-0.373 0.784,0.5 0.227,0.597 0.598,1.086 0.823,1.086 0.226,0 0.41,0.27 0.41,0.6 0,0.33 0.251,0.6 0.557,0.6 0.307,0 0.661,0.27 0.788,0.6 0.134,0.351 0.734,0.6 1.442,0.6 0.847,0 1.213,0.194 1.213,0.643 0,0.407 0.22,0.558 0.6,0.412 0.352,-0.135 0.6,-0.005 0.6,0.315 0,0.598 0.847,1.03 2.02,1.03 0.507,0 0.679,0.197 0.525,0.6 -0.184,0.48 0.139,0.6 1.612,0.6 1.372,0 1.843,0.153 1.843,0.6 0,0.472 0.556,0.6 2.6,0.6 2.313,0 2.6,0.086 2.6,0.782 0,0.735 0.295,0.78 5,0.751 4.615,-0.027 5,-0.088 5,-0.781 0,-0.652 0.318,-0.752 2.4,-0.752 1.826,0 2.4,-0.138 2.4,-0.578 0,-0.406 0.566,-0.614 1.9,-0.7 1.258,-0.081 1.866,-0.291 1.8,-0.622 -0.058,-0.29 0.308,-0.5 0.871,-0.5 0.535,0 1.242,-0.27 1.572,-0.6 0.33,-0.33 0.961,-0.6 1.401,-0.6 0.46,0 0.914,-0.354 1.065,-0.829 0.158,-0.498 0.488,-0.743 0.827,-0.612 0.328,0.125 0.564,-0.03 0.564,-0.372 0,-0.323 0.168,-0.587 0.373,-0.587 0.205,0 0.491,-0.373 0.636,-0.829 0.158,-0.498 0.488,-0.743 0.827,-0.612 0.506,0.194 0.744,-0.219 0.611,-1.059 -0.026,-0.165 0.088,-0.279 0.253,-0.253 0.84,0.133 1.253,-0.105 1.059,-0.611 -0.131,-0.339 0.114,-0.669 0.612,-0.827 0.456,-0.145 0.829,-0.431 0.829,-0.636 0,-0.205 0.264,-0.373 0.587,-0.373 0.358,0 0.498,-0.235 0.358,-0.6 -0.127,-0.33 -0.04,-0.6 0.194,-0.6 0.551,0 2.461,-1.91 2.461,-2.461 0,-0.234 0.27,-0.321 0.6,-0.194 0.365,0.14 0.6,0 0.6,-0.358 0,-0.323 0.168,-0.587 0.373,-0.587 0.205,0 0.491,-0.373 0.636,-0.829 0.158,-0.498 0.488,-0.743 0.827,-0.612 0.506,0.194 0.744,-0.219 0.611,-1.059 -0.026,-0.165 0.088,-0.279 0.253,-0.253 0.84,0.133 1.253,-0.105 1.059,-0.611 -0.131,-0.339 0.114,-0.669 0.612,-0.827 0.456,-0.145 0.829,-0.431 0.829,-0.636 0,-0.205 0.264,-0.373 0.587,-0.373 0.358,0 0.498,-0.235 0.358,-0.6 -0.127,-0.33 -0.04,-0.6 0.194,-0.6 0.551,0 2.461,-1.91 2.461,-2.461 0,-0.234 0.27,-0.321 0.6,-0.194 0.365,0.14 0.6,0 0.6,-0.358 0,-0.323 0.168,-0.587 0.373,-0.587 0.205,0 0.491,-0.373 0.636,-0.829 0.158,-0.498 0.488,-0.743 0.827,-0.612 0.506,0.194 0.744,-0.219 0.611,-1.059 -0.026,-0.165 0.088,-0.279 0.253,-0.253 0.84,0.133 1.253,-0.105 1.059,-0.611 -0.131,-0.339 0.114,-0.669 0.612,-0.827 0.456,-0.145 0.829,-0.431 0.829,-0.636 0,-0.205 0.264,-0.373 0.587,-0.373 0.358,0 0.498,-0.235 0.358,-0.6 -0.127,-0.33 -0.04,-0.6 0.194,-0.6 0.551,0 2.461,-1.91 2.461,-2.461 0,-0.234 0.27,-0.321 0.6,-0.194 0.365,0.14 0.6,0 0.6,-0.358 0,-0.323 0.168,-0.587 0.373,-0.587 0.205,0 0.491,-0.373 0.636,-0.829 0.158,-0.498 0.488,-0.743 0.827,-0.612 0.506,0.194 0.744,-0.219 0.611,-1.059 -0.026,-0.165 0.088,-0.279 0.253,-0.253 0.84,0.133 1.253,-0.105 1.059,-0.611 -0.131,-0.339 0.114,-0.669 0.612,-0.827 0.456,-0.145 0.829,-0.431 0.829,-0.636 0,-0.205 0.264,-0.373 0.587,-0.373 0.358,0 0.498,-0.235 0.358,-0.6 -0.127,-0.33 -0.04,-0.6 0.194,-0.6 0.551,0 2.461,-1.91 2.461,-2.461 0,-0.234 0.27,-0.321 0.6,-0.194 0.365,0.14 0.6,0 0.6,-0.358 0,-0.323 0.168,-0.587 0.373,-0.587 0.205,0 0.491,-0.373 0.636,-0.829 0.158,-0.498 0.488,-0.743 0.827,-0.612 0.506,0.194 0.744,-0.219 0.611,-1.059 -0.026,-0.165 0.088,-0.279 0.253,-0.253 0.84,0.133 1.253,-0.105 1.059,-0.611 -0.131,-0.339 0.114,-0.669 0.612,-0.827 0.456,-0.145 0.829,-0.431 0.829,-0.636 0,-0.205 0.264,-0.373 0.587,-0.373 0.358,0 0.498,-0.235 0.358,-0.6 -0.127,-0.33 -0.04,-0.6 0.194,-0.6 0.551,0 2.461,-1.91 2.461,-2.461 0,-0.234 0.27,-0.321 0.6,-0.194 0.365,0.14 0.6,0 0.6,-0.358 0,-0.323 0.168,-0.587 0.373,-0.587 0.205,0 0.491,-0.373 0.636,-0.829 0.158,-0.498 0.488,-0.743 0.827,-0.612 0.506,0.194 0.744,-0.219 0.611,-1.059 -0.026,-0.165 0.088,-0.279 0.253,-0.253 0.84,0.133 1.253,-0.105 1.059,-0.611 -0.131,-0.339 0.114,-0.669 0.612,-0.827 0.456,-0.145 0.829,-0.431 0.829,-0.636 0,-0.205 0.264,-0.373 0.587,-0.373 0.358,0 0.498,-0.235 0.358,-0.6 -0.127,-0.33 -0.04,-0.6 0.194,-0.6 0.551,0 2.461,-1.91 2.461,-2.461 0,-0.234 0.27,-0.321 0.6,-0.194 0.365,0.14 0.6,0 0.6,-0.358 0,-0.323 0.168,-0.587 0.373,-0.587 0.205,0 0.491,-0.373 0.636,-0.829 0.158,-0.498 0.488,-0.743 0.827,-0.612 0.506,0.194 0.744,-0.219 0.611,-1.059 -0.026,-0.165 0.088,-0.279 0.253,-0.253 0.84,0.133 1.253,-0.105 1.059,-0.611 -0.131,-0.339 0.114,-0.669 0.612,-0.827 0.456,-0.145 0.829,-0.431 0.829,-0.636 0,-0.205 0.264,-0.373 0.587,-0.373 0.358,0 0.498,-0.235 0.358,-0.6 -0.127,-0.33 -0.04,-0.6 0.194,-0.6 0.551,0 2.461,-1.91 2.461,-2.461 0,-0.234 0.27,-0.321 0.6,-0.194 0.365,0.14 0.6,0 0.6,-0.358 0,-0.323 0.168,-0.587 0.373,-0.587 0.205,0 0.491,-0.373 0.636,-0.829 0.158,-0.498 0.488,-0.743 0.827,-0.612 0.506,0.194 0.744,-0.219 0.611,-1.059 -0.026,-0.165 0.088,-0.279 0.253,-0.253 0.84,0.133 1.253,-0.105 1.059,-0.611 -0.131,-0.339 0.114,-0.669 0.612,-0.827 0.456,-0.145 0.829,-0.431 0.829,-0.636 0,-0.205 0.264,-0.373 0.587,-0.373 0.358,0 0.498,-0.235 0.358,-0.6 -0.127,-0.33 -0.04,-0.6 0.194,-0.6 0.551,0 2.461,-1.91 2.461,-2.461 0,-0.234 0.27,-0.321 0.6,-0.194 0.365,0.14 0.6,0 0.6,-0.358 0,-0.323 0.168,-0.587 0.373,-0.587 0.205,0 0.491,-0.373 0.636,-0.829 0.158,-0.498 0.488,-0.743 0.827,-0.612 0.506,0.194 0.744,-0.219 0.611,-1.059 -0.026,-0.165 0.088,-0.279 0.253,-0.253 0.84,0.133 1.253,-0.105 1.059,-0.611 -0.131,-0.339 0.114,-0.669 0.612,-0.827 0.456,-0.145 0.829,-0.431 0.829,-0.636 0,-0.205 0.264,-0.373 0.587,-0.373 0.358,0 0.498,-0.235 0.358,-0.6 -0.127,-0.33 -0.04,-0.6 0.194,-0.6 0.551,0 2.461,-1.91 2.461,-2.461 0,-0.234 0.27,-0.321 0.6,-0.194 0.365,0.14 0.6,0 0.6,-0.358 0,-0.323 0.168,-0.587 0.373,-0.587 0.205,0 0.491,-0.373 0.636,-0.829 0.158,-0.498 0.488,-0.743 0.827,-0.612 0.506,0.194 0.744,-0.219 0.611,-1.059 -0.026,-0.165 0.088,-0.279 0.253,-0.253 0.84,0.133 1.253,-0.105 1.059,-0.611 -0.131,-0.339 0.114,-0.669 0.612,-0.827 0.456,-0.145 0.829,-0.431 0.829,-0.636 0,-0.205 0.264,-0.373 0.587,-0.373 0.358,0 0.498,-0.235 0.358,-0.6 -0.127,-0.33 -0.04,-0.6 0.194,-0.6 0.551,0 2.461,-1.91 2.461,-2.461 0,-0.234 0.27,-0.321 0.6,-0.194 0.365,0.14 0.6,0 0.6,-0.358 0,-0.323 0.168,-0.587 0.373,-0.587 0.205,0 0.491,-0.373 0.636,-0.829 0.158,-0.498 0.488,-0.743 0.827,-0.612 0.506,0.194 0.744,-0.219 0.611,-1.059 -0.026,-0.165 0.088,-0.279 0.253,-0.253 0.84,0.133 1.253,-0.105 1.059,-0.611 -0.131,-0.339 0.114,-0.669 0.612,-0.827 0.456,-0.145 0.829,-0.431 0.829,-0.636 0,-0.205 0.264,-0.373 0.587,-0.373 0.358,0 0.498,-0.235 0.358,-0.6 -0.127,-0.33 -0.04,-0.6 0.194,-0.6 0.551,0 2.461,-1.91 2.461,-2.461 0,-0.234 0.27,-0.321 0.6,-0.194 0.365,0.14 0.6,0 0.6,-0.358 0,-0.323 0.168,-0.587 0.373,-0.587 0.205,0 0.491,-0.373 0.636,-0.829 0.158,-0.498 0.488,-0.743 0.827,-0.612 0.506,0.194 0.744,-0.219 0.611,-1.059 -0.026,-0.165 0.088,-0.279 0.253,-0.253 0.84,0.133 1.253,-0.105 1.059,-0.611 -0.131,-0.339 0.114,-0.669 0.612,-0.827 0.456,-0.145 0.829,-0.431 0.829,-0.636 0,-0.205 0.264,-0.373 0.587,-0.373 0.358,0 0.498,-0.235 0.358,-0.6 -0.127,-0.33 -0.04,-0.6 0.194,-0.6 0.551,0 2.461,-1.91 2.461,-2.461 0,-0.234 0.27,-0.321 0.6,-0.194 0.365,0.14 0.6,0 0.6,-0.358 0,-0.323 0.168,-0.587 0.373,-0.587 0.205,0 0.487,-0.36 0.627,-0.8 0.328,-1.035 1.672,-1.035 2,0 0.14,0.44 0.422,0.8 0.627,0.8 0.205,0 0.373,0.264 0.373,0.587 0,0.358 0.235,0.498 0.6,0.358 0.33,-0.127 0.6,-0.04 0.6,0.194 0,0.551 1.91,2.461 2.461,2.461 0.234,0 0.321,0.27 0.194,0.6 -0.14,0.365 0,0.6 0.358,0.6 0.323,0 0.587,0.168 0.587,0.373 0,0.205 0.373,0.491 0.829,0.636 0.498,0.158 0.743,0.488 0.612,0.827 -0.194,0.506 0.219,0.744 1.059,0.611 0.165,-0.026 0.279,0.088 0.253,0.253 -0.133,0.84 0.105,1.253 0.611,1.059 0.339,-0.131 0.669,0.114 0.827,0.612 0.145,0.456 0.431,0.829 0.636,0.829 0.205,0 0.373,0.264 0.373,0.587 0,0.358 0.235,0.498 0.6,0.358 0.33,-0.127 0.6,-0.04 0.6,0.194 0,0.551 1.91,2.461 2.461,2.461 0.234,0 0.321,0.27 0.194,0.6 -0.14,0.365 0,0.6 0.358,0.6 0.323,0 0.587,0.168 0.587,0.373 0,0.205 0.373,0.491 0.829,0.636 0.498,0.158 0.743,0.488 0.612,0.827 -0.194,0.506 0.219,0.744 1.059,0.611 0.165,-0.026 0.279,0.088 0.253,0.253 -0.133,0.84 0.105,1.253 0.611,1.059 0.339,-0.131 0.669,0.114 0.827,0.612 0.145,0.456 0.431,0.829 0.636,0.829 0.205,0 0.373,0.264 0.373,0.587 0,0.358 0.235,0.498 0.6,0.358 0.33,-0.127 0.6,-0.04 0.6,0.194 0,0.551 1.91,2.461 2.461,2.461 0.234,0 0.321,0.27 0.194,0.6 -0.14,0.365 0,0.6 0.358,0.6 0.323,0 0.587,0.168 0.587,0.373 0,0.205 0.373,0.491 0.829,0.636 0.498,0.158 0.743,0.488 0.612,0.827 -0.194,0.506 0.219,0.744 1.059,0.611 0.165,-0.026 0.279,0.088 0.253,0.253 -0.133,0.84 0.105,1.253 0.611,1.059 0.339,-0.131 0.669,0.114 0.827,0.612 0.145,0.456 0.431,0.829 0.636,0.829 0.205,0 0.373,0.264 0.373,0.587 0,0.358 0.235,0.498 0.6,0.358 0.33,-0.127 0.6,-0.04 0.6,0.194 0,0.551 1.91,2.461 2.461,2.461 0.234,0 0.321,0.27 0.194,0.6 -0.14,0.365 0,0.6 0.358,0.6 0.323,0 0.587,0.168 0.587,0.373 0,0.205 0.373,0.491 0.829,0.636 0.498,0.158 0.743,0.488 0.612,0.827 -0.194,0.506 0.219,0.744 1.059,0.611 0.165,-0.026 0.279,0.088 0.253,0.253 -0.133,0.84 0.105,1.253 0.611,1.059 0.339,-0.131 0.669,0.114 0.827,0.612 0.145,0.456 0.431,0.829 0.636,0.829 0.205,0 0.373,0.264 0.373,0.587 0,0.358 0.235,0.498 0.6,0.358 0.33,-0.127 0.6,-0.04 0.6,0.194 0,0.551 1.91,2.461 2.461,2.461 0.234,0 0.321,0.27 0.194,0.6 -0.14,0.365 0,0.6 0.358,0.6 0.323,0 0.587,0.168 0.587,0.373 0,0.205 0.373,0.491 0.829,0.636 0.498,0.158 0.743,0.488 0.612,0.827 -0.194,0.506 0.219,0.744 1.059,0.611 0.165,-0.026 0.279,0.088 0.253,0.253 -0.133,0.84 0.105,1.253 0.611,1.059 0.339,-0.131 0.669,0.114 0.827,0.612 0.145,0.456 0.431,0.829 0.636,0.829 0.205,0 0.373,0.264 0.373,0.587 0,0.358 0.235,0.498 0.6,0.358 0.33,-0.127 0.6,-0.04 0.6,0.194 0,0.551 1.91,2.461 2.461,2.461 0.234,0 0.321,0.27 0.194,0.6 -0.14,0.365 0,0.6 0.358,0.6 0.323,0 0.587,0.168 0.587,0.373 0,0.205 0.373,0.491 0.829,0.636 0.498,0.158 0.743,0.488 0.612,0.827 -0.194,0.506 0.219,0.744 1.059,0.611 0.165,-0.026 0.279,0.088 0.253,0.253 -0.133,0.84 0.105,1.253 0.611,1.059 0.339,-0.131 0.669,0.114 0.827,0.612 0.145,0.456 0.431,0.829 0.636,0.829 0.205,0 0.373,0.264 0.373,0.587 0,0.358 0.235,0.498 0.6,0.358 0.33,-0.127 0.6,-0.04 0.6,0.194 0,0.551 1.91,2.461 2.461,2.461 0.234,0 0.321,0.27 0.194,0.6 -0.14,0.365 0,0.6 0.358,0.6 0.323,0 0.587,0.168 0.587,0.373 0,0.205 0.373,0.491 0.829,0.636 0.498,0.158 0.743,0.488 0.612,0.827 -0.194,0.506 0.219,0.744 1.059,0.611 0.165,-0.026 0.279,0.088 0.253,0.253 -0.133,0.84 0.105,1.253 0.611,1.059 0.339,-0.131 0.669,0.114 0.827,0.612 0.145,0.456 0.431,0.829 0.636,0.829 0.205,0 0.373,0.264 0.373,0.587 0,0.358 0.235,0.498 0.6,0.358 0.33,-0.127 0.6,-0.04 0.6,0.194 0,0.551 1.91,2.461 2.461,2.461 0.234,0 0.321,0.27 0.194,0.6 -0.14,0.365 0,0.6 0.358,0.6 0.323,0 0.587,0.168 0.587,0.373 0,0.205 0.373,0.491 0.829,0.636 0.498,0.158 0.743,0.488 0.612,0.827 -0.194,0.506 0.219,0.744 1.059,0.611 0.165,-0.026 0.279,0.088 0.253,0.253 -0.133,0.84 0.105,1.253 0.611,1.059 0.339,-0.131 0.669,0.114 0.827,0.612 0.145,0.456 0.431,0.829 0.636,0.829 0.205,0 0.373,0.264 0.373,0.587 0,0.358 0.235,0.498 0.6,0.358 0.33,-0.127 0.6,-0.04 0.6,0.194 0,0.551 1.91,2.461 2.461,2.461 0.234,0 0.321,0.27 0.194,0.6 -0.14,0.365 0,0.6 0.358,0.6 0.323,0 0.587,0.168 0.587,0.373 0,0.205 0.373,0.491 0.829,0.636 0.498,0.158 0.743,0.488 0.612,0.827 -0.194,0.506 0.219,0.744 1.059,0.611 0.165,-0.026 0.279,0.088 0.253,0.253 -0.133,0.84 0.105,1.253 0.611,1.059 0.339,-0.131 0.669,0.114 0.827,0.612 0.145,0.456 0.431,0.829 0.636,0.829 0.205,0 0.373,0.264 0.373,0.587 0,0.358 0.235,0.498 0.6,0.358 0.33,-0.127 0.6,-0.04 0.6,0.194 0,0.551 1.91,2.461 2.461,2.461 0.234,0 0.321,0.27 0.194,0.6 -0.14,0.365 0,0.6 0.358,0.6 0.323,0 0.587,0.168 0.587,0.373 0,0.205 0.373,0.491 0.829,0.636 0.498,0.158 0.743,0.488 0.612,0.827 -0.194,0.506 0.219,0.744 1.059,0.611 0.165,-0.026 0.279,0.088 0.253,0.253 -0.133,0.84 0.105,1.253 0.611,1.059 0.339,-0.131 0.669,0.114 0.827,0.612 0.145,0.456 0.431,0.829 0.636,0.829 0.205,0 0.373,0.264 0.373,0.587 0,0.358 0.235,0.498 0.6,0.358 0.33,-0.127 0.6,-0.04 0.6,0.194 0,0.551 1.91,2.461 2.461,2.461 0.234,0 0.321,0.27 0.194,0.6 -0.14,0.365 0,0.6 0.358,0.6 0.323,0 0.587,0.168 0.587,0.373 0,0.205 0.373,0.491 0.829,0.636 0.498,0.158 0.743,0.488 0.612,0.827 -0.194,0.506 0.219,0.744 1.059,0.611 0.165,-0.026 0.279,0.088 0.253,0.253 -0.133,0.84 0.105,1.253 0.611,1.059 0.339,-0.131 0.669,0.114 0.827,0.612 0.145,0.456 0.431,0.829 0.636,0.829 0.205,0 0.373,0.264 0.373,0.587 0,0.358 0.235,0.498 0.6,0.358 0.33,-0.127 0.6,-0.04 0.6,0.194 0,0.551 1.91,2.461 2.461,2.461 0.234,0 0.321,0.27 0.194,0.6 -0.14,0.365 0,0.6 0.358,0.6 0.323,0 0.587,0.168 0.587,0.373 0,0.205 0.373,0.491 0.829,0.636 0.498,0.158 0.743,0.488 0.612,0.827 -0.194,0.506 0.219,0.744 1.059,0.611 0.165,-0.026 0.279,0.088 0.253,0.253 -0.133,0.84 0.105,1.253 0.611,1.059 0.339,-0.131 0.669,0.114 0.827,0.612 0.145,0.456 0.431,0.829 0.636,0.829 0.205,0 0.373,0.264 0.373,0.587 0,0.342 0.236,0.497 0.564,0.372 0.339,-0.131 0.669,0.114 0.827,0.612 0.151,0.475 0.605,0.829 1.065,0.829 0.44,0 1.071,0.27 1.401,0.6 0.33,0.33 1.037,0.6 1.572,0.6 0.563,0 0.929,0.21 0.871,0.5 -0.06,0.299 0.422,0.55 1.2,0.625 0.805,0.078 1.3,0.344 1.3,0.7 0,0.449 0.659,0.575 3,0.575 2.669,0 3,0.083 3,0.752 0,0.693 0.385,0.754 5,0.781 4.705,0.029 5,-0.016 5,-0.751 0,-0.696 0.287,-0.782 2.6,-0.782 2.044,0 2.6,-0.128 2.6,-0.6 0,-0.531 1.917,-0.892 3.349,-0.631 0.192,0.035 0.243,-0.214 0.113,-0.553 -0.162,-0.421 0.002,-0.616 0.518,-0.616 1.173,0 2.02,-0.432 2.02,-1.03 0,-0.32 0.248,-0.45 0.6,-0.315 0.38,0.146 0.6,-0.005 0.6,-0.412 0,-0.449 0.366,-0.643 1.213,-0.643 0.708,0 1.308,-0.249 1.442,-0.6 0.127,-0.33 0.481,-0.6 0.788,-0.6 0.306,0 0.557,-0.251 0.557,-0.557 0,-0.307 0.27,-0.661 0.6,-0.788 0.33,-0.126 0.6,-0.5 0.6,-0.83 0,-0.369 0.231,-0.511 0.6,-0.37 0.416,0.16 0.6,-0.027 0.6,-0.612 0,-0.483 0.257,-0.843 0.6,-0.843 0.33,0 0.6,-0.27 0.6,-0.6 0,-0.33 0.27,-0.6 0.6,-0.6 0.33,0 0.6,-0.27 0.6,-0.6 0,-0.33 0.27,-0.6 0.6,-0.6 0.33,0 0.6,-0.27 0.6,-0.6 0,-0.343 0.36,-0.6 0.843,-0.6 0.585,0 0.772,-0.184 0.612,-0.6 -0.141,-0.369 0.001,-0.6 0.37,-0.6 0.33,0 0.704,-0.27 0.83,-0.6 0.127,-0.33 0.481,-0.6 0.788,-0.6 0.306,0 0.557,-0.251 0.557,-0.557 0,-0.307 0.27,-0.661 0.6,-0.788 0.33,-0.126 0.6,-0.5 0.6,-0.83 0,-0.369 0.231,-0.511 0.6,-0.37 0.416,0.16 0.6,-0.027 0.6,-0.612 0,-0.483 0.257,-0.843 0.6,-0.843 0.33,0 0.6,-0.27 0.6,-0.6 0,-0.33 0.27,-0.6 0.6,-0.6 0.33,0 0.6,-0.27 0.6,-0.6 0,-0.33 0.27,-0.6 0.6,-0.6 0.33,0 0.6,-0.27 0.6,-0.6 0,-0.343 0.36,-0.6 0.843,-0.6 0.585,0 0.772,-0.184 0.612,-0.6 -0.141,-0.369 0.001,-0.6 0.37,-0.6 0.33,0 0.704,-0.27 0.83,-0.6 0.127,-0.33 0.481,-0.6 0.788,-0.6 0.306,0 0.557,-0.251 0.557,-0.557 0,-0.307 0.27,-0.661 0.6,-0.788 0.33,-0.126 0.6,-0.5 0.6,-0.83 0,-0.369 0.231,-0.511 0.6,-0.37 0.416,0.16 0.6,-0.027 0.6,-0.612 0,-0.483 0.257,-0.843 0.6,-0.843 0.33,0 0.6,-0.27 0.6,-0.6 0,-0.33 0.27,-0.6 0.6,-0.6 0.33,0 0.6,-0.27 0.6,-0.6 0,-0.33 0.27,-0.6 0.6,-0.6 0.33,0 0.6,-0.27 0.6,-0.6 0,-0.343 0.36,-0.6 0.843,-0.6 0.585,0 0.772,-0.184 0.612,-0.6 -0.141,-0.369 0.001,-0.6 0.37,-0.6 0.33,0 0.704,-0.27 0.83,-0.6 0.127,-0.33 0.481,-0.6 0.788,-0.6 0.306,0 0.557,-0.251 0.557,-0.557 0,-0.307 0.27,-0.661 0.6,-0.788 0.351,-0.134 0.6,-0.734 0.6,-1.442 0,-0.847 0.194,-1.213 0.643,-1.213 0.407,0 0.558,-0.22 0.412,-0.6 -0.135,-0.352 -0.005,-0.6 0.315,-0.6 0.598,0 1.03,-0.847 1.03,-2.02 0,-0.449 0.207,-0.675 0.512,-0.558 0.324,0.124 0.543,-0.184 0.598,-0.839 0.047,-0.57 0.356,-1.307 0.688,-1.638 0.332,-0.332 0.602,-1.307 0.602,-2.174 0,-0.864 0.18,-1.571 0.4,-1.571 0.254,0 0.4,-3.133 0.4,-8.6 0,-5.467 -0.146,-8.6 -0.4,-8.6 -0.22,0 -0.4,-0.9 -0.4,-2 0,-1.511 -0.147,-2 -0.6,-2 -0.399,0 -0.6,-0.399 -0.6,-1.187 0,-0.892 -0.15,-1.13 -0.6,-0.958 -0.465,0.179 -0.6,-0.094 -0.6,-1.212 0,-1.169 -0.15,-1.443 -0.787,-1.443 -0.536,0 -0.714,-0.192 -0.558,-0.6 0.159,-0.415 -0.026,-0.6 -0.6,-0.6 -0.573,0 -0.759,-0.185 -0.6,-0.6 0.162,-0.42 -0.03,-0.6 -0.64,-0.6 -0.677,0 -0.84,-0.2 -0.733,-0.9 0.093,-0.609 -0.294,-1.319 -1.198,-2.197 -0.734,-0.713 -1.223,-1.478 -1.086,-1.7 0.137,-0.222 -0.121,-0.403 -0.574,-0.403 -0.49,0 -0.824,-0.261 -0.824,-0.643 0,-0.407 -0.22,-0.558 -0.6,-0.412 -0.33,0.126 -0.6,0.031 -0.6,-0.212 0,-0.518 -1.873,-2.333 -2.408,-2.333 -0.202,0 -0.263,-0.27 -0.137,-0.6 0.146,-0.38 -0.005,-0.6 -0.412,-0.6 -0.382,0 -0.643,-0.334 -0.643,-0.824 0,-0.453 -0.173,-0.716 -0.385,-0.585 -0.504,0.311 -3.717,-2.902 -3.406,-3.406 0.131,-0.212 -0.132,-0.385 -0.585,-0.385 -0.49,0 -0.824,-0.261 -0.824,-0.643 0,-0.407 -0.22,-0.558 -0.6,-0.412 -0.33,0.126 -0.6,0.031 -0.6,-0.212 0,-0.518 -1.873,-2.333 -2.408,-2.333 -0.202,0 -0.263,-0.27 -0.137,-0.6 0.146,-0.38 -0.005,-0.6 -0.412,-0.6 -0.382,0 -0.643,-0.334 -0.643,-0.824 0,-0.453 -0.173,-0.716 -0.385,-0.585 -0.504,0.311 -3.717,-2.902 -3.406,-3.406 0.131,-0.212 -0.132,-0.385 -0.585,-0.385 -0.49,0 -0.824,-0.261 -0.824,-0.643 0,-0.407 -0.22,-0.558 -0.6,-0.412 -0.33,0.126 -0.6,0.064 -0.6,-0.139 0,-0.203 -0.458,-0.828 -1.018,-1.388 -0.56,-0.56 -1.185,-1.018 -1.388,-1.018 -0.203,0 -0.265,-0.27 -0.139,-0.6 0.146,-0.38 -0.005,-0.6 -0.412,-0.6 -0.382,0 -0.643,-0.334 -0.643,-0.824 0,-0.453 -0.173,-0.716 -0.385,-0.585 -0.504,0.311 -3.717,-2.902 -3.406,-3.406 0.131,-0.212 -0.132,-0.385 -0.585,-0.385 -0.49,0 -0.824,-0.261 -0.824,-0.643 0,-0.407 -0.22,-0.558 -0.6,-0.412 -0.33,0.126 -0.6,0.064 -0.6,-0.139 0,-0.48 -1.926,-2.406 -2.406,-2.406 -0.203,0 -0.265,-0.27 -0.139,-0.6 0.146,-0.38 -0.005,-0.6 -0.412,-0.6 -0.382,0 -0.643,-0.334 -0.643,-0.824 0,-0.453 -0.173,-0.716 -0.385,-0.585 -0.504,0.311 -3.717,-2.902 -3.406,-3.406 0.131,-0.212 -0.132,-0.385 -0.585,-0.385 -0.49,0 -0.824,-0.261 -0.824,-0.643 0,-0.407 -0.22,-0.558 -0.6,-0.412 -0.33,0.126 -0.6,0.064 -0.6,-0.139 0,-0.48 -1.926,-2.406 -2.406,-2.406 -0.203,0 -0.265,-0.27 -0.139,-0.6 0.146,-0.38 -0.005,-0.6 -0.412,-0.6 -0.382,0 -0.643,-0.334 -0.643,-0.824 0,-0.453 -0.173,-0.716 -0.385,-0.585 -0.504,0.311 -3.717,-2.902 -3.406,-3.406 0.131,-0.212 -0.132,-0.385 -0.585,-0.385 -0.49,0 -0.824,-0.261 -0.824,-0.643 0,-0.407 -0.22,-0.558 -0.6,-0.412 -0.33,0.126 -0.6,0.031 -0.6,-0.212 0,-0.518 -1.873,-2.333 -2.408,-2.333 -0.202,0 -0.263,-0.27 -0.137,-0.6 0.146,-0.38 -0.005,-0.6 -0.412,-0.6 -0.382,0 -0.643,-0.334 -0.643,-0.824 0,-0.453 -0.173,-0.716 -0.385,-0.585 -0.504,0.311 -3.717,-2.902 -3.406,-3.406 0.131,-0.212 -0.132,-0.385 -0.585,-0.385 -0.49,0 -0.824,-0.261 -0.824,-0.643 0,-0.407 -0.22,-0.558 -0.6,-0.412 -0.33,0.126 -0.6,0.031 -0.6,-0.212 0,-0.518 -1.873,-2.333 -2.408,-2.333 -0.202,0 -0.263,-0.27 -0.137,-0.6 0.146,-0.38 -0.005,-0.6 -0.412,-0.6 -0.382,0 -0.643,-0.334 -0.643,-0.824 0,-0.453 -0.173,-0.716 -0.385,-0.585 -0.504,0.311 -3.717,-2.902 -3.406,-3.406 0.131,-0.212 -0.132,-0.385 -0.585,-0.385 -0.49,0 -0.824,-0.261 -0.824,-0.643 0,-0.407 -0.22,-0.558 -0.6,-0.412 -0.33,0.126 -0.6,0.064 -0.6,-0.139 0,-0.48 -1.926,-2.406 -2.406,-2.406 -0.203,0 -0.265,-0.27 -0.139,-0.6 0.146,-0.38 -0.005,-0.6 -0.412,-0.6 -0.382,0 -0.643,-0.334 -0.643,-0.824 0,-0.453 -0.173,-0.716 -0.385,-0.585 -0.504,0.311 -3.717,-2.902 -3.406,-3.406 0.131,-0.212 -0.132,-0.385 -0.585,-0.385 -0.49,0 -0.824,-0.261 -0.824,-0.643 0,-0.407 -0.22,-0.558 -0.6,-0.412 -0.33,0.126 -0.6,0.064 -0.6,-0.139 0,-0.48 -1.926,-2.406 -2.406,-2.406 -0.203,0 -0.265,-0.27 -0.139,-0.6 0.146,-0.38 -0.005,-0.6 -0.412,-0.6 -0.382,0 -0.643,-0.334 -0.643,-0.824 0,-0.453 -0.173,-0.716 -0.385,-0.585 -0.504,0.311 -3.717,-2.902 -3.406,-3.406 0.131,-0.212 -0.132,-0.385 -0.585,-0.385 -0.49,0 -0.824,-0.261 -0.824,-0.643 0,-0.407 -0.22,-0.558 -0.6,-0.412 -0.33,0.126 -0.6,0.064 -0.6,-0.139 0,-0.48 -1.926,-2.406 -2.406,-2.406 -0.203,0 -0.265,-0.27 -0.139,-0.6 0.146,-0.38 -0.005,-0.6 -0.412,-0.6 -0.382,0 -0.643,-0.334 -0.643,-0.824 0,-0.453 -0.173,-0.716 -0.385,-0.585 -0.504,0.311 -3.717,-2.902 -3.406,-3.406 0.131,-0.212 -0.132,-0.385 -0.585,-0.385 -0.49,0 -0.824,-0.261 -0.824,-0.643 0,-0.407 -0.22,-0.558 -0.6,-0.412 -0.33,0.126 -0.6,0.031 -0.6,-0.212 0,-0.518 -1.873,-2.333 -2.408,-2.333 -0.202,0 -0.263,-0.27 -0.137,-0.6 0.146,-0.38 -0.005,-0.6 -0.412,-0.6 -0.382,0 -0.643,-0.334 -0.643,-0.824 0,-0.453 -0.173,-0.716 -0.385,-0.585 -0.504,0.311 -3.717,-2.902 -3.406,-3.406 0.131,-0.212 -0.132,-0.385 -0.585,-0.385 -0.49,0 -0.824,-0.261 -0.824,-0.643 0,-0.407 -0.22,-0.558 -0.6,-0.412 -0.33,0.126 -0.6,0.031 -0.6,-0.212 0,-0.518 -1.873,-2.333 -2.408,-2.333 -0.202,0 -0.263,-0.27 -0.137,-0.6 0.146,-0.38 -0.005,-0.6 -0.412,-0.6 -0.382,0 -0.643,-0.334 -0.643,-0.824 0,-0.453 -0.173,-0.716 -0.385,-0.585 -0.504,0.311 -3.717,-2.902 -3.406,-3.406 0.131,-0.212 -0.132,-0.385 -0.585,-0.385 -0.49,0 -0.824,-0.261 -0.824,-0.643 0,-0.407 -0.22,-0.558 -0.6,-0.412 -0.33,0.126 -0.6,0.031 -0.6,-0.212 0,-0.518 -1.873,-2.333 -2.408,-2.333 -0.202,0 -0.263,-0.27 -0.137,-0.6 0.146,-0.38 -0.005,-0.6 -0.412,-0.6 -0.382,0 -0.643,-0.334 -0.643,-0.824 0,-0.453 -0.173,-0.716 -0.385,-0.585 -0.504,0.311 -3.717,-2.902 -3.406,-3.406 0.131,-0.212 -0.132,-0.385 -0.585,-0.385 -0.49,0 -0.824,-0.261 -0.824,-0.643 0,-0.407 -0.22,-0.558 -0.6,-0.412 -0.33,0.126 -0.6,0.064 -0.6,-0.139 0,-0.48 -1.926,-2.406 -2.406,-2.406 -0.203,0 -0.265,-0.27 -0.139,-0.6 0.146,-0.38 -0.005,-0.6 -0.412,-0.6 -0.382,0 -0.643,-0.334 -0.643,-0.824 0,-0.453 -0.173,-0.716 -0.385,-0.585 -0.504,0.311 -3.717,-2.902 -3.406,-3.406 0.131,-0.212 -0.132,-0.385 -0.585,-0.385 -0.49,0 -0.824,-0.261 -0.824,-0.643 0,-0.407 -0.22,-0.558 -0.6,-0.412 -0.33,0.126 -0.6,0.064 -0.6,-0.139 0,-0.48 -1.926,-2.406 -2.406,-2.406 -0.203,0 -0.265,-0.27 -0.139,-0.6 0.146,-0.38 -0.005,-0.6 -0.412,-0.6 -0.382,0 -0.643,-0.334 -0.643,-0.824 0,-0.453 -0.173,-0.716 -0.385,-0.585 -0.504,0.311 -3.717,-2.902 -3.406,-3.406 0.131,-0.212 -0.132,-0.385 -0.585,-0.385 -0.49,0 -0.824,-0.261 -0.824,-0.643 0,-0.407 -0.22,-0.558 -0.6,-0.412 -0.33,0.126 -0.6,0.031 -0.6,-0.212 0,-0.518 -1.873,-2.333 -2.408,-2.333 -0.202,0 -0.263,-0.27 -0.137,-0.6 0.146,-0.38 -0.005,-0.6 -0.412,-0.6 -0.382,0 -0.643,-0.334 -0.643,-0.824 0,-0.453 -0.173,-0.716 -0.385,-0.585 -0.504,0.311 -3.717,-2.902 -3.406,-3.406 0.131,-0.212 -0.132,-0.385 -0.585,-0.385 -0.49,0 -0.824,-0.261 -0.824,-0.643 0,-0.407 -0.22,-0.558 -0.6,-0.412 -0.33,0.126 -0.6,0.031 -0.6,-0.212 0,-0.518 -1.873,-2.333 -2.408,-2.333 -0.202,0 -0.263,-0.27 -0.137,-0.6 0.146,-0.38 -0.005,-0.6 -0.412,-0.6 -0.382,0 -0.643,-0.334 -0.643,-0.824 0,-0.474 -0.178,-0.713 -0.421,-0.563 -0.232,0.143 -0.727,-0.071 -1.1,-0.476 -0.374,-0.405 -1.039,-0.737 -1.479,-0.737 -0.516,0 -0.78,-0.248 -0.744,-0.7 0.034,-0.439 -0.226,-0.7 -0.7,-0.7 -0.428,0 -0.756,-0.279 -0.756,-0.643 0,-0.407 -0.22,-0.558 -0.6,-0.412 -0.4,0.153 -0.6,-0.016 -0.6,-0.508 0,-0.515 -0.294,-0.737 -0.979,-0.737 -0.538,0 -1.271,-0.292 -1.628,-0.65 -0.358,-0.358 -0.837,-0.65 -1.064,-0.65 -0.228,0 -0.311,-0.27 -0.184,-0.6 0.181,-0.472 -0.114,-0.6 -1.386,-0.6 -0.903,0 -1.881,-0.265 -2.216,-0.6 -0.386,-0.386 -1.375,-0.6 -2.772,-0.6 -1.983,0 -2.172,-0.078 -2.177,-0.9 -0.005,-0.657 -0.099,-0.754 -0.35,-0.357 -0.249,0.392 -0.422,0.416 -0.627,0.085 -0.55,-0.89 -10.217,-0.499 -10.217,0.413 m 0,240 c 0,0.652 -0.306,0.759 -2.171,0.759 -1.397,0 -2.386,0.214 -2.772,0.6 -0.335,0.335 -1.313,0.6 -2.216,0.6 -1.272,0 -1.567,0.128 -1.386,0.6 0.179,0.465 -0.094,0.6 -1.212,0.6 -1.169,0 -1.443,0.15 -1.443,0.787 0,0.545 -0.19,0.715 -0.616,0.551 -0.339,-0.13 -0.588,-0.079 -0.553,0.113 0.161,0.884 -0.081,1.305 -0.631,1.094 -0.42,-0.162 -0.6,0.03 -0.6,0.64 0,0.677 -0.2,0.84 -0.9,0.733 -0.609,-0.093 -1.319,0.294 -2.197,1.198 -0.713,0.734 -1.478,1.223 -1.7,1.086 -0.222,-0.137 -0.403,0.121 -0.403,0.574 0,0.49 -0.261,0.824 -0.643,0.824 -0.407,0 -0.558,0.22 -0.412,0.6 0.126,0.33 0.064,0.6 -0.139,0.6 -0.48,0 -2.406,1.926 -2.406,2.406 0,0.203 -0.27,0.265 -0.6,0.139 -0.38,-0.146 -0.6,0.005 -0.6,0.412 0,0.382 -0.334,0.643 -0.824,0.643 -0.453,0 -0.716,0.173 -0.585,0.385 0.131,0.212 -0.495,1.119 -1.391,2.015 -0.896,0.896 -1.803,1.522 -2.015,1.391 -0.212,-0.131 -0.385,0.132 -0.385,0.585 0,0.49 -0.261,0.824 -0.643,0.824 -0.407,0 -0.558,0.22 -0.412,0.6 0.126,0.33 0.064,0.6 -0.139,0.6 -0.48,0 -2.406,1.926 -2.406,2.406 0,0.203 -0.27,0.265 -0.6,0.139 -0.38,-0.146 -0.6,0.005 -0.6,0.412 0,0.382 -0.334,0.643 -0.824,0.643 -0.453,0 -0.716,0.173 -0.585,0.385 0.311,0.504 -2.902,3.717 -3.406,3.406 -0.212,-0.131 -0.385,0.132 -0.385,0.585 0,0.49 -0.261,0.824 -0.643,0.824 -0.407,0 -0.558,0.22 -0.412,0.6 0.126,0.33 0.064,0.6 -0.139,0.6 -0.48,0 -2.406,1.926 -2.406,2.406 0,0.203 -0.27,0.265 -0.6,0.139 -0.38,-0.146 -0.6,0.005 -0.6,0.412 0,0.382 -0.334,0.643 -0.824,0.643 -0.453,0 -0.716,0.173 -0.585,0.385 0.311,0.504 -2.902,3.717 -3.406,3.406 -0.212,-0.131 -0.385,0.132 -0.385,0.585 0,0.49 -0.261,0.824 -0.643,0.824 -0.407,0 -0.558,0.22 -0.412,0.6 0.126,0.33 0.064,0.6 -0.139,0.6 -0.48,0 -2.406,1.926 -2.406,2.406 0,0.203 -0.27,0.265 -0.6,0.139 -0.38,-0.146 -0.6,0.005 -0.6,0.412 0,0.382 -0.334,0.643 -0.824,0.643 -0.453,0 -0.716,0.173 -0.585,0.385 0.311,0.504 -2.902,3.717 -3.406,3.406 -0.212,-0.131 -0.385,0.132 -0.385,0.585 0,0.49 -0.261,0.824 -0.643,0.824 -0.407,0 -0.558,0.22 -0.412,0.6 0.126,0.33 0.064,0.6 -0.139,0.6 -0.48,0 -2.406,1.926 -2.406,2.406 0,0.203 -0.27,0.265 -0.6,0.139 -0.38,-0.146 -0.6,0.005 -0.6,0.412 0,0.382 -0.334,0.643 -0.824,0.643 -0.453,0 -0.716,0.173 -0.585,0.385 0.311,0.504 -2.902,3.717 -3.406,3.406 -0.212,-0.131 -0.385,0.132 -0.385,0.585 0,0.49 -0.261,0.824 -0.643,0.824 -0.407,0 -0.558,0.22 -0.412,0.6 0.126,0.33 0.064,0.6 -0.139,0.6 -0.48,0 -2.406,1.926 -2.406,2.406 0,0.203 -0.27,0.265 -0.6,0.139 -0.38,-0.146 -0.6,0.005 -0.6,0.412 0,0.382 -0.334,0.643 -0.824,0.643 -0.453,0 -0.716,0.173 -0.585,0.385 0.311,0.504 -2.902,3.717 -3.406,3.406 -0.212,-0.131 -0.385,0.132 -0.385,0.585 0,0.49 -0.261,0.824 -0.643,0.824 -0.407,0 -0.558,0.22 -0.412,0.6 0.126,0.33 0.064,0.6 -0.139,0.6 -0.48,0 -2.406,1.926 -2.406,2.406 0,0.203 -0.27,0.265 -0.6,0.139 -0.38,-0.146 -0.6,0.005 -0.6,0.412 0,0.382 -0.334,0.643 -0.824,0.643 -0.453,0 -0.716,0.173 -0.585,0.385 0.311,0.504 -2.902,3.717 -3.406,3.406 -0.212,-0.131 -0.385,0.132 -0.385,0.585 0,0.49 -0.261,0.824 -0.643,0.824 -0.407,0 -0.558,0.22 -0.412,0.6 0.126,0.33 0.064,0.6 -0.139,0.6 -0.48,0 -2.406,1.926 -2.406,2.406 0,0.203 -0.27,0.265 -0.6,0.139 -0.38,-0.146 -0.6,0.005 -0.6,0.412 0,0.382 -0.334,0.643 -0.824,0.643 -0.453,0 -0.716,0.173 -0.585,0.385 0.311,0.504 -2.902,3.717 -3.406,3.406 -0.212,-0.131 -0.385,0.132 -0.385,0.585 0,0.49 -0.261,0.824 -0.643,0.824 -0.407,0 -0.558,0.22 -0.412,0.6 0.126,0.33 0.064,0.6 -0.139,0.6 -0.48,0 -2.406,1.926 -2.406,2.406 0,0.203 -0.27,0.265 -0.6,0.139 -0.38,-0.146 -0.6,0.005 -0.6,0.412 0,0.382 -0.334,0.643 -0.824,0.643 -0.453,0 -0.716,0.173 -0.585,0.385 0.311,0.504 -2.902,3.717 -3.406,3.406 -0.212,-0.131 -0.385,0.132 -0.385,0.585 0,0.49 -0.261,0.824 -0.643,0.824 -0.407,0 -0.558,0.22 -0.412,0.6 0.126,0.33 0.064,0.6 -0.139,0.6 -0.48,0 -2.406,1.926 -2.406,2.406 0,0.203 -0.27,0.265 -0.6,0.139 -0.38,-0.146 -0.6,0.005 -0.6,0.412 0,0.382 -0.334,0.643 -0.824,0.643 -0.453,0 -0.716,0.173 -0.585,0.385 0.311,0.504 -2.902,3.717 -3.406,3.406 -0.212,-0.131 -0.385,0.132 -0.385,0.585 0,0.49 -0.261,0.824 -0.643,0.824 -0.407,0 -0.558,0.22 -0.412,0.6 0.126,0.33 0.064,0.6 -0.139,0.6 -0.48,0 -2.406,1.926 -2.406,2.406 0,0.203 -0.27,0.265 -0.6,0.139 -0.38,-0.146 -0.6,0.005 -0.6,0.412 0,0.382 -0.334,0.643 -0.824,0.643 -0.453,0 -0.716,0.173 -0.585,0.385 0.311,0.504 -2.902,3.717 -3.406,3.406 -0.212,-0.131 -0.385,0.132 -0.385,0.585 0,0.49 -0.261,0.824 -0.643,0.824 -0.407,0 -0.558,0.22 -0.412,0.6 0.126,0.33 0.064,0.6 -0.139,0.6 -0.48,0 -2.406,1.926 -2.406,2.406 0,0.203 -0.27,0.265 -0.6,0.139 -0.38,-0.146 -0.6,0.005 -0.6,0.412 0,0.382 -0.334,0.643 -0.824,0.643 -0.453,0 -0.716,0.173 -0.585,0.385 0.311,0.504 -2.902,3.717 -3.406,3.406 -0.212,-0.131 -0.385,0.132 -0.385,0.585 0,0.49 -0.261,0.824 -0.643,0.824 -0.407,0 -0.558,0.22 -0.412,0.6 0.126,0.33 0.064,0.6 -0.139,0.6 -0.48,0 -2.406,1.926 -2.406,2.406 0,0.203 -0.27,0.265 -0.6,0.139 -0.38,-0.146 -0.6,0.005 -0.6,0.412 0,0.382 -0.334,0.643 -0.824,0.643 -0.453,0 -0.716,0.173 -0.585,0.385 0.311,0.504 -2.902,3.717 -3.406,3.406 -0.212,-0.131 -0.385,0.132 -0.385,0.585 0,0.49 -0.261,0.824 -0.643,0.824 -0.407,0 -0.558,0.22 -0.412,0.6 0.126,0.33 0.064,0.6 -0.139,0.6 -0.48,0 -2.406,1.926 -2.406,2.406 0,0.203 -0.27,0.265 -0.6,0.139 -0.38,-0.146 -0.6,0.005 -0.6,0.412 0,0.382 -0.334,0.643 -0.824,0.643 -0.453,0 -0.716,0.173 -0.585,0.385 0.311,0.504 -2.902,3.717 -3.406,3.406 -0.212,-0.131 -0.385,0.132 -0.385,0.585 0,0.49 -0.261,0.824 -0.643,0.824 -0.407,0 -0.558,0.22 -0.412,0.6 0.126,0.33 0.064,0.6 -0.139,0.6 -0.48,0 -2.406,1.926 -2.406,2.406 0,0.203 -0.27,0.265 -0.6,0.139 -0.38,-0.146 -0.6,0.005 -0.6,0.412 0,0.382 -0.334,0.643 -0.824,0.643 -0.453,0 -0.716,0.173 -0.585,0.385 0.311,0.504 -2.902,3.717 -3.406,3.406 -0.212,-0.131 -0.385,0.132 -0.385,0.585 0,0.49 -0.261,0.824 -0.643,0.824 -0.407,0 -0.558,0.22 -0.412,0.6 0.126,0.33 0.064,0.6 -0.139,0.6 -0.48,0 -2.406,1.926 -2.406,2.406 0,0.203 -0.27,0.265 -0.6,0.139 -0.38,-0.146 -0.6,0.005 -0.6,0.412 0,0.382 -0.334,0.643 -0.824,0.643 -0.453,0 -0.716,0.173 -0.585,0.385 0.311,0.504 -2.902,3.717 -3.406,3.406 -0.212,-0.131 -0.385,0.132 -0.385,0.585 0,0.49 -0.261,0.824 -0.643,0.824 -0.407,0 -0.558,0.22 -0.412,0.6 0.126,0.33 0.064,0.6 -0.139,0.6 -0.48,0 -2.406,1.926 -2.406,2.406 0,0.203 -0.27,0.265 -0.6,0.139 -0.38,-0.146 -0.6,0.005 -0.6,0.412 0,0.382 -0.334,0.643 -0.824,0.643 -0.453,0 -0.716,0.173 -0.585,0.385 0.301,0.488 -2.894,3.722 -3.381,3.421 -0.198,-0.122 -0.417,0.456 -0.485,1.286 -0.085,1.025 -0.301,1.471 -0.674,1.392 -0.349,-0.074 -0.463,0.107 -0.313,0.5 0.164,0.426 -0.006,0.616 -0.551,0.616 -0.637,0 -0.787,0.274 -0.787,1.443 0,1.118 -0.135,1.391 -0.6,1.212 C 2.15,495.683 2,495.921 2,496.813 2,497.601 1.799,498 1.4,498 c -0.419,0 -0.6,0.422 -0.6,1.4 0,0.77 -0.18,1.4 -0.4,1.4 -0.256,0 -0.4,3.6 -0.4,10 0,6.4 0.144,10 0.4,10 0.22,0 0.4,0.829 0.4,1.843 0,1.473 0.12,1.796 0.6,1.612 0.433,-0.166 0.6,0.044 0.6,0.754 0,0.572 0.503,1.464 1.2,2.131 0.868,0.829 1.202,1.522 1.206,2.503 0.005,0.99 0.107,1.198 0.377,0.771 0.298,-0.471 0.453,-0.373 0.784,0.5 0.227,0.597 0.598,1.086 0.823,1.086 0.226,0 0.41,0.27 0.41,0.6 0,0.33 0.27,0.6 0.6,0.6 0.33,0 0.6,0.184 0.6,0.41 0,0.225 0.489,0.596 1.086,0.823 0.873,0.331 0.971,0.486 0.5,0.784 -0.461,0.292 -0.395,0.372 0.314,0.377 0.531,0.003 0.9,0.252 0.9,0.606 0,0.33 0.27,0.6 0.6,0.6 0.33,0 0.6,0.27 0.6,0.6 0,0.33 0.27,0.6 0.6,0.6 0.33,0 0.6,0.27 0.6,0.6 0,0.33 0.27,0.6 0.6,0.6 0.354,0 0.603,0.369 0.606,0.9 0.005,0.709 0.085,0.775 0.377,0.314 0.298,-0.471 0.453,-0.373 0.784,0.5 0.227,0.597 0.598,1.086 0.823,1.086 0.226,0 0.41,0.27 0.41,0.6 0,0.33 0.27,0.6 0.6,0.6 0.33,0 0.6,0.184 0.6,0.41 0,0.225 0.489,0.596 1.086,0.823 0.873,0.331 0.971,0.486 0.5,0.784 -0.461,0.292 -0.395,0.372 0.314,0.377 0.531,0.003 0.9,0.252 0.9,0.606 0,0.33 0.27,0.6 0.6,0.6 0.33,0 0.6,0.27 0.6,0.6 0,0.33 0.27,0.6 0.6,0.6 0.33,0 0.6,0.27 0.6,0.6 0,0.33 0.27,0.6 0.6,0.6 0.354,0 0.603,0.369 0.606,0.9 0.005,0.709 0.085,0.775 0.377,0.314 0.298,-0.471 0.453,-0.373 0.784,0.5 0.227,0.597 0.598,1.086 0.823,1.086 0.226,0 0.41,0.27 0.41,0.6 0,0.33 0.27,0.6 0.6,0.6 0.33,0 0.6,0.184 0.6,0.41 0,0.225 0.489,0.596 1.086,0.823 0.873,0.331 0.971,0.486 0.5,0.784 -0.461,0.292 -0.395,0.372 0.314,0.377 0.531,0.003 0.9,0.252 0.9,0.606 0,0.33 0.27,0.6 0.6,0.6 0.33,0 0.6,0.27 0.6,0.6 0,0.33 0.27,0.6 0.6,0.6 0.33,0 0.6,0.27 0.6,0.6 0,0.33 0.27,0.6 0.6,0.6 0.354,0 0.603,0.369 0.606,0.9 0.005,0.709 0.085,0.775 0.377,0.314 0.298,-0.471 0.453,-0.373 0.784,0.5 0.227,0.597 0.598,1.086 0.823,1.086 0.226,0 0.41,0.27 0.41,0.6 0,0.33 0.27,0.6 0.6,0.6 0.33,0 0.6,0.184 0.6,0.41 0,0.225 0.489,0.596 1.086,0.823 0.873,0.331 0.971,0.486 0.5,0.784 -0.429,0.271 -0.23,0.372 0.743,0.377 0.73,0.003 1.598,0.276 1.928,0.606 0.33,0.33 1.032,0.6 1.559,0.6 0.688,0 0.894,0.169 0.729,0.6 -0.17,0.441 0.053,0.6 0.841,0.6 0.589,0 1.341,0.27 1.671,0.6 0.386,0.386 1.375,0.6 2.772,0.6 1.891,0 2.171,0.101 2.171,0.785 0,0.748 0.297,0.784 6.2,0.759 5.813,-0.024 6.2,-0.073 6.2,-0.785 0,-0.661 0.31,-0.759 2.4,-0.759 1.82,0 2.4,-0.139 2.4,-0.575 0,-0.356 0.495,-0.622 1.3,-0.7 0.778,-0.075 1.26,-0.326 1.2,-0.625 -0.058,-0.29 0.308,-0.5 0.871,-0.5 0.535,0 1.242,-0.27 1.572,-0.6 0.33,-0.33 0.961,-0.6 1.401,-0.6 0.46,0 0.914,-0.354 1.065,-0.829 0.158,-0.498 0.488,-0.743 0.827,-0.612 0.328,0.125 0.564,-0.03 0.564,-0.372 0,-0.323 0.168,-0.587 0.373,-0.587 0.205,0 0.491,-0.373 0.636,-0.829 0.158,-0.498 0.488,-0.743 0.827,-0.612 0.506,0.194 0.744,-0.219 0.611,-1.059 -0.026,-0.165 0.088,-0.279 0.253,-0.253 0.84,0.133 1.253,-0.105 1.059,-0.611 -0.131,-0.339 0.114,-0.669 0.612,-0.827 0.456,-0.145 0.829,-0.431 0.829,-0.636 0,-0.205 0.264,-0.373 0.587,-0.373 0.358,0 0.498,-0.235 0.358,-0.6 -0.127,-0.33 -0.04,-0.6 0.194,-0.6 0.551,0 2.461,-1.91 2.461,-2.461 0,-0.234 0.27,-0.321 0.6,-0.194 0.365,0.14 0.6,0 0.6,-0.358 0,-0.323 0.168,-0.587 0.373,-0.587 0.205,0 0.491,-0.373 0.636,-0.829 0.158,-0.498 0.488,-0.743 0.827,-0.612 0.506,0.194 0.744,-0.219 0.611,-1.059 -0.026,-0.165 0.088,-0.279 0.253,-0.253 0.84,0.133 1.253,-0.105 1.059,-0.611 -0.131,-0.339 0.114,-0.669 0.612,-0.827 0.456,-0.145 0.829,-0.431 0.829,-0.636 0,-0.205 0.264,-0.373 0.587,-0.373 0.358,0 0.498,-0.235 0.358,-0.6 -0.127,-0.33 -0.04,-0.6 0.194,-0.6 0.551,0 2.461,-1.91 2.461,-2.461 0,-0.234 0.27,-0.321 0.6,-0.194 0.365,0.14 0.6,0 0.6,-0.358 0,-0.323 0.168,-0.587 0.373,-0.587 0.205,0 0.491,-0.373 0.636,-0.829 0.158,-0.498 0.488,-0.743 0.827,-0.612 0.506,0.194 0.744,-0.219 0.611,-1.059 -0.026,-0.165 0.088,-0.279 0.253,-0.253 0.84,0.133 1.253,-0.105 1.059,-0.611 -0.131,-0.339 0.114,-0.669 0.612,-0.827 0.456,-0.145 0.829,-0.431 0.829,-0.636 0,-0.205 0.264,-0.373 0.587,-0.373 0.358,0 0.498,-0.235 0.358,-0.6 -0.127,-0.33 -0.04,-0.6 0.194,-0.6 0.551,0 2.461,-1.91 2.461,-2.461 0,-0.234 0.27,-0.321 0.6,-0.194 0.365,0.14 0.6,0 0.6,-0.358 0,-0.323 0.168,-0.587 0.373,-0.587 0.205,0 0.491,-0.373 0.636,-0.829 0.158,-0.498 0.488,-0.743 0.827,-0.612 0.506,0.194 0.744,-0.219 0.611,-1.059 -0.026,-0.165 0.088,-0.279 0.253,-0.253 0.84,0.133 1.253,-0.105 1.059,-0.611 -0.131,-0.339 0.114,-0.669 0.612,-0.827 0.456,-0.145 0.829,-0.431 0.829,-0.636 0,-0.205 0.264,-0.373 0.587,-0.373 0.358,0 0.498,-0.235 0.358,-0.6 -0.127,-0.33 -0.04,-0.6 0.194,-0.6 0.551,0 2.461,-1.91 2.461,-2.461 0,-0.234 0.27,-0.321 0.6,-0.194 0.365,0.14 0.6,0 0.6,-0.358 0,-0.323 0.168,-0.587 0.373,-0.587 0.205,0 0.491,-0.373 0.636,-0.829 0.158,-0.498 0.488,-0.743 0.827,-0.612 0.506,0.194 0.744,-0.219 0.611,-1.059 -0.026,-0.165 0.088,-0.279 0.253,-0.253 0.84,0.133 1.253,-0.105 1.059,-0.611 -0.131,-0.339 0.114,-0.669 0.612,-0.827 0.456,-0.145 0.829,-0.431 0.829,-0.636 0,-0.205 0.264,-0.373 0.587,-0.373 0.358,0 0.498,-0.235 0.358,-0.6 -0.127,-0.33 -0.04,-0.6 0.194,-0.6 0.551,0 2.461,-1.91 2.461,-2.461 0,-0.234 0.27,-0.321 0.6,-0.194 0.365,0.14 0.6,0 0.6,-0.358 0,-0.323 0.168,-0.587 0.373,-0.587 0.205,0 0.491,-0.373 0.636,-0.829 0.158,-0.498 0.488,-0.743 0.827,-0.612 0.506,0.194 0.744,-0.219 0.611,-1.059 -0.026,-0.165 0.088,-0.279 0.253,-0.253 0.84,0.133 1.253,-0.105 1.059,-0.611 -0.131,-0.339 0.114,-0.669 0.612,-0.827 0.456,-0.145 0.829,-0.431 0.829,-0.636 0,-0.205 0.264,-0.373 0.587,-0.373 0.358,0 0.498,-0.235 0.358,-0.6 -0.127,-0.33 -0.04,-0.6 0.194,-0.6 0.551,0 2.461,-1.91 2.461,-2.461 0,-0.234 0.27,-0.321 0.6,-0.194 0.365,0.14 0.6,0 0.6,-0.358 0,-0.323 0.168,-0.587 0.373,-0.587 0.205,0 0.491,-0.373 0.636,-0.829 0.158,-0.498 0.488,-0.743 0.827,-0.612 0.506,0.194 0.744,-0.219 0.611,-1.059 -0.026,-0.165 0.088,-0.279 0.253,-0.253 0.84,0.133 1.253,-0.105 1.059,-0.611 -0.131,-0.339 0.114,-0.669 0.612,-0.827 0.456,-0.145 0.829,-0.431 0.829,-0.636 0,-0.205 0.264,-0.373 0.587,-0.373 0.358,0 0.498,-0.235 0.358,-0.6 -0.127,-0.33 -0.04,-0.6 0.194,-0.6 0.551,0 2.461,-1.91 2.461,-2.461 0,-0.234 0.27,-0.321 0.6,-0.194 0.365,0.14 0.6,0 0.6,-0.358 0,-0.323 0.168,-0.587 0.373,-0.587 0.205,0 0.491,-0.373 0.636,-0.829 0.158,-0.498 0.488,-0.743 0.827,-0.612 0.506,0.194 0.744,-0.219 0.611,-1.059 -0.026,-0.165 0.088,-0.279 0.253,-0.253 0.84,0.133 1.253,-0.105 1.059,-0.611 -0.131,-0.339 0.114,-0.669 0.612,-0.827 0.456,-0.145 0.829,-0.431 0.829,-0.636 0,-0.205 0.264,-0.373 0.587,-0.373 0.358,0 0.498,-0.235 0.358,-0.6 -0.127,-0.33 -0.04,-0.6 0.194,-0.6 0.551,0 2.461,-1.91 2.461,-2.461 0,-0.234 0.27,-0.321 0.6,-0.194 0.365,0.14 0.6,0 0.6,-0.358 0,-0.323 0.168,-0.587 0.373,-0.587 0.205,0 0.491,-0.373 0.636,-0.829 0.158,-0.498 0.488,-0.743 0.827,-0.612 0.506,0.194 0.744,-0.219 0.611,-1.059 -0.026,-0.165 0.088,-0.279 0.253,-0.253 0.84,0.133 1.253,-0.105 1.059,-0.611 -0.131,-0.339 0.114,-0.669 0.612,-0.827 0.456,-0.145 0.829,-0.431 0.829,-0.636 0,-0.205 0.264,-0.373 0.587,-0.373 0.358,0 0.498,-0.235 0.358,-0.6 -0.127,-0.33 -0.04,-0.6 0.194,-0.6 0.551,0 2.461,-1.91 2.461,-2.461 0,-0.234 0.27,-0.321 0.6,-0.194 0.365,0.14 0.6,0 0.6,-0.358 0,-0.323 0.168,-0.587 0.373,-0.587 0.205,0 0.491,-0.373 0.636,-0.829 0.158,-0.498 0.488,-0.743 0.827,-0.612 0.506,0.194 0.744,-0.219 0.611,-1.059 -0.026,-0.165 0.088,-0.279 0.253,-0.253 0.84,0.133 1.253,-0.105 1.059,-0.611 -0.131,-0.339 0.114,-0.669 0.612,-0.827 0.456,-0.145 0.829,-0.431 0.829,-0.636 0,-0.205 0.264,-0.373 0.587,-0.373 0.358,0 0.498,-0.235 0.358,-0.6 -0.127,-0.33 -0.04,-0.6 0.194,-0.6 0.551,0 2.461,-1.91 2.461,-2.461 0,-0.234 0.27,-0.321 0.6,-0.194 0.365,0.14 0.6,0 0.6,-0.358 0,-0.323 0.168,-0.587 0.373,-0.587 0.205,0 0.491,-0.373 0.636,-0.829 0.158,-0.498 0.488,-0.743 0.827,-0.612 0.506,0.194 0.744,-0.219 0.611,-1.059 -0.026,-0.165 0.088,-0.279 0.253,-0.253 0.84,0.133 1.253,-0.105 1.059,-0.611 -0.131,-0.339 0.114,-0.669 0.612,-0.827 0.456,-0.145 0.829,-0.431 0.829,-0.636 0,-0.205 0.264,-0.373 0.587,-0.373 0.358,0 0.498,-0.235 0.358,-0.6 -0.127,-0.33 -0.04,-0.6 0.194,-0.6 0.551,0 2.461,-1.91 2.461,-2.461 0,-0.234 0.27,-0.321 0.6,-0.194 0.365,0.14 0.6,0 0.6,-0.358 0,-0.323 0.168,-0.587 0.373,-0.587 0.205,0 0.491,-0.373 0.636,-0.829 0.158,-0.498 0.488,-0.743 0.827,-0.612 0.506,0.194 0.744,-0.219 0.611,-1.059 -0.026,-0.165 0.088,-0.279 0.253,-0.253 0.84,0.133 1.253,-0.105 1.059,-0.611 -0.131,-0.339 0.114,-0.669 0.612,-0.827 0.456,-0.145 0.829,-0.431 0.829,-0.636 0,-0.205 0.264,-0.373 0.587,-0.373 0.358,0 0.498,-0.235 0.358,-0.6 -0.127,-0.33 -0.04,-0.6 0.194,-0.6 0.551,0 2.461,-1.91 2.461,-2.461 0,-0.234 0.27,-0.321 0.6,-0.194 0.365,0.14 0.6,0 0.6,-0.358 0,-0.323 0.168,-0.587 0.373,-0.587 0.205,0 0.487,-0.36 0.627,-0.8 0.14,-0.44 0.59,-0.8 1,-0.8 0.41,0 0.86,0.36 1,0.8 0.14,0.44 0.422,0.8 0.627,0.8 0.205,0 0.373,0.264 0.373,0.587 0,0.358 0.235,0.498 0.6,0.358 0.33,-0.127 0.6,-0.04 0.6,0.194 0,0.551 1.91,2.461 2.461,2.461 0.234,0 0.321,0.27 0.194,0.6 -0.14,0.365 0,0.6 0.358,0.6 0.323,0 0.587,0.168 0.587,0.373 0,0.205 0.373,0.491 0.829,0.636 0.498,0.158 0.743,0.488 0.612,0.827 -0.194,0.506 0.219,0.744 1.059,0.611 0.165,-0.026 0.279,0.088 0.253,0.253 -0.133,0.84 0.105,1.253 0.611,1.059 0.339,-0.131 0.669,0.114 0.827,0.612 0.145,0.456 0.431,0.829 0.636,0.829 0.205,0 0.373,0.264 0.373,0.587 0,0.358 0.235,0.498 0.6,0.358 0.33,-0.127 0.6,-0.04 0.6,0.194 0,0.551 1.91,2.461 2.461,2.461 0.234,0 0.321,0.27 0.194,0.6 -0.14,0.365 0,0.6 0.358,0.6 0.323,0 0.587,0.168 0.587,0.373 0,0.205 0.373,0.491 0.829,0.636 0.498,0.158 0.743,0.488 0.612,0.827 -0.194,0.506 0.219,0.744 1.059,0.611 0.165,-0.026 0.279,0.088 0.253,0.253 -0.133,0.84 0.105,1.253 0.611,1.059 0.339,-0.131 0.669,0.114 0.827,0.612 0.145,0.456 0.431,0.829 0.636,0.829 0.205,0 0.373,0.264 0.373,0.587 0,0.358 0.235,0.498 0.6,0.358 0.33,-0.127 0.6,-0.04 0.6,0.194 0,0.551 1.91,2.461 2.461,2.461 0.234,0 0.321,0.27 0.194,0.6 -0.14,0.365 0,0.6 0.358,0.6 0.323,0 0.587,0.168 0.587,0.373 0,0.205 0.373,0.491 0.829,0.636 0.498,0.158 0.743,0.488 0.612,0.827 -0.194,0.506 0.219,0.744 1.059,0.611 0.165,-0.026 0.279,0.088 0.253,0.253 -0.133,0.84 0.105,1.253 0.611,1.059 0.339,-0.131 0.669,0.114 0.827,0.612 0.145,0.456 0.431,0.829 0.636,0.829 0.205,0 0.373,0.264 0.373,0.587 0,0.358 0.235,0.498 0.6,0.358 0.33,-0.127 0.6,-0.04 0.6,0.194 0,0.551 1.91,2.461 2.461,2.461 0.234,0 0.321,0.27 0.194,0.6 -0.14,0.365 0,0.6 0.358,0.6 0.323,0 0.587,0.168 0.587,0.373 0,0.205 0.373,0.491 0.829,0.636 0.498,0.158 0.743,0.488 0.612,0.827 -0.194,0.506 0.219,0.744 1.059,0.611 0.165,-0.026 0.279,0.088 0.253,0.253 -0.133,0.84 0.105,1.253 0.611,1.059 0.339,-0.131 0.669,0.114 0.827,0.612 0.145,0.456 0.431,0.829 0.636,0.829 0.205,0 0.373,0.264 0.373,0.587 0,0.358 0.235,0.498 0.6,0.358 0.33,-0.127 0.6,-0.04 0.6,0.194 0,0.551 1.91,2.461 2.461,2.461 0.234,0 0.321,0.27 0.194,0.6 -0.14,0.365 0,0.6 0.358,0.6 0.323,0 0.587,0.168 0.587,0.373 0,0.205 0.373,0.491 0.829,0.636 0.498,0.158 0.743,0.488 0.612,0.827 -0.194,0.506 0.219,0.744 1.059,0.611 0.165,-0.026 0.279,0.088 0.253,0.253 -0.133,0.84 0.105,1.253 0.611,1.059 0.339,-0.131 0.669,0.114 0.827,0.612 0.145,0.456 0.431,0.829 0.636,0.829 0.205,0 0.373,0.264 0.373,0.587 0,0.358 0.235,0.498 0.6,0.358 0.33,-0.127 0.6,-0.04 0.6,0.194 0,0.551 1.91,2.461 2.461,2.461 0.234,0 0.321,0.27 0.194,0.6 -0.14,0.365 0,0.6 0.358,0.6 0.323,0 0.587,0.168 0.587,0.373 0,0.205 0.373,0.491 0.829,0.636 0.498,0.158 0.743,0.488 0.612,0.827 -0.194,0.506 0.219,0.744 1.059,0.611 0.165,-0.026 0.279,0.088 0.253,0.253 -0.133,0.84 0.105,1.253 0.611,1.059 0.339,-0.131 0.669,0.114 0.827,0.612 0.145,0.456 0.431,0.829 0.636,0.829 0.205,0 0.373,0.264 0.373,0.587 0,0.358 0.235,0.498 0.6,0.358 0.33,-0.127 0.6,-0.04 0.6,0.194 0,0.551 1.91,2.461 2.461,2.461 0.234,0 0.321,0.27 0.194,0.6 -0.14,0.365 0,0.6 0.358,0.6 0.323,0 0.587,0.168 0.587,0.373 0,0.205 0.373,0.491 0.829,0.636 0.498,0.158 0.743,0.488 0.612,0.827 -0.194,0.506 0.219,0.744 1.059,0.611 0.165,-0.026 0.279,0.088 0.253,0.253 -0.133,0.84 0.105,1.253 0.611,1.059 0.339,-0.131 0.669,0.114 0.827,0.612 0.145,0.456 0.431,0.829 0.636,0.829 0.205,0 0.373,0.264 0.373,0.587 0,0.358 0.235,0.498 0.6,0.358 0.33,-0.127 0.6,-0.04 0.6,0.194 0,0.551 1.91,2.461 2.461,2.461 0.234,0 0.321,0.27 0.194,0.6 -0.14,0.365 0,0.6 0.358,0.6 0.323,0 0.587,0.168 0.587,0.373 0,0.205 0.373,0.491 0.829,0.636 0.498,0.158 0.743,0.488 0.612,0.827 -0.194,0.506 0.219,0.744 1.059,0.611 0.165,-0.026 0.279,0.088 0.253,0.253 -0.133,0.84 0.105,1.253 0.611,1.059 0.339,-0.131 0.669,0.114 0.827,0.612 0.145,0.456 0.431,0.829 0.636,0.829 0.205,0 0.373,0.264 0.373,0.587 0,0.358 0.235,0.498 0.6,0.358 0.33,-0.127 0.6,-0.04 0.6,0.194 0,0.551 1.91,2.461 2.461,2.461 0.234,0 0.321,0.27 0.194,0.6 -0.14,0.365 0,0.6 0.358,0.6 0.323,0 0.587,0.168 0.587,0.373 0,0.205 0.373,0.491 0.829,0.636 0.498,0.158 0.743,0.488 0.612,0.827 -0.194,0.506 0.219,0.744 1.059,0.611 0.165,-0.026 0.279,0.088 0.253,0.253 -0.133,0.84 0.105,1.253 0.611,1.059 0.339,-0.131 0.669,0.114 0.827,0.612 0.145,0.456 0.431,0.829 0.636,0.829 0.205,0 0.373,0.264 0.373,0.587 0,0.358 0.235,0.498 0.6,0.358 0.33,-0.127 0.6,-0.04 0.6,0.194 0,0.551 1.91,2.461 2.461,2.461 0.234,0 0.321,0.27 0.194,0.6 -0.14,0.365 0,0.6 0.358,0.6 0.323,0 0.587,0.168 0.587,0.373 0,0.205 0.373,0.491 0.829,0.636 0.498,0.158 0.743,0.488 0.612,0.827 -0.194,0.506 0.219,0.744 1.059,0.611 0.165,-0.026 0.279,0.088 0.253,0.253 -0.133,0.84 0.105,1.253 0.611,1.059 0.339,-0.131 0.669,0.114 0.827,0.612 0.145,0.456 0.431,0.829 0.636,0.829 0.205,0 0.373,0.264 0.373,0.587 0,0.358 0.235,0.498 0.6,0.358 0.33,-0.127 0.6,-0.04 0.6,0.194 0,0.551 1.91,2.461 2.461,2.461 0.234,0 0.321,0.27 0.194,0.6 -0.14,0.365 0,0.6 0.358,0.6 0.323,0 0.587,0.168 0.587,0.373 0,0.205 0.373,0.491 0.829,0.636 0.498,0.158 0.743,0.488 0.612,0.827 -0.194,0.506 0.219,0.744 1.059,0.611 0.165,-0.026 0.279,0.088 0.253,0.253 -0.133,0.84 0.105,1.253 0.611,1.059 0.339,-0.131 0.669,0.114 0.827,0.612 0.145,0.456 0.431,0.829 0.636,0.829 0.205,0 0.373,0.264 0.373,0.587 0,0.358 0.235,0.498 0.6,0.358 0.33,-0.127 0.6,-0.04 0.6,0.194 0,0.551 1.91,2.461 2.461,2.461 0.234,0 0.321,0.27 0.194,0.6 -0.14,0.365 0,0.6 0.358,0.6 0.323,0 0.587,0.168 0.587,0.373 0,0.205 0.373,0.491 0.829,0.636 0.498,0.158 0.743,0.488 0.612,0.827 -0.194,0.506 0.219,0.744 1.059,0.611 0.165,-0.026 0.279,0.088 0.253,0.253 -0.133,0.84 0.105,1.253 0.611,1.059 0.339,-0.131 0.669,0.114 0.827,0.612 0.145,0.456 0.431,0.829 0.636,0.829 0.205,0 0.373,0.264 0.373,0.587 0,0.342 0.236,0.497 0.564,0.372 0.339,-0.131 0.669,0.114 0.827,0.612 0.151,0.475 0.605,0.829 1.065,0.829 0.44,0 1.071,0.27 1.401,0.6 0.33,0.33 1.037,0.6 1.572,0.6 0.563,0 0.929,0.21 0.871,0.5 -0.06,0.299 0.422,0.55 1.2,0.625 0.805,0.078 1.3,0.344 1.3,0.7 0,0.449 0.659,0.575 3,0.575 2.669,0 3,0.083 3,0.752 0,0.693 0.385,0.754 5,0.781 4.705,0.029 5,-0.016 5,-0.751 0,-0.696 0.287,-0.782 2.6,-0.782 2.044,0 2.6,-0.128 2.6,-0.6 0,-0.531 1.917,-0.892 3.349,-0.631 0.192,0.035 0.243,-0.214 0.113,-0.553 -0.162,-0.421 0.002,-0.616 0.518,-0.616 1.173,0 2.02,-0.432 2.02,-1.03 0,-0.32 0.248,-0.45 0.6,-0.315 0.38,0.146 0.6,-0.005 0.6,-0.412 0,-0.449 0.366,-0.643 1.213,-0.643 0.708,0 1.308,-0.249 1.442,-0.6 0.127,-0.33 0.481,-0.6 0.788,-0.6 0.306,0 0.557,-0.251 0.557,-0.557 0,-0.307 0.27,-0.661 0.6,-0.788 0.33,-0.126 0.6,-0.5 0.6,-0.83 0,-0.369 0.231,-0.511 0.6,-0.37 0.416,0.16 0.6,-0.027 0.6,-0.612 0,-0.483 0.257,-0.843 0.6,-0.843 0.33,0 0.6,-0.27 0.6,-0.6 0,-0.33 0.27,-0.6 0.6,-0.6 0.33,0 0.6,-0.27 0.6,-0.6 0,-0.33 0.27,-0.6 0.6,-0.6 0.33,0 0.6,-0.27 0.6,-0.6 0,-0.343 0.36,-0.6 0.843,-0.6 0.585,0 0.772,-0.184 0.612,-0.6 -0.141,-0.369 0.001,-0.6 0.37,-0.6 0.33,0 0.704,-0.27 0.83,-0.6 0.127,-0.33 0.481,-0.6 0.788,-0.6 0.306,0 0.557,-0.251 0.557,-0.557 0,-0.307 0.27,-0.661 0.6,-0.788 0.33,-0.126 0.6,-0.5 0.6,-0.83 0,-0.369 0.231,-0.511 0.6,-0.37 0.416,0.16 0.6,-0.027 0.6,-0.612 0,-0.483 0.257,-0.843 0.6,-0.843 0.33,0 0.6,-0.27 0.6,-0.6 0,-0.33 0.27,-0.6 0.6,-0.6 0.33,0 0.6,-0.27 0.6,-0.6 0,-0.33 0.27,-0.6 0.6,-0.6 0.33,0 0.6,-0.27 0.6,-0.6 0,-0.343 0.36,-0.6 0.843,-0.6 0.585,0 0.772,-0.184 0.612,-0.6 -0.141,-0.369 0.001,-0.6 0.37,-0.6 0.33,0 0.704,-0.27 0.83,-0.6 0.127,-0.33 0.481,-0.6 0.788,-0.6 0.306,0 0.557,-0.251 0.557,-0.557 0,-0.307 0.27,-0.661 0.6,-0.788 0.33,-0.126 0.6,-0.5 0.6,-0.83 0,-0.369 0.231,-0.511 0.6,-0.37 0.416,0.16 0.6,-0.027 0.6,-0.612 0,-0.483 0.257,-0.843 0.6,-0.843 0.33,0 0.6,-0.27 0.6,-0.6 0,-0.33 0.27,-0.6 0.6,-0.6 0.33,0 0.6,-0.27 0.6,-0.6 0,-0.33 0.27,-0.6 0.6,-0.6 0.33,0 0.6,-0.27 0.6,-0.6 0,-0.343 0.36,-0.6 0.843,-0.6 0.585,0 0.772,-0.184 0.612,-0.6 -0.141,-0.369 0.001,-0.6 0.37,-0.6 0.33,0 0.704,-0.27 0.83,-0.6 0.127,-0.33 0.481,-0.6 0.788,-0.6 0.306,0 0.557,-0.251 0.557,-0.557 0,-0.307 0.27,-0.661 0.6,-0.788 0.33,-0.126 0.6,-0.5 0.6,-0.83 0,-0.369 0.231,-0.511 0.6,-0.37 0.457,0.176 0.6,-0.078 0.6,-1.069 0,-0.922 0.348,-1.632 1.2,-2.446 0.697,-0.667 1.2,-1.559 1.2,-2.131 0,-0.71 0.167,-0.92 0.6,-0.754 0.48,0.184 0.6,-0.139 0.6,-1.612 0,-1.014 0.18,-1.843 0.4,-1.843 0.256,0 0.4,-3.6 0.4,-10 0,-6.4 -0.144,-10 -0.4,-10 -0.22,0 -0.4,-0.63 -0.4,-1.4 0,-0.978 -0.181,-1.4 -0.6,-1.4 -0.399,0 -0.6,-0.399 -0.6,-1.187 0,-0.892 -0.15,-1.13 -0.6,-0.958 -0.465,0.179 -0.6,-0.094 -0.6,-1.212 0,-1.169 -0.15,-1.443 -0.787,-1.443 -0.536,0 -0.714,-0.192 -0.558,-0.6 0.146,-0.38 -0.005,-0.6 -0.412,-0.6 -0.47,0 -0.643,-0.383 -0.643,-1.424 0,-0.811 -0.166,-1.321 -0.385,-1.185 -0.504,0.311 -3.717,-2.902 -3.406,-3.406 0.131,-0.212 -0.132,-0.385 -0.585,-0.385 -0.49,0 -0.824,-0.261 -0.824,-0.643 0,-0.407 -0.22,-0.558 -0.6,-0.412 -0.33,0.126 -0.6,0.031 -0.6,-0.212 0,-0.518 -1.873,-2.333 -2.408,-2.333 -0.202,0 -0.263,-0.27 -0.137,-0.6 0.146,-0.38 -0.005,-0.6 -0.412,-0.6 -0.382,0 -0.643,-0.334 -0.643,-0.824 0,-0.453 -0.173,-0.716 -0.385,-0.585 -0.504,0.311 -3.717,-2.902 -3.406,-3.406 0.131,-0.212 -0.132,-0.385 -0.585,-0.385 -0.49,0 -0.824,-0.261 -0.824,-0.643 0,-0.407 -0.22,-0.558 -0.6,-0.412 -0.33,0.126 -0.6,0.031 -0.6,-0.212 0,-0.518 -1.873,-2.333 -2.408,-2.333 -0.202,0 -0.263,-0.27 -0.137,-0.6 0.146,-0.38 -0.005,-0.6 -0.412,-0.6 -0.382,0 -0.643,-0.334 -0.643,-0.824 0,-0.453 -0.173,-0.716 -0.385,-0.585 -0.504,0.311 -3.717,-2.902 -3.406,-3.406 0.131,-0.212 -0.132,-0.385 -0.585,-0.385 -0.49,0 -0.824,-0.261 -0.824,-0.643 0,-0.407 -0.22,-0.558 -0.6,-0.412 -0.33,0.126 -0.6,0.064 -0.6,-0.139 0,-0.203 -0.458,-0.828 -1.018,-1.388 -0.56,-0.56 -1.185,-1.018 -1.388,-1.018 -0.203,0 -0.265,-0.27 -0.139,-0.6 0.146,-0.38 -0.005,-0.6 -0.412,-0.6 -0.382,0 -0.643,-0.334 -0.643,-0.824 0,-0.453 -0.173,-0.716 -0.385,-0.585 -0.504,0.311 -3.717,-2.902 -3.406,-3.406 0.131,-0.212 -0.132,-0.385 -0.585,-0.385 -0.49,0 -0.824,-0.261 -0.824,-0.643 0,-0.407 -0.22,-0.558 -0.6,-0.412 -0.33,0.126 -0.6,0.064 -0.6,-0.139 0,-0.48 -1.926,-2.406 -2.406,-2.406 -0.203,0 -0.265,-0.27 -0.139,-0.6 0.146,-0.38 -0.005,-0.6 -0.412,-0.6 -0.382,0 -0.643,-0.334 -0.643,-0.824 0,-0.453 -0.173,-0.716 -0.385,-0.585 -0.504,0.311 -3.717,-2.902 -3.406,-3.406 0.131,-0.212 -0.132,-0.385 -0.585,-0.385 -0.49,0 -0.824,-0.261 -0.824,-0.643 0,-0.407 -0.22,-0.558 -0.6,-0.412 -0.33,0.126 -0.6,0.064 -0.6,-0.139 0,-0.203 -0.458,-0.828 -1.018,-1.388 -0.56,-0.56 -1.185,-1.018 -1.388,-1.018 -0.203,0 -0.265,-0.27 -0.139,-0.6 0.146,-0.38 -0.005,-0.6 -0.412,-0.6 -0.382,0 -0.643,-0.334 -0.643,-0.824 0,-0.453 -0.173,-0.716 -0.385,-0.585 -0.504,0.311 -3.717,-2.902 -3.406,-3.406 0.131,-0.212 -0.132,-0.385 -0.585,-0.385 -0.49,0 -0.824,-0.261 -0.824,-0.643 0,-0.407 -0.22,-0.558 -0.6,-0.412 -0.33,0.126 -0.6,0.031 -0.6,-0.212 0,-0.518 -1.873,-2.333 -2.408,-2.333 -0.202,0 -0.263,-0.27 -0.137,-0.6 0.146,-0.38 -0.005,-0.6 -0.412,-0.6 -0.382,0 -0.643,-0.334 -0.643,-0.824 0,-0.453 -0.173,-0.716 -0.385,-0.585 -0.504,0.311 -3.717,-2.902 -3.406,-3.406 0.131,-0.212 -0.132,-0.385 -0.585,-0.385 -0.49,0 -0.824,-0.261 -0.824,-0.643 0,-0.407 -0.22,-0.558 -0.6,-0.412 -0.33,0.126 -0.6,0.031 -0.6,-0.212 0,-0.518 -1.873,-2.333 -2.408,-2.333 -0.202,0 -0.263,-0.27 -0.137,-0.6 0.146,-0.38 -0.005,-0.6 -0.412,-0.6 -0.382,0 -0.643,-0.334 -0.643,-0.824 0,-0.453 -0.173,-0.716 -0.385,-0.585 -0.504,0.311 -3.717,-2.902 -3.406,-3.406 0.131,-0.212 -0.132,-0.385 -0.585,-0.385 -0.49,0 -0.824,-0.261 -0.824,-0.643 0,-0.407 -0.22,-0.558 -0.6,-0.412 -0.33,0.126 -0.6,0.064 -0.6,-0.139 0,-0.48 -1.926,-2.406 -2.406,-2.406 -0.203,0 -0.265,-0.27 -0.139,-0.6 0.146,-0.38 -0.005,-0.6 -0.412,-0.6 -0.382,0 -0.643,-0.334 -0.643,-0.824 0,-0.453 -0.173,-0.716 -0.385,-0.585 -0.504,0.311 -3.717,-2.902 -3.406,-3.406 0.131,-0.212 -0.132,-0.385 -0.585,-0.385 -0.49,0 -0.824,-0.261 -0.824,-0.643 0,-0.407 -0.22,-0.558 -0.6,-0.412 -0.33,0.126 -0.6,0.064 -0.6,-0.139 0,-0.48 -1.926,-2.406 -2.406,-2.406 -0.203,0 -0.265,-0.27 -0.139,-0.6 0.146,-0.38 -0.005,-0.6 -0.412,-0.6 -0.382,0 -0.643,-0.334 -0.643,-0.824 0,-0.453 -0.173,-0.716 -0.385,-0.585 -0.504,0.311 -3.717,-2.902 -3.406,-3.406 0.131,-0.212 -0.132,-0.385 -0.585,-0.385 -0.49,0 -0.824,-0.261 -0.824,-0.643 0,-0.407 -0.22,-0.558 -0.6,-0.412 -0.33,0.126 -0.6,0.064 -0.6,-0.139 0,-0.48 -1.926,-2.406 -2.406,-2.406 -0.203,0 -0.265,-0.27 -0.139,-0.6 0.146,-0.38 -0.005,-0.6 -0.412,-0.6 -0.382,0 -0.643,-0.334 -0.643,-0.824 0,-0.453 -0.173,-0.716 -0.385,-0.585 -0.212,0.131 -1.119,-0.495 -2.015,-1.391 -0.896,-0.896 -1.522,-1.803 -1.391,-2.015 0.131,-0.212 -0.132,-0.385 -0.585,-0.385 -0.49,0 -0.824,-0.261 -0.824,-0.643 0,-0.407 -0.22,-0.558 -0.6,-0.412 -0.33,0.126 -0.6,0.031 -0.6,-0.212 0,-0.518 -1.873,-2.333 -2.408,-2.333 -0.202,0 -0.263,-0.27 -0.137,-0.6 0.146,-0.38 -0.005,-0.6 -0.412,-0.6 -0.382,0 -0.643,-0.334 -0.643,-0.824 0,-0.453 -0.173,-0.716 -0.385,-0.585 -0.504,0.311 -3.717,-2.902 -3.406,-3.406 0.131,-0.212 -0.132,-0.385 -0.585,-0.385 -0.49,0 -0.824,-0.261 -0.824,-0.643 0,-0.407 -0.22,-0.558 -0.6,-0.412 -0.33,0.126 -0.6,0.031 -0.6,-0.212 0,-0.518 -1.873,-2.333 -2.408,-2.333 -0.202,0 -0.263,-0.27 -0.137,-0.6 0.146,-0.38 -0.005,-0.6 -0.412,-0.6 -0.382,0 -0.643,-0.334 -0.643,-0.824 0,-0.453 -0.173,-0.716 -0.385,-0.585 -0.504,0.311 -3.717,-2.902 -3.406,-3.406 0.131,-0.212 -0.132,-0.385 -0.585,-0.385 -0.49,0 -0.824,-0.261 -0.824,-0.643 0,-0.407 -0.22,-0.558 -0.6,-0.412 -0.33,0.126 -0.6,0.064 -0.6,-0.139 0,-0.48 -1.926,-2.406 -2.406,-2.406 -0.203,0 -0.265,-0.27 -0.139,-0.6 0.146,-0.38 -0.005,-0.6 -0.412,-0.6 -0.382,0 -0.643,-0.334 -0.643,-0.824 0,-0.453 -0.173,-0.716 -0.385,-0.585 -0.504,0.311 -3.717,-2.902 -3.406,-3.406 0.131,-0.212 -0.132,-0.385 -0.585,-0.385 -0.49,0 -0.824,-0.261 -0.824,-0.643 0,-0.407 -0.22,-0.558 -0.6,-0.412 -0.33,0.126 -0.6,0.064 -0.6,-0.139 0,-0.48 -1.926,-2.406 -2.406,-2.406 -0.203,0 -0.265,-0.27 -0.139,-0.6 0.146,-0.38 -0.005,-0.6 -0.412,-0.6 -0.382,0 -0.643,-0.334 -0.643,-0.824 0,-0.453 -0.173,-0.716 -0.385,-0.585 -0.504,0.311 -3.717,-2.902 -3.406,-3.406 0.131,-0.212 -0.132,-0.385 -0.585,-0.385 -0.49,0 -0.824,-0.261 -0.824,-0.643 0,-0.407 -0.22,-0.558 -0.6,-0.412 -0.33,0.126 -0.6,0.064 -0.6,-0.139 0,-0.48 -1.926,-2.406 -2.406,-2.406 -0.203,0 -0.265,-0.27 -0.139,-0.6 0.146,-0.38 -0.005,-0.6 -0.412,-0.6 -0.382,0 -0.643,-0.334 -0.643,-0.824 0,-0.453 -0.173,-0.716 -0.385,-0.585 -0.504,0.311 -3.717,-2.902 -3.406,-3.406 0.131,-0.212 -0.132,-0.385 -0.585,-0.385 -0.49,0 -0.824,-0.261 -0.824,-0.643 0,-0.407 -0.22,-0.558 -0.6,-0.412 -0.33,0.126 -0.6,0.031 -0.6,-0.212 0,-0.518 -1.873,-2.333 -2.408,-2.333 -0.202,0 -0.263,-0.27 -0.137,-0.6 0.146,-0.38 -0.005,-0.6 -0.412,-0.6 -0.382,0 -0.643,-0.334 -0.643,-0.824 0,-0.453 -0.173,-0.716 -0.385,-0.585 -0.504,0.311 -3.717,-2.902 -3.406,-3.406 0.131,-0.212 -0.132,-0.385 -0.585,-0.385 -0.49,0 -0.824,-0.261 -0.824,-0.643 0,-0.407 -0.22,-0.558 -0.6,-0.412 -0.33,0.126 -0.6,0.031 -0.6,-0.212 0,-0.518 -1.873,-2.333 -2.408,-2.333 -0.202,0 -0.263,-0.27 -0.137,-0.6 0.146,-0.38 -0.005,-0.6 -0.412,-0.6 -0.382,0 -0.643,-0.334 -0.643,-0.824 0,-0.453 -0.173,-0.716 -0.385,-0.585 -0.504,0.311 -3.717,-2.902 -3.406,-3.406 0.136,-0.219 -0.374,-0.385 -1.185,-0.385 -1.041,0 -1.424,-0.173 -1.424,-0.643 0,-0.407 -0.22,-0.558 -0.6,-0.412 -0.408,0.156 -0.6,-0.022 -0.6,-0.558 0,-0.637 -0.274,-0.787 -1.443,-0.787 -1.118,0 -1.391,-0.135 -1.212,-0.6 0.181,-0.472 -0.114,-0.6 -1.386,-0.6 -0.903,0 -1.881,-0.265 -2.216,-0.6 -0.386,-0.386 -1.375,-0.6 -2.772,-0.6 -1.983,0 -2.172,-0.078 -2.177,-0.9 -0.005,-0.657 -0.099,-0.754 -0.35,-0.357 -0.249,0.392 -0.422,0.416 -0.627,0.085 -0.55,-0.89 -10.217,-0.499 -10.217,0.413"
       stroke="none"
       fill="#74e4ec"
       fill-rule="evenodd"
       style="fill:url(#linearGradient1427);fill-opacity:1" />
    <path
       id="path1"
       d=""
       stroke="none"
       fill="#78e4ec"
       fill-rule="evenodd" />
    <path
       id="path2"
       d=""
       stroke="none"
       fill="#78e4ec"
       fill-rule="evenodd" />
    <path
       id="path3"
       d=""
       stroke="none"
       fill="#78e4ec"
       fill-rule="evenodd" />
    <path
       id="path4"
       d=""
       stroke="none"
       fill="#78e4ec"
       fill-rule="evenodd" />
  </g>
</svg>
