<svg id="svg" version="1.1" xmlns="http://www.w3.org/2000/svg" xmlns:xlink="http://www.w3.org/1999/xlink" width="400" height="640" viewBox="0, 0, 400,640"><g id="svgg"><path id="path0" d="M194.400 70.041 C 194.400 70.693,194.094 70.800,192.229 70.800 C 190.832 70.800,189.843 71.014,189.457 71.400 C 189.122 71.735,188.144 72.000,187.241 72.000 C 185.969 72.000,185.674 72.128,185.855 72.600 C 186.034 73.065,185.761 73.200,184.643 73.200 C 183.474 73.200,183.200 73.350,183.200 73.987 C 183.200 74.532,183.010 74.702,182.584 74.538 C 182.191 74.388,182.010 74.502,182.084 74.851 C 182.163 75.224,181.717 75.440,180.692 75.525 C 179.862 75.593,179.284 75.812,179.406 76.010 C 179.707 76.497,176.473 79.692,175.985 79.391 C 175.773 79.260,175.600 79.523,175.600 79.976 C 175.600 80.466,175.339 80.800,174.957 80.800 C 174.550 80.800,174.399 81.020,174.545 81.400 C 174.671 81.730,174.609 82.000,174.406 82.000 C 173.926 82.000,172.000 83.926,172.000 84.406 C 172.000 84.609,171.730 84.671,171.400 84.545 C 171.020 84.399,170.800 84.550,170.800 84.957 C 170.800 85.339,170.466 85.600,169.976 85.600 C 169.523 85.600,169.260 85.773,169.391 85.985 C 169.702 86.489,166.489 89.702,165.985 89.391 C 165.773 89.260,165.600 89.523,165.600 89.976 C 165.600 90.466,165.339 90.800,164.957 90.800 C 164.550 90.800,164.399 91.020,164.545 91.400 C 164.671 91.730,164.609 92.000,164.406 92.000 C 163.926 92.000,162.000 93.926,162.000 94.406 C 162.000 94.609,161.730 94.671,161.400 94.545 C 161.020 94.399,160.800 94.550,160.800 94.957 C 160.800 95.339,160.466 95.600,159.976 95.600 C 159.523 95.600,159.260 95.773,159.391 95.985 C 159.702 96.489,156.489 99.702,155.985 99.391 C 155.773 99.260,155.600 99.523,155.600 99.976 C 155.600 100.466,155.339 100.800,154.957 100.800 C 154.550 100.800,154.399 101.020,154.545 101.400 C 154.671 101.730,154.609 102.000,154.406 102.000 C 153.926 102.000,152.000 103.926,152.000 104.406 C 152.000 104.609,151.730 104.671,151.400 104.545 C 151.020 104.399,150.800 104.550,150.800 104.957 C 150.800 105.339,150.466 105.600,149.976 105.600 C 149.523 105.600,149.260 105.773,149.391 105.985 C 149.522 106.197,148.896 107.104,148.000 108.000 C 147.104 108.896,146.197 109.522,145.985 109.391 C 145.773 109.260,145.600 109.523,145.600 109.976 C 145.600 110.466,145.339 110.800,144.957 110.800 C 144.550 110.800,144.399 111.020,144.545 111.400 C 144.671 111.730,144.609 112.000,144.406 112.000 C 144.203 112.000,143.578 112.458,143.018 113.018 C 142.458 113.578,142.000 114.203,142.000 114.406 C 142.000 114.609,141.730 114.671,141.400 114.545 C 141.020 114.399,140.800 114.550,140.800 114.957 C 140.800 115.339,140.466 115.600,139.976 115.600 C 139.523 115.600,139.260 115.773,139.391 115.985 C 139.522 116.197,138.896 117.104,138.000 118.000 C 137.104 118.896,136.197 119.522,135.985 119.391 C 135.773 119.260,135.600 119.523,135.600 119.976 C 135.600 120.466,135.339 120.800,134.957 120.800 C 134.550 120.800,134.399 121.020,134.545 121.400 C 134.671 121.730,134.609 122.000,134.406 122.000 C 134.203 122.000,133.578 122.458,133.018 123.018 C 132.458 123.578,132.000 124.203,132.000 124.406 C 132.000 124.609,131.730 124.671,131.400 124.545 C 131.020 124.399,130.800 124.550,130.800 124.957 C 130.800 125.339,130.466 125.600,129.976 125.600 C 129.523 125.600,129.260 125.773,129.391 125.985 C 129.702 126.489,126.489 129.702,125.985 129.391 C 125.773 129.260,125.600 129.523,125.600 129.976 C 125.600 130.466,125.339 130.800,124.957 130.800 C 124.550 130.800,124.399 131.020,124.545 131.400 C 124.671 131.730,124.609 132.000,124.406 132.000 C 123.926 132.000,122.000 133.926,122.000 134.406 C 122.000 134.609,121.730 134.671,121.400 134.545 C 121.020 134.399,120.800 134.550,120.800 134.957 C 120.800 135.339,120.466 135.600,119.976 135.600 C 119.523 135.600,119.260 135.773,119.391 135.985 C 119.702 136.489,116.489 139.702,115.985 139.391 C 115.773 139.260,115.600 139.523,115.600 139.976 C 115.600 140.466,115.339 140.800,114.957 140.800 C 114.550 140.800,114.399 141.020,114.545 141.400 C 114.671 141.730,114.609 142.000,114.406 142.000 C 113.926 142.000,112.000 143.926,112.000 144.406 C 112.000 144.609,111.730 144.671,111.400 144.545 C 111.020 144.399,110.800 144.550,110.800 144.957 C 110.800 145.339,110.466 145.600,109.976 145.600 C 109.523 145.600,109.260 145.773,109.391 145.985 C 109.702 146.489,106.489 149.702,105.985 149.391 C 105.773 149.260,105.600 149.523,105.600 149.976 C 105.600 150.466,105.339 150.800,104.957 150.800 C 104.550 150.800,104.399 151.020,104.545 151.400 C 104.671 151.730,104.609 152.000,104.406 152.000 C 103.926 152.000,102.000 153.926,102.000 154.406 C 102.000 154.609,101.730 154.671,101.400 154.545 C 101.020 154.399,100.800 154.550,100.800 154.957 C 100.800 155.339,100.466 155.600,99.976 155.600 C 99.523 155.600,99.260 155.773,99.391 155.985 C 99.702 156.489,96.489 159.702,95.985 159.391 C 95.773 159.260,95.600 159.523,95.600 159.976 C 95.600 160.466,95.339 160.800,94.957 160.800 C 94.550 160.800,94.399 161.020,94.545 161.400 C 94.671 161.730,94.609 162.000,94.406 162.000 C 93.926 162.000,92.000 163.926,92.000 164.406 C 92.000 164.609,91.730 164.671,91.400 164.545 C 91.020 164.399,90.800 164.550,90.800 164.957 C 90.800 165.339,90.466 165.600,89.976 165.600 C 89.523 165.600,89.260 165.773,89.391 165.985 C 89.702 166.489,86.489 169.702,85.985 169.391 C 85.773 169.260,85.600 169.523,85.600 169.976 C 85.600 170.466,85.339 170.800,84.957 170.800 C 84.550 170.800,84.399 171.020,84.545 171.400 C 84.671 171.730,84.609 172.000,84.406 172.000 C 83.926 172.000,82.000 173.926,82.000 174.406 C 82.000 174.609,81.730 174.671,81.400 174.545 C 81.020 174.399,80.800 174.550,80.800 174.957 C 80.800 175.339,80.466 175.600,79.976 175.600 C 79.523 175.600,79.260 175.773,79.391 175.985 C 79.702 176.489,76.489 179.702,75.985 179.391 C 75.773 179.260,75.600 179.523,75.600 179.976 C 75.600 180.466,75.339 180.800,74.957 180.800 C 74.550 180.800,74.399 181.020,74.545 181.400 C 74.671 181.730,74.609 182.000,74.406 182.000 C 73.926 182.000,72.000 183.926,72.000 184.406 C 72.000 184.609,71.730 184.671,71.400 184.545 C 71.020 184.399,70.800 184.550,70.800 184.957 C 70.800 185.339,70.466 185.600,69.976 185.600 C 69.523 185.600,69.260 185.773,69.391 185.985 C 69.702 186.489,66.489 189.702,65.985 189.391 C 65.773 189.260,65.600 189.523,65.600 189.976 C 65.600 190.466,65.339 190.800,64.957 190.800 C 64.550 190.800,64.399 191.020,64.545 191.400 C 64.671 191.730,64.609 192.000,64.406 192.000 C 63.926 192.000,62.000 193.926,62.000 194.406 C 62.000 194.609,61.730 194.671,61.400 194.545 C 61.020 194.399,60.800 194.550,60.800 194.957 C 60.800 195.339,60.466 195.600,59.976 195.600 C 59.523 195.600,59.260 195.773,59.391 195.985 C 59.702 196.489,56.489 199.702,55.985 199.391 C 55.773 199.260,55.600 199.523,55.600 199.976 C 55.600 200.466,55.339 200.800,54.957 200.800 C 54.550 200.800,54.399 201.020,54.545 201.400 C 54.671 201.730,54.609 202.000,54.406 202.000 C 53.926 202.000,52.000 203.926,52.000 204.406 C 52.000 204.609,51.730 204.671,51.400 204.545 C 51.020 204.399,50.800 204.550,50.800 204.957 C 50.800 205.339,50.466 205.600,49.976 205.600 C 49.523 205.600,49.260 205.773,49.391 205.985 C 49.702 206.489,46.489 209.702,45.985 209.391 C 45.773 209.260,45.600 209.523,45.600 209.976 C 45.600 210.466,45.339 210.800,44.957 210.800 C 44.550 210.800,44.399 211.020,44.545 211.400 C 44.671 211.730,44.609 212.000,44.406 212.000 C 43.926 212.000,42.000 213.926,42.000 214.406 C 42.000 214.609,41.730 214.671,41.400 214.545 C 41.020 214.399,40.800 214.550,40.800 214.957 C 40.800 215.339,40.466 215.600,39.976 215.600 C 39.523 215.600,39.260 215.773,39.391 215.985 C 39.702 216.489,36.489 219.702,35.985 219.391 C 35.773 219.260,35.600 219.523,35.600 219.976 C 35.600 220.466,35.339 220.800,34.957 220.800 C 34.550 220.800,34.399 221.020,34.545 221.400 C 34.671 221.730,34.609 222.000,34.406 222.000 C 33.926 222.000,32.000 223.926,32.000 224.406 C 32.000 224.609,31.730 224.671,31.400 224.545 C 31.020 224.399,30.800 224.550,30.800 224.957 C 30.800 225.339,30.466 225.600,29.976 225.600 C 29.523 225.600,29.260 225.773,29.391 225.985 C 29.702 226.489,26.489 229.702,25.985 229.391 C 25.773 229.260,25.600 229.523,25.600 229.976 C 25.600 230.466,25.339 230.800,24.957 230.800 C 24.550 230.800,24.399 231.020,24.545 231.400 C 24.671 231.730,24.609 232.000,24.406 232.000 C 23.926 232.000,22.000 233.926,22.000 234.406 C 22.000 234.609,21.730 234.671,21.400 234.545 C 21.020 234.399,20.800 234.550,20.800 234.957 C 20.800 235.339,20.466 235.600,19.976 235.600 C 19.523 235.600,19.260 235.773,19.391 235.985 C 19.702 236.489,16.489 239.702,15.985 239.391 C 15.773 239.260,15.600 239.523,15.600 239.976 C 15.600 240.466,15.339 240.800,14.957 240.800 C 14.550 240.800,14.399 241.020,14.545 241.400 C 14.671 241.730,14.609 242.000,14.406 242.000 C 13.926 242.000,12.000 243.926,12.000 244.406 C 12.000 244.609,11.730 244.671,11.400 244.545 C 11.020 244.399,10.800 244.550,10.800 244.957 C 10.800 245.339,10.466 245.600,9.976 245.600 C 9.523 245.600,9.260 245.773,9.391 245.985 C 9.692 246.473,6.497 249.707,6.010 249.406 C 5.812 249.284,5.593 249.862,5.525 250.692 C 5.440 251.717,5.224 252.163,4.851 252.084 C 4.502 252.010,4.388 252.191,4.538 252.584 C 4.702 253.010,4.532 253.200,3.987 253.200 C 3.350 253.200,3.200 253.474,3.200 254.643 C 3.200 255.761,3.065 256.034,2.600 255.855 C 2.150 255.683,2.000 255.921,2.000 256.813 C 2.000 257.601,1.799 258.000,1.400 258.000 C 0.981 258.000,0.800 258.422,0.800 259.400 C 0.800 260.170,0.620 260.800,0.400 260.800 C 0.144 260.800,0.000 264.400,0.000 270.800 C 0.000 277.200,0.144 280.800,0.400 280.800 C 0.620 280.800,0.800 281.629,0.800 282.643 C 0.800 284.116,0.920 284.439,1.400 284.255 C 1.833 284.089,2.000 284.299,2.000 285.009 C 2.000 285.581,2.503 286.473,3.200 287.140 C 4.068 287.969,4.402 288.662,4.406 289.643 C 4.411 290.633,4.513 290.841,4.783 290.414 C 5.081 289.943,5.236 290.041,5.567 290.914 C 5.794 291.511,6.165 292.000,6.390 292.000 C 6.616 292.000,6.800 292.270,6.800 292.600 C 6.800 292.930,7.070 293.200,7.400 293.200 C 7.730 293.200,8.000 293.384,8.000 293.610 C 8.000 293.835,8.489 294.206,9.086 294.433 C 9.959 294.764,10.057 294.919,9.586 295.217 C 9.125 295.509,9.191 295.589,9.900 295.594 C 10.431 295.597,10.800 295.846,10.800 296.200 C 10.800 296.530,11.070 296.800,11.400 296.800 C 11.730 296.800,12.000 297.070,12.000 297.400 C 12.000 297.730,12.270 298.000,12.600 298.000 C 12.930 298.000,13.200 298.270,13.200 298.600 C 13.200 298.930,13.470 299.200,13.800 299.200 C 14.154 299.200,14.403 299.569,14.406 300.100 C 14.411 300.809,14.491 300.875,14.783 300.414 C 15.081 299.943,15.236 300.041,15.567 300.914 C 15.794 301.511,16.165 302.000,16.390 302.000 C 16.616 302.000,16.800 302.270,16.800 302.600 C 16.800 302.930,17.070 303.200,17.400 303.200 C 17.730 303.200,18.000 303.384,18.000 303.610 C 18.000 303.835,18.489 304.206,19.086 304.433 C 19.959 304.764,20.057 304.919,19.586 305.217 C 19.125 305.509,19.191 305.589,19.900 305.594 C 20.431 305.597,20.800 305.846,20.800 306.200 C 20.800 306.530,21.070 306.800,21.400 306.800 C 21.730 306.800,22.000 307.070,22.000 307.400 C 22.000 307.730,22.270 308.000,22.600 308.000 C 22.930 308.000,23.200 308.270,23.200 308.600 C 23.200 308.930,23.470 309.200,23.800 309.200 C 24.154 309.200,24.403 309.569,24.406 310.100 C 24.411 310.809,24.491 310.875,24.783 310.414 C 25.081 309.943,25.236 310.041,25.567 310.914 C 25.794 311.511,26.165 312.000,26.390 312.000 C 26.616 312.000,26.800 312.270,26.800 312.600 C 26.800 312.930,27.070 313.200,27.400 313.200 C 27.730 313.200,28.000 313.384,28.000 313.610 C 28.000 313.835,28.489 314.206,29.086 314.433 C 29.959 314.764,30.057 314.919,29.586 315.217 C 29.125 315.509,29.191 315.589,29.900 315.594 C 30.431 315.597,30.800 315.846,30.800 316.200 C 30.800 316.530,31.070 316.800,31.400 316.800 C 31.730 316.800,32.000 317.070,32.000 317.400 C 32.000 317.730,32.270 318.000,32.600 318.000 C 32.930 318.000,33.200 318.270,33.200 318.600 C 33.200 318.930,33.470 319.200,33.800 319.200 C 34.154 319.200,34.403 319.569,34.406 320.100 C 34.411 320.809,34.491 320.875,34.783 320.414 C 35.081 319.943,35.236 320.041,35.567 320.914 C 35.794 321.511,36.165 322.000,36.390 322.000 C 36.616 322.000,36.800 322.270,36.800 322.600 C 36.800 322.930,37.051 323.200,37.357 323.200 C 37.664 323.200,38.018 323.470,38.145 323.800 C 38.279 324.151,38.879 324.400,39.587 324.400 C 40.434 324.400,40.800 324.594,40.800 325.043 C 40.800 325.450,41.020 325.601,41.400 325.455 C 41.752 325.320,42.000 325.450,42.000 325.770 C 42.000 326.368,42.847 326.800,44.020 326.800 C 44.527 326.800,44.699 326.997,44.545 327.400 C 44.361 327.880,44.684 328.000,46.157 328.000 C 47.529 328.000,48.000 328.153,48.000 328.600 C 48.000 329.072,48.556 329.200,50.600 329.200 C 52.913 329.200,53.200 329.286,53.200 329.982 C 53.200 330.717,53.495 330.762,58.200 330.733 C 62.815 330.706,63.200 330.645,63.200 329.952 C 63.200 329.300,63.518 329.200,65.600 329.200 C 67.426 329.200,68.000 329.062,68.000 328.622 C 68.000 328.216,68.566 328.008,69.900 327.922 C 71.158 327.841,71.766 327.631,71.700 327.300 C 71.642 327.010,72.008 326.800,72.571 326.800 C 73.106 326.800,73.813 326.530,74.143 326.200 C 74.473 325.870,75.104 325.600,75.544 325.600 C 76.004 325.600,76.458 325.246,76.609 324.771 C 76.767 324.273,77.097 324.028,77.436 324.159 C 77.764 324.284,78.000 324.129,78.000 323.787 C 78.000 323.464,78.168 323.200,78.373 323.200 C 78.578 323.200,78.864 322.827,79.009 322.371 C 79.167 321.873,79.497 321.628,79.836 321.759 C 80.342 321.953,80.580 321.540,80.447 320.700 C 80.421 320.535,80.535 320.421,80.700 320.447 C 81.540 320.580,81.953 320.342,81.759 319.836 C 81.628 319.497,81.873 319.167,82.371 319.009 C 82.827 318.864,83.200 318.578,83.200 318.373 C 83.200 318.168,83.464 318.000,83.787 318.000 C 84.145 318.000,84.285 317.765,84.145 317.400 C 84.018 317.070,84.105 316.800,84.339 316.800 C 84.890 316.800,86.800 314.890,86.800 314.339 C 86.800 314.105,87.070 314.018,87.400 314.145 C 87.765 314.285,88.000 314.145,88.000 313.787 C 88.000 313.464,88.168 313.200,88.373 313.200 C 88.578 313.200,88.864 312.827,89.009 312.371 C 89.167 311.873,89.497 311.628,89.836 311.759 C 90.342 311.953,90.580 311.540,90.447 310.700 C 90.421 310.535,90.535 310.421,90.700 310.447 C 91.540 310.580,91.953 310.342,91.759 309.836 C 91.628 309.497,91.873 309.167,92.371 309.009 C 92.827 308.864,93.200 308.578,93.200 308.373 C 93.200 308.168,93.464 308.000,93.787 308.000 C 94.145 308.000,94.285 307.765,94.145 307.400 C 94.018 307.070,94.105 306.800,94.339 306.800 C 94.890 306.800,96.800 304.890,96.800 304.339 C 96.800 304.105,97.070 304.018,97.400 304.145 C 97.765 304.285,98.000 304.145,98.000 303.787 C 98.000 303.464,98.168 303.200,98.373 303.200 C 98.578 303.200,98.864 302.827,99.009 302.371 C 99.167 301.873,99.497 301.628,99.836 301.759 C 100.342 301.953,100.580 301.540,100.447 300.700 C 100.421 300.535,100.535 300.421,100.700 300.447 C 101.540 300.580,101.953 300.342,101.759 299.836 C 101.628 299.497,101.873 299.167,102.371 299.009 C 102.827 298.864,103.200 298.578,103.200 298.373 C 103.200 298.168,103.464 298.000,103.787 298.000 C 104.145 298.000,104.285 297.765,104.145 297.400 C 104.018 297.070,104.105 296.800,104.339 296.800 C 104.890 296.800,106.800 294.890,106.800 294.339 C 106.800 294.105,107.070 294.018,107.400 294.145 C 107.765 294.285,108.000 294.145,108.000 293.787 C 108.000 293.464,108.168 293.200,108.373 293.200 C 108.578 293.200,108.864 292.827,109.009 292.371 C 109.167 291.873,109.497 291.628,109.836 291.759 C 110.342 291.953,110.580 291.540,110.447 290.700 C 110.421 290.535,110.535 290.421,110.700 290.447 C 111.540 290.580,111.953 290.342,111.759 289.836 C 111.628 289.497,111.873 289.167,112.371 289.009 C 112.827 288.864,113.200 288.578,113.200 288.373 C 113.200 288.168,113.464 288.000,113.787 288.000 C 114.145 288.000,114.285 287.765,114.145 287.400 C 114.018 287.070,114.105 286.800,114.339 286.800 C 114.890 286.800,116.800 284.890,116.800 284.339 C 116.800 284.105,117.070 284.018,117.400 284.145 C 117.765 284.285,118.000 284.145,118.000 283.787 C 118.000 283.464,118.168 283.200,118.373 283.200 C 118.578 283.200,118.864 282.827,119.009 282.371 C 119.167 281.873,119.497 281.628,119.836 281.759 C 120.342 281.953,120.580 281.540,120.447 280.700 C 120.421 280.535,120.535 280.421,120.700 280.447 C 121.540 280.580,121.953 280.342,121.759 279.836 C 121.628 279.497,121.873 279.167,122.371 279.009 C 122.827 278.864,123.200 278.578,123.200 278.373 C 123.200 278.168,123.464 278.000,123.787 278.000 C 124.145 278.000,124.285 277.765,124.145 277.400 C 124.018 277.070,124.105 276.800,124.339 276.800 C 124.890 276.800,126.800 274.890,126.800 274.339 C 126.800 274.105,127.070 274.018,127.400 274.145 C 127.765 274.285,128.000 274.145,128.000 273.787 C 128.000 273.464,128.168 273.200,128.373 273.200 C 128.578 273.200,128.864 272.827,129.009 272.371 C 129.167 271.873,129.497 271.628,129.836 271.759 C 130.342 271.953,130.580 271.540,130.447 270.700 C 130.421 270.535,130.535 270.421,130.700 270.447 C 131.540 270.580,131.953 270.342,131.759 269.836 C 131.628 269.497,131.873 269.167,132.371 269.009 C 132.827 268.864,133.200 268.578,133.200 268.373 C 133.200 268.168,133.464 268.000,133.787 268.000 C 134.145 268.000,134.285 267.765,134.145 267.400 C 134.018 267.070,134.105 266.800,134.339 266.800 C 134.890 266.800,136.800 264.890,136.800 264.339 C 136.800 264.105,137.070 264.018,137.400 264.145 C 137.765 264.285,138.000 264.145,138.000 263.787 C 138.000 263.464,138.168 263.200,138.373 263.200 C 138.578 263.200,138.864 262.827,139.009 262.371 C 139.167 261.873,139.497 261.628,139.836 261.759 C 140.342 261.953,140.580 261.540,140.447 260.700 C 140.421 260.535,140.535 260.421,140.700 260.447 C 141.540 260.580,141.953 260.342,141.759 259.836 C 141.628 259.497,141.873 259.167,142.371 259.009 C 142.827 258.864,143.200 258.578,143.200 258.373 C 143.200 258.168,143.464 258.000,143.787 258.000 C 144.145 258.000,144.285 257.765,144.145 257.400 C 144.018 257.070,144.105 256.800,144.339 256.800 C 144.890 256.800,146.800 254.890,146.800 254.339 C 146.800 254.105,147.070 254.018,147.400 254.145 C 147.765 254.285,148.000 254.145,148.000 253.787 C 148.000 253.464,148.168 253.200,148.373 253.200 C 148.578 253.200,148.864 252.827,149.009 252.371 C 149.167 251.873,149.497 251.628,149.836 251.759 C 150.342 251.953,150.580 251.540,150.447 250.700 C 150.421 250.535,150.535 250.421,150.700 250.447 C 151.540 250.580,151.953 250.342,151.759 249.836 C 151.628 249.497,151.873 249.167,152.371 249.009 C 152.827 248.864,153.200 248.578,153.200 248.373 C 153.200 248.168,153.464 248.000,153.787 248.000 C 154.145 248.000,154.285 247.765,154.145 247.400 C 154.018 247.070,154.105 246.800,154.339 246.800 C 154.890 246.800,156.800 244.890,156.800 244.339 C 156.800 244.105,157.070 244.018,157.400 244.145 C 157.765 244.285,158.000 244.145,158.000 243.787 C 158.000 243.464,158.168 243.200,158.373 243.200 C 158.578 243.200,158.864 242.827,159.009 242.371 C 159.167 241.873,159.497 241.628,159.836 241.759 C 160.342 241.953,160.580 241.540,160.447 240.700 C 160.421 240.535,160.535 240.421,160.700 240.447 C 161.540 240.580,161.953 240.342,161.759 239.836 C 161.628 239.497,161.873 239.167,162.371 239.009 C 162.827 238.864,163.200 238.578,163.200 238.373 C 163.200 238.168,163.464 238.000,163.787 238.000 C 164.145 238.000,164.285 237.765,164.145 237.400 C 164.018 237.070,164.105 236.800,164.339 236.800 C 164.890 236.800,166.800 234.890,166.800 234.339 C 166.800 234.105,167.070 234.018,167.400 234.145 C 167.765 234.285,168.000 234.145,168.000 233.787 C 168.000 233.464,168.168 233.200,168.373 233.200 C 168.578 233.200,168.864 232.827,169.009 232.371 C 169.167 231.873,169.497 231.628,169.836 231.759 C 170.342 231.953,170.580 231.540,170.447 230.700 C 170.421 230.535,170.535 230.421,170.700 230.447 C 171.540 230.580,171.953 230.342,171.759 229.836 C 171.628 229.497,171.873 229.167,172.371 229.009 C 172.827 228.864,173.200 228.578,173.200 228.373 C 173.200 228.168,173.464 228.000,173.787 228.000 C 174.145 228.000,174.285 227.765,174.145 227.400 C 174.018 227.070,174.105 226.800,174.339 226.800 C 174.890 226.800,176.800 224.890,176.800 224.339 C 176.800 224.105,177.070 224.018,177.400 224.145 C 177.765 224.285,178.000 224.145,178.000 223.787 C 178.000 223.464,178.168 223.200,178.373 223.200 C 178.578 223.200,178.864 222.827,179.009 222.371 C 179.167 221.873,179.497 221.628,179.836 221.759 C 180.342 221.953,180.580 221.540,180.447 220.700 C 180.421 220.535,180.535 220.421,180.700 220.447 C 181.540 220.580,181.953 220.342,181.759 219.836 C 181.628 219.497,181.873 219.167,182.371 219.009 C 182.827 218.864,183.200 218.578,183.200 218.373 C 183.200 218.168,183.464 218.000,183.787 218.000 C 184.145 218.000,184.285 217.765,184.145 217.400 C 184.018 217.070,184.105 216.800,184.339 216.800 C 184.890 216.800,186.800 214.890,186.800 214.339 C 186.800 214.105,187.070 214.018,187.400 214.145 C 187.765 214.285,188.000 214.145,188.000 213.787 C 188.000 213.464,188.168 213.200,188.373 213.200 C 188.578 213.200,188.864 212.827,189.009 212.371 C 189.167 211.873,189.497 211.628,189.836 211.759 C 190.342 211.953,190.580 211.540,190.447 210.700 C 190.421 210.535,190.535 210.421,190.700 210.447 C 191.540 210.580,191.953 210.342,191.759 209.836 C 191.628 209.497,191.873 209.167,192.371 209.009 C 192.827 208.864,193.200 208.578,193.200 208.373 C 193.200 208.168,193.464 208.000,193.787 208.000 C 194.145 208.000,194.285 207.765,194.145 207.400 C 194.018 207.070,194.105 206.800,194.339 206.800 C 194.890 206.800,196.800 204.890,196.800 204.339 C 196.800 204.105,197.070 204.018,197.400 204.145 C 197.765 204.285,198.000 204.145,198.000 203.787 C 198.000 203.464,198.168 203.200,198.373 203.200 C 198.578 203.200,198.860 202.840,199.000 202.400 C 199.328 201.365,200.672 201.365,201.000 202.400 C 201.140 202.840,201.422 203.200,201.627 203.200 C 201.832 203.200,202.000 203.464,202.000 203.787 C 202.000 204.145,202.235 204.285,202.600 204.145 C 202.930 204.018,203.200 204.105,203.200 204.339 C 203.200 204.890,205.110 206.800,205.661 206.800 C 205.895 206.800,205.982 207.070,205.855 207.400 C 205.715 207.765,205.855 208.000,206.213 208.000 C 206.536 208.000,206.800 208.168,206.800 208.373 C 206.800 208.578,207.173 208.864,207.629 209.009 C 208.127 209.167,208.372 209.497,208.241 209.836 C 208.047 210.342,208.460 210.580,209.300 210.447 C 209.465 210.421,209.579 210.535,209.553 210.700 C 209.420 211.540,209.658 211.953,210.164 211.759 C 210.503 211.628,210.833 211.873,210.991 212.371 C 211.136 212.827,211.422 213.200,211.627 213.200 C 211.832 213.200,212.000 213.464,212.000 213.787 C 212.000 214.145,212.235 214.285,212.600 214.145 C 212.930 214.018,213.200 214.105,213.200 214.339 C 213.200 214.890,215.110 216.800,215.661 216.800 C 215.895 216.800,215.982 217.070,215.855 217.400 C 215.715 217.765,215.855 218.000,216.213 218.000 C 216.536 218.000,216.800 218.168,216.800 218.373 C 216.800 218.578,217.173 218.864,217.629 219.009 C 218.127 219.167,218.372 219.497,218.241 219.836 C 218.047 220.342,218.460 220.580,219.300 220.447 C 219.465 220.421,219.579 220.535,219.553 220.700 C 219.420 221.540,219.658 221.953,220.164 221.759 C 220.503 221.628,220.833 221.873,220.991 222.371 C 221.136 222.827,221.422 223.200,221.627 223.200 C 221.832 223.200,222.000 223.464,222.000 223.787 C 222.000 224.145,222.235 224.285,222.600 224.145 C 222.930 224.018,223.200 224.105,223.200 224.339 C 223.200 224.890,225.110 226.800,225.661 226.800 C 225.895 226.800,225.982 227.070,225.855 227.400 C 225.715 227.765,225.855 228.000,226.213 228.000 C 226.536 228.000,226.800 228.168,226.800 228.373 C 226.800 228.578,227.173 228.864,227.629 229.009 C 228.127 229.167,228.372 229.497,228.241 229.836 C 228.047 230.342,228.460 230.580,229.300 230.447 C 229.465 230.421,229.579 230.535,229.553 230.700 C 229.420 231.540,229.658 231.953,230.164 231.759 C 230.503 231.628,230.833 231.873,230.991 232.371 C 231.136 232.827,231.422 233.200,231.627 233.200 C 231.832 233.200,232.000 233.464,232.000 233.787 C 232.000 234.145,232.235 234.285,232.600 234.145 C 232.930 234.018,233.200 234.105,233.200 234.339 C 233.200 234.890,235.110 236.800,235.661 236.800 C 235.895 236.800,235.982 237.070,235.855 237.400 C 235.715 237.765,235.855 238.000,236.213 238.000 C 236.536 238.000,236.800 238.168,236.800 238.373 C 236.800 238.578,237.173 238.864,237.629 239.009 C 238.127 239.167,238.372 239.497,238.241 239.836 C 238.047 240.342,238.460 240.580,239.300 240.447 C 239.465 240.421,239.579 240.535,239.553 240.700 C 239.420 241.540,239.658 241.953,240.164 241.759 C 240.503 241.628,240.833 241.873,240.991 242.371 C 241.136 242.827,241.422 243.200,241.627 243.200 C 241.832 243.200,242.000 243.464,242.000 243.787 C 242.000 244.145,242.235 244.285,242.600 244.145 C 242.930 244.018,243.200 244.105,243.200 244.339 C 243.200 244.890,245.110 246.800,245.661 246.800 C 245.895 246.800,245.982 247.070,245.855 247.400 C 245.715 247.765,245.855 248.000,246.213 248.000 C 246.536 248.000,246.800 248.168,246.800 248.373 C 246.800 248.578,247.173 248.864,247.629 249.009 C 248.127 249.167,248.372 249.497,248.241 249.836 C 248.047 250.342,248.460 250.580,249.300 250.447 C 249.465 250.421,249.579 250.535,249.553 250.700 C 249.420 251.540,249.658 251.953,250.164 251.759 C 250.503 251.628,250.833 251.873,250.991 252.371 C 251.136 252.827,251.422 253.200,251.627 253.200 C 251.832 253.200,252.000 253.464,252.000 253.787 C 252.000 254.145,252.235 254.285,252.600 254.145 C 252.930 254.018,253.200 254.105,253.200 254.339 C 253.200 254.890,255.110 256.800,255.661 256.800 C 255.895 256.800,255.982 257.070,255.855 257.400 C 255.715 257.765,255.855 258.000,256.213 258.000 C 256.536 258.000,256.800 258.168,256.800 258.373 C 256.800 258.578,257.173 258.864,257.629 259.009 C 258.127 259.167,258.372 259.497,258.241 259.836 C 258.047 260.342,258.460 260.580,259.300 260.447 C 259.465 260.421,259.579 260.535,259.553 260.700 C 259.420 261.540,259.658 261.953,260.164 261.759 C 260.503 261.628,260.833 261.873,260.991 262.371 C 261.136 262.827,261.422 263.200,261.627 263.200 C 261.832 263.200,262.000 263.464,262.000 263.787 C 262.000 264.145,262.235 264.285,262.600 264.145 C 262.930 264.018,263.200 264.105,263.200 264.339 C 263.200 264.890,265.110 266.800,265.661 266.800 C 265.895 266.800,265.982 267.070,265.855 267.400 C 265.715 267.765,265.855 268.000,266.213 268.000 C 266.536 268.000,266.800 268.168,266.800 268.373 C 266.800 268.578,267.173 268.864,267.629 269.009 C 268.127 269.167,268.372 269.497,268.241 269.836 C 268.047 270.342,268.460 270.580,269.300 270.447 C 269.465 270.421,269.579 270.535,269.553 270.700 C 269.420 271.540,269.658 271.953,270.164 271.759 C 270.503 271.628,270.833 271.873,270.991 272.371 C 271.136 272.827,271.422 273.200,271.627 273.200 C 271.832 273.200,272.000 273.464,272.000 273.787 C 272.000 274.145,272.235 274.285,272.600 274.145 C 272.930 274.018,273.200 274.105,273.200 274.339 C 273.200 274.890,275.110 276.800,275.661 276.800 C 275.895 276.800,275.982 277.070,275.855 277.400 C 275.715 277.765,275.855 278.000,276.213 278.000 C 276.536 278.000,276.800 278.168,276.800 278.373 C 276.800 278.578,277.173 278.864,277.629 279.009 C 278.127 279.167,278.372 279.497,278.241 279.836 C 278.047 280.342,278.460 280.580,279.300 280.447 C 279.465 280.421,279.579 280.535,279.553 280.700 C 279.420 281.540,279.658 281.953,280.164 281.759 C 280.503 281.628,280.833 281.873,280.991 282.371 C 281.136 282.827,281.422 283.200,281.627 283.200 C 281.832 283.200,282.000 283.464,282.000 283.787 C 282.000 284.145,282.235 284.285,282.600 284.145 C 282.930 284.018,283.200 284.105,283.200 284.339 C 283.200 284.890,285.110 286.800,285.661 286.800 C 285.895 286.800,285.982 287.070,285.855 287.400 C 285.715 287.765,285.855 288.000,286.213 288.000 C 286.536 288.000,286.800 288.168,286.800 288.373 C 286.800 288.578,287.173 288.864,287.629 289.009 C 288.127 289.167,288.372 289.497,288.241 289.836 C 288.047 290.342,288.460 290.580,289.300 290.447 C 289.465 290.421,289.579 290.535,289.553 290.700 C 289.420 291.540,289.658 291.953,290.164 291.759 C 290.503 291.628,290.833 291.873,290.991 292.371 C 291.136 292.827,291.422 293.200,291.627 293.200 C 291.832 293.200,292.000 293.464,292.000 293.787 C 292.000 294.145,292.235 294.285,292.600 294.145 C 292.930 294.018,293.200 294.105,293.200 294.339 C 293.200 294.890,295.110 296.800,295.661 296.800 C 295.895 296.800,295.982 297.070,295.855 297.400 C 295.715 297.765,295.855 298.000,296.213 298.000 C 296.536 298.000,296.800 298.168,296.800 298.373 C 296.800 298.578,297.173 298.864,297.629 299.009 C 298.127 299.167,298.372 299.497,298.241 299.836 C 298.047 300.342,298.460 300.580,299.300 300.447 C 299.465 300.421,299.579 300.535,299.553 300.700 C 299.420 301.540,299.658 301.953,300.164 301.759 C 300.503 301.628,300.833 301.873,300.991 302.371 C 301.136 302.827,301.422 303.200,301.627 303.200 C 301.832 303.200,302.000 303.464,302.000 303.787 C 302.000 304.145,302.235 304.285,302.600 304.145 C 302.930 304.018,303.200 304.105,303.200 304.339 C 303.200 304.890,305.110 306.800,305.661 306.800 C 305.895 306.800,305.982 307.070,305.855 307.400 C 305.715 307.765,305.855 308.000,306.213 308.000 C 306.536 308.000,306.800 308.168,306.800 308.373 C 306.800 308.578,307.173 308.864,307.629 309.009 C 308.127 309.167,308.372 309.497,308.241 309.836 C 308.047 310.342,308.460 310.580,309.300 310.447 C 309.465 310.421,309.579 310.535,309.553 310.700 C 309.420 311.540,309.658 311.953,310.164 311.759 C 310.503 311.628,310.833 311.873,310.991 312.371 C 311.136 312.827,311.422 313.200,311.627 313.200 C 311.832 313.200,312.000 313.464,312.000 313.787 C 312.000 314.145,312.235 314.285,312.600 314.145 C 312.930 314.018,313.200 314.105,313.200 314.339 C 313.200 314.890,315.110 316.800,315.661 316.800 C 315.895 316.800,315.982 317.070,315.855 317.400 C 315.715 317.765,315.855 318.000,316.213 318.000 C 316.536 318.000,316.800 318.168,316.800 318.373 C 316.800 318.578,317.173 318.864,317.629 319.009 C 318.127 319.167,318.372 319.497,318.241 319.836 C 318.047 320.342,318.460 320.580,319.300 320.447 C 319.465 320.421,319.579 320.535,319.553 320.700 C 319.420 321.540,319.658 321.953,320.164 321.759 C 320.503 321.628,320.833 321.873,320.991 322.371 C 321.136 322.827,321.422 323.200,321.627 323.200 C 321.832 323.200,322.000 323.464,322.000 323.787 C 322.000 324.129,322.236 324.284,322.564 324.159 C 322.903 324.028,323.233 324.273,323.391 324.771 C 323.542 325.246,323.996 325.600,324.456 325.600 C 324.896 325.600,325.527 325.870,325.857 326.200 C 326.187 326.530,326.894 326.800,327.429 326.800 C 327.992 326.800,328.358 327.010,328.300 327.300 C 328.240 327.599,328.722 327.850,329.500 327.925 C 330.305 328.003,330.800 328.269,330.800 328.625 C 330.800 329.074,331.459 329.200,333.800 329.200 C 336.469 329.200,336.800 329.283,336.800 329.952 C 336.800 330.645,337.185 330.706,341.800 330.733 C 346.505 330.762,346.800 330.717,346.800 329.982 C 346.800 329.286,347.087 329.200,349.400 329.200 C 351.444 329.200,352.000 329.072,352.000 328.600 C 352.000 328.069,353.917 327.708,355.349 327.969 C 355.541 328.004,355.592 327.755,355.462 327.416 C 355.300 326.995,355.464 326.800,355.980 326.800 C 357.153 326.800,358.000 326.368,358.000 325.770 C 358.000 325.450,358.248 325.320,358.600 325.455 C 358.980 325.601,359.200 325.450,359.200 325.043 C 359.200 324.594,359.566 324.400,360.413 324.400 C 361.121 324.400,361.721 324.151,361.855 323.800 C 361.982 323.470,362.336 323.200,362.643 323.200 C 362.949 323.200,363.200 322.949,363.200 322.643 C 363.200 322.336,363.470 321.982,363.800 321.855 C 364.130 321.729,364.400 321.355,364.400 321.025 C 364.400 320.656,364.631 320.514,365.000 320.655 C 365.416 320.815,365.600 320.628,365.600 320.043 C 365.600 319.560,365.857 319.200,366.200 319.200 C 366.530 319.200,366.800 318.930,366.800 318.600 C 366.800 318.270,367.070 318.000,367.400 318.000 C 367.730 318.000,368.000 317.730,368.000 317.400 C 368.000 317.070,368.270 316.800,368.600 316.800 C 368.930 316.800,369.200 316.530,369.200 316.200 C 369.200 315.857,369.560 315.600,370.043 315.600 C 370.628 315.600,370.815 315.416,370.655 315.000 C 370.514 314.631,370.656 314.400,371.025 314.400 C 371.355 314.400,371.729 314.130,371.855 313.800 C 371.982 313.470,372.336 313.200,372.643 313.200 C 372.949 313.200,373.200 312.949,373.200 312.643 C 373.200 312.336,373.470 311.982,373.800 311.855 C 374.130 311.729,374.400 311.355,374.400 311.025 C 374.400 310.656,374.631 310.514,375.000 310.655 C 375.416 310.815,375.600 310.628,375.600 310.043 C 375.600 309.560,375.857 309.200,376.200 309.200 C 376.530 309.200,376.800 308.930,376.800 308.600 C 376.800 308.270,377.070 308.000,377.400 308.000 C 377.730 308.000,378.000 307.730,378.000 307.400 C 378.000 307.070,378.270 306.800,378.600 306.800 C 378.930 306.800,379.200 306.530,379.200 306.200 C 379.200 305.857,379.560 305.600,380.043 305.600 C 380.628 305.600,380.815 305.416,380.655 305.000 C 380.514 304.631,380.656 304.400,381.025 304.400 C 381.355 304.400,381.729 304.130,381.855 303.800 C 381.982 303.470,382.336 303.200,382.643 303.200 C 382.949 303.200,383.200 302.949,383.200 302.643 C 383.200 302.336,383.470 301.982,383.800 301.855 C 384.130 301.729,384.400 301.355,384.400 301.025 C 384.400 300.656,384.631 300.514,385.000 300.655 C 385.416 300.815,385.600 300.628,385.600 300.043 C 385.600 299.560,385.857 299.200,386.200 299.200 C 386.530 299.200,386.800 298.930,386.800 298.600 C 386.800 298.270,387.070 298.000,387.400 298.000 C 387.730 298.000,388.000 297.730,388.000 297.400 C 388.000 297.070,388.270 296.800,388.600 296.800 C 388.930 296.800,389.200 296.530,389.200 296.200 C 389.200 295.857,389.560 295.600,390.043 295.600 C 390.628 295.600,390.815 295.416,390.655 295.000 C 390.514 294.631,390.656 294.400,391.025 294.400 C 391.355 294.400,391.729 294.130,391.855 293.800 C 391.982 293.470,392.336 293.200,392.643 293.200 C 392.949 293.200,393.200 292.949,393.200 292.643 C 393.200 292.336,393.470 291.982,393.800 291.855 C 394.151 291.721,394.400 291.121,394.400 290.413 C 394.400 289.566,394.594 289.200,395.043 289.200 C 395.450 289.200,395.601 288.980,395.455 288.600 C 395.320 288.248,395.450 288.000,395.770 288.000 C 396.368 288.000,396.800 287.153,396.800 285.980 C 396.800 285.531,397.007 285.305,397.312 285.422 C 397.636 285.546,397.855 285.238,397.910 284.583 C 397.957 284.013,398.266 283.276,398.598 282.945 C 398.930 282.613,399.200 281.638,399.200 280.771 C 399.200 279.907,399.380 279.200,399.600 279.200 C 399.854 279.200,400.000 276.067,400.000 270.600 C 400.000 265.133,399.854 262.000,399.600 262.000 C 399.380 262.000,399.200 261.100,399.200 260.000 C 399.200 258.489,399.053 258.000,398.600 258.000 C 398.201 258.000,398.000 257.601,398.000 256.813 C 398.000 255.921,397.850 255.683,397.400 255.855 C 396.935 256.034,396.800 255.761,396.800 254.643 C 396.800 253.474,396.650 253.200,396.013 253.200 C 395.477 253.200,395.299 253.008,395.455 252.600 C 395.614 252.185,395.429 252.000,394.855 252.000 C 394.282 252.000,394.096 251.815,394.255 251.400 C 394.417 250.980,394.225 250.800,393.615 250.800 C 392.938 250.800,392.775 250.600,392.882 249.900 C 392.975 249.291,392.588 248.581,391.684 247.703 C 390.950 246.990,390.461 246.225,390.598 246.003 C 390.735 245.781,390.477 245.600,390.024 245.600 C 389.534 245.600,389.200 245.339,389.200 244.957 C 389.200 244.550,388.980 244.399,388.600 244.545 C 388.270 244.671,388.000 244.576,388.000 244.333 C 388.000 243.815,386.127 242.000,385.592 242.000 C 385.390 242.000,385.329 241.730,385.455 241.400 C 385.601 241.020,385.450 240.800,385.043 240.800 C 384.661 240.800,384.400 240.466,384.400 239.976 C 384.400 239.523,384.227 239.260,384.015 239.391 C 383.511 239.702,380.298 236.489,380.609 235.985 C 380.740 235.773,380.477 235.600,380.024 235.600 C 379.534 235.600,379.200 235.339,379.200 234.957 C 379.200 234.550,378.980 234.399,378.600 234.545 C 378.270 234.671,378.000 234.576,378.000 234.333 C 378.000 233.815,376.127 232.000,375.592 232.000 C 375.390 232.000,375.329 231.730,375.455 231.400 C 375.601 231.020,375.450 230.800,375.043 230.800 C 374.661 230.800,374.400 230.466,374.400 229.976 C 374.400 229.523,374.227 229.260,374.015 229.391 C 373.511 229.702,370.298 226.489,370.609 225.985 C 370.740 225.773,370.477 225.600,370.024 225.600 C 369.534 225.600,369.200 225.339,369.200 224.957 C 369.200 224.550,368.980 224.399,368.600 224.545 C 368.270 224.671,368.000 224.609,368.000 224.406 C 368.000 224.203,367.542 223.578,366.982 223.018 C 366.422 222.458,365.797 222.000,365.594 222.000 C 365.391 222.000,365.329 221.730,365.455 221.400 C 365.601 221.020,365.450 220.800,365.043 220.800 C 364.661 220.800,364.400 220.466,364.400 219.976 C 364.400 219.523,364.227 219.260,364.015 219.391 C 363.511 219.702,360.298 216.489,360.609 215.985 C 360.740 215.773,360.477 215.600,360.024 215.600 C 359.534 215.600,359.200 215.339,359.200 214.957 C 359.200 214.550,358.980 214.399,358.600 214.545 C 358.270 214.671,358.000 214.609,358.000 214.406 C 358.000 213.926,356.074 212.000,355.594 212.000 C 355.391 212.000,355.329 211.730,355.455 211.400 C 355.601 211.020,355.450 210.800,355.043 210.800 C 354.661 210.800,354.400 210.466,354.400 209.976 C 354.400 209.523,354.227 209.260,354.015 209.391 C 353.511 209.702,350.298 206.489,350.609 205.985 C 350.740 205.773,350.477 205.600,350.024 205.600 C 349.534 205.600,349.200 205.339,349.200 204.957 C 349.200 204.550,348.980 204.399,348.600 204.545 C 348.270 204.671,348.000 204.609,348.000 204.406 C 348.000 203.926,346.074 202.000,345.594 202.000 C 345.391 202.000,345.329 201.730,345.455 201.400 C 345.601 201.020,345.450 200.800,345.043 200.800 C 344.661 200.800,344.400 200.466,344.400 199.976 C 344.400 199.523,344.227 199.260,344.015 199.391 C 343.511 199.702,340.298 196.489,340.609 195.985 C 340.740 195.773,340.477 195.600,340.024 195.600 C 339.534 195.600,339.200 195.339,339.200 194.957 C 339.200 194.550,338.980 194.399,338.600 194.545 C 338.270 194.671,338.000 194.576,338.000 194.333 C 338.000 193.815,336.127 192.000,335.592 192.000 C 335.390 192.000,335.329 191.730,335.455 191.400 C 335.601 191.020,335.450 190.800,335.043 190.800 C 334.661 190.800,334.400 190.466,334.400 189.976 C 334.400 189.523,334.227 189.260,334.015 189.391 C 333.511 189.702,330.298 186.489,330.609 185.985 C 330.740 185.773,330.477 185.600,330.024 185.600 C 329.534 185.600,329.200 185.339,329.200 184.957 C 329.200 184.550,328.980 184.399,328.600 184.545 C 328.270 184.671,328.000 184.576,328.000 184.333 C 328.000 183.815,326.127 182.000,325.592 182.000 C 325.390 182.000,325.329 181.730,325.455 181.400 C 325.601 181.020,325.450 180.800,325.043 180.800 C 324.661 180.800,324.400 180.466,324.400 179.976 C 324.400 179.523,324.227 179.260,324.015 179.391 C 323.511 179.702,320.298 176.489,320.609 175.985 C 320.740 175.773,320.477 175.600,320.024 175.600 C 319.534 175.600,319.200 175.339,319.200 174.957 C 319.200 174.550,318.980 174.399,318.600 174.545 C 318.270 174.671,318.000 174.609,318.000 174.406 C 318.000 173.926,316.074 172.000,315.594 172.000 C 315.391 172.000,315.329 171.730,315.455 171.400 C 315.601 171.020,315.450 170.800,315.043 170.800 C 314.661 170.800,314.400 170.466,314.400 169.976 C 314.400 169.523,314.227 169.260,314.015 169.391 C 313.511 169.702,310.298 166.489,310.609 165.985 C 310.740 165.773,310.477 165.600,310.024 165.600 C 309.534 165.600,309.200 165.339,309.200 164.957 C 309.200 164.550,308.980 164.399,308.600 164.545 C 308.270 164.671,308.000 164.609,308.000 164.406 C 308.000 163.926,306.074 162.000,305.594 162.000 C 305.391 162.000,305.329 161.730,305.455 161.400 C 305.601 161.020,305.450 160.800,305.043 160.800 C 304.661 160.800,304.400 160.466,304.400 159.976 C 304.400 159.523,304.227 159.260,304.015 159.391 C 303.511 159.702,300.298 156.489,300.609 155.985 C 300.740 155.773,300.477 155.600,300.024 155.600 C 299.534 155.600,299.200 155.339,299.200 154.957 C 299.200 154.550,298.980 154.399,298.600 154.545 C 298.270 154.671,298.000 154.609,298.000 154.406 C 298.000 153.926,296.074 152.000,295.594 152.000 C 295.391 152.000,295.329 151.730,295.455 151.400 C 295.601 151.020,295.450 150.800,295.043 150.800 C 294.661 150.800,294.400 150.466,294.400 149.976 C 294.400 149.523,294.227 149.260,294.015 149.391 C 293.511 149.702,290.298 146.489,290.609 145.985 C 290.740 145.773,290.477 145.600,290.024 145.600 C 289.534 145.600,289.200 145.339,289.200 144.957 C 289.200 144.550,288.980 144.399,288.600 144.545 C 288.270 144.671,288.000 144.576,288.000 144.333 C 288.000 143.815,286.127 142.000,285.592 142.000 C 285.390 142.000,285.329 141.730,285.455 141.400 C 285.601 141.020,285.450 140.800,285.043 140.800 C 284.661 140.800,284.400 140.466,284.400 139.976 C 284.400 139.523,284.227 139.260,284.015 139.391 C 283.511 139.702,280.298 136.489,280.609 135.985 C 280.740 135.773,280.477 135.600,280.024 135.600 C 279.534 135.600,279.200 135.339,279.200 134.957 C 279.200 134.550,278.980 134.399,278.600 134.545 C 278.270 134.671,278.000 134.576,278.000 134.333 C 278.000 133.815,276.127 132.000,275.592 132.000 C 275.390 132.000,275.329 131.730,275.455 131.400 C 275.601 131.020,275.450 130.800,275.043 130.800 C 274.661 130.800,274.400 130.466,274.400 129.976 C 274.400 129.523,274.227 129.260,274.015 129.391 C 273.511 129.702,270.298 126.489,270.609 125.985 C 270.740 125.773,270.477 125.600,270.024 125.600 C 269.534 125.600,269.200 125.339,269.200 124.957 C 269.200 124.550,268.980 124.399,268.600 124.545 C 268.270 124.671,268.000 124.576,268.000 124.333 C 268.000 123.815,266.127 122.000,265.592 122.000 C 265.390 122.000,265.329 121.730,265.455 121.400 C 265.601 121.020,265.450 120.800,265.043 120.800 C 264.661 120.800,264.400 120.466,264.400 119.976 C 264.400 119.523,264.227 119.260,264.015 119.391 C 263.511 119.702,260.298 116.489,260.609 115.985 C 260.740 115.773,260.477 115.600,260.024 115.600 C 259.534 115.600,259.200 115.339,259.200 114.957 C 259.200 114.550,258.980 114.399,258.600 114.545 C 258.270 114.671,258.000 114.609,258.000 114.406 C 258.000 113.926,256.074 112.000,255.594 112.000 C 255.391 112.000,255.329 111.730,255.455 111.400 C 255.601 111.020,255.450 110.800,255.043 110.800 C 254.661 110.800,254.400 110.466,254.400 109.976 C 254.400 109.523,254.227 109.260,254.015 109.391 C 253.511 109.702,250.298 106.489,250.609 105.985 C 250.740 105.773,250.477 105.600,250.024 105.600 C 249.534 105.600,249.200 105.339,249.200 104.957 C 249.200 104.550,248.980 104.399,248.600 104.545 C 248.270 104.671,248.000 104.609,248.000 104.406 C 248.000 103.926,246.074 102.000,245.594 102.000 C 245.391 102.000,245.329 101.730,245.455 101.400 C 245.601 101.020,245.450 100.800,245.043 100.800 C 244.661 100.800,244.400 100.466,244.400 99.976 C 244.400 99.523,244.227 99.260,244.015 99.391 C 243.511 99.702,240.298 96.489,240.609 95.985 C 240.740 95.773,240.477 95.600,240.024 95.600 C 239.534 95.600,239.200 95.339,239.200 94.957 C 239.200 94.550,238.980 94.399,238.600 94.545 C 238.270 94.671,238.000 94.576,238.000 94.333 C 238.000 93.815,236.127 92.000,235.592 92.000 C 235.390 92.000,235.329 91.730,235.455 91.400 C 235.601 91.020,235.450 90.800,235.043 90.800 C 234.661 90.800,234.400 90.466,234.400 89.976 C 234.400 89.523,234.227 89.260,234.015 89.391 C 233.511 89.702,230.298 86.489,230.609 85.985 C 230.740 85.773,230.477 85.600,230.024 85.600 C 229.534 85.600,229.200 85.339,229.200 84.957 C 229.200 84.550,228.980 84.399,228.600 84.545 C 228.270 84.671,228.000 84.576,228.000 84.333 C 228.000 83.815,226.127 82.000,225.592 82.000 C 225.390 82.000,225.329 81.730,225.455 81.400 C 225.601 81.020,225.450 80.800,225.043 80.800 C 224.661 80.800,224.400 80.466,224.400 79.976 C 224.400 79.502,224.222 79.263,223.979 79.413 C 223.747 79.556,223.252 79.342,222.879 78.937 C 222.505 78.532,221.840 78.200,221.400 78.200 C 220.884 78.200,220.620 77.952,220.656 77.500 C 220.690 77.061,220.430 76.800,219.956 76.800 C 219.528 76.800,219.200 76.521,219.200 76.157 C 219.200 75.750,218.980 75.599,218.600 75.745 C 218.200 75.898,218.000 75.729,218.000 75.237 C 218.000 74.722,217.706 74.500,217.021 74.500 C 216.483 74.500,215.750 74.208,215.393 73.850 C 215.035 73.492,214.556 73.200,214.329 73.200 C 214.101 73.200,214.018 72.930,214.145 72.600 C 214.326 72.128,214.031 72.000,212.759 72.000 C 211.856 72.000,210.878 71.735,210.543 71.400 C 210.157 71.014,209.168 70.800,207.771 70.800 C 205.788 70.800,205.599 70.722,205.594 69.900 C 205.589 69.243,205.495 69.146,205.244 69.543 C 204.995 69.935,204.822 69.959,204.617 69.628 C 204.067 68.738,194.400 69.129,194.400 70.041 M194.400 310.041 C 194.400 310.693,194.094 310.800,192.229 310.800 C 190.832 310.800,189.843 311.014,189.457 311.400 C 189.122 311.735,188.144 312.000,187.241 312.000 C 185.969 312.000,185.674 312.128,185.855 312.600 C 186.034 313.065,185.761 313.200,184.643 313.200 C 183.474 313.200,183.200 313.350,183.200 313.987 C 183.200 314.532,183.010 314.702,182.584 314.538 C 182.245 314.408,181.996 314.459,182.031 314.651 C 182.192 315.535,181.950 315.956,181.400 315.745 C 180.980 315.583,180.800 315.775,180.800 316.385 C 180.800 317.062,180.600 317.225,179.900 317.118 C 179.291 317.025,178.581 317.412,177.703 318.316 C 176.990 319.050,176.225 319.539,176.003 319.402 C 175.781 319.265,175.600 319.523,175.600 319.976 C 175.600 320.466,175.339 320.800,174.957 320.800 C 174.550 320.800,174.399 321.020,174.545 321.400 C 174.671 321.730,174.609 322.000,174.406 322.000 C 173.926 322.000,172.000 323.926,172.000 324.406 C 172.000 324.609,171.730 324.671,171.400 324.545 C 171.020 324.399,170.800 324.550,170.800 324.957 C 170.800 325.339,170.466 325.600,169.976 325.600 C 169.523 325.600,169.260 325.773,169.391 325.985 C 169.522 326.197,168.896 327.104,168.000 328.000 C 167.104 328.896,166.197 329.522,165.985 329.391 C 165.773 329.260,165.600 329.523,165.600 329.976 C 165.600 330.466,165.339 330.800,164.957 330.800 C 164.550 330.800,164.399 331.020,164.545 331.400 C 164.671 331.730,164.609 332.000,164.406 332.000 C 163.926 332.000,162.000 333.926,162.000 334.406 C 162.000 334.609,161.730 334.671,161.400 334.545 C 161.020 334.399,160.800 334.550,160.800 334.957 C 160.800 335.339,160.466 335.600,159.976 335.600 C 159.523 335.600,159.260 335.773,159.391 335.985 C 159.702 336.489,156.489 339.702,155.985 339.391 C 155.773 339.260,155.600 339.523,155.600 339.976 C 155.600 340.466,155.339 340.800,154.957 340.800 C 154.550 340.800,154.399 341.020,154.545 341.400 C 154.671 341.730,154.609 342.000,154.406 342.000 C 153.926 342.000,152.000 343.926,152.000 344.406 C 152.000 344.609,151.730 344.671,151.400 344.545 C 151.020 344.399,150.800 344.550,150.800 344.957 C 150.800 345.339,150.466 345.600,149.976 345.600 C 149.523 345.600,149.260 345.773,149.391 345.985 C 149.702 346.489,146.489 349.702,145.985 349.391 C 145.773 349.260,145.600 349.523,145.600 349.976 C 145.600 350.466,145.339 350.800,144.957 350.800 C 144.550 350.800,144.399 351.020,144.545 351.400 C 144.671 351.730,144.609 352.000,144.406 352.000 C 143.926 352.000,142.000 353.926,142.000 354.406 C 142.000 354.609,141.730 354.671,141.400 354.545 C 141.020 354.399,140.800 354.550,140.800 354.957 C 140.800 355.339,140.466 355.600,139.976 355.600 C 139.523 355.600,139.260 355.773,139.391 355.985 C 139.702 356.489,136.489 359.702,135.985 359.391 C 135.773 359.260,135.600 359.523,135.600 359.976 C 135.600 360.466,135.339 360.800,134.957 360.800 C 134.550 360.800,134.399 361.020,134.545 361.400 C 134.671 361.730,134.609 362.000,134.406 362.000 C 133.926 362.000,132.000 363.926,132.000 364.406 C 132.000 364.609,131.730 364.671,131.400 364.545 C 131.020 364.399,130.800 364.550,130.800 364.957 C 130.800 365.339,130.466 365.600,129.976 365.600 C 129.523 365.600,129.260 365.773,129.391 365.985 C 129.702 366.489,126.489 369.702,125.985 369.391 C 125.773 369.260,125.600 369.523,125.600 369.976 C 125.600 370.466,125.339 370.800,124.957 370.800 C 124.550 370.800,124.399 371.020,124.545 371.400 C 124.671 371.730,124.609 372.000,124.406 372.000 C 123.926 372.000,122.000 373.926,122.000 374.406 C 122.000 374.609,121.730 374.671,121.400 374.545 C 121.020 374.399,120.800 374.550,120.800 374.957 C 120.800 375.339,120.466 375.600,119.976 375.600 C 119.523 375.600,119.260 375.773,119.391 375.985 C 119.702 376.489,116.489 379.702,115.985 379.391 C 115.773 379.260,115.600 379.523,115.600 379.976 C 115.600 380.466,115.339 380.800,114.957 380.800 C 114.550 380.800,114.399 381.020,114.545 381.400 C 114.671 381.730,114.609 382.000,114.406 382.000 C 113.926 382.000,112.000 383.926,112.000 384.406 C 112.000 384.609,111.730 384.671,111.400 384.545 C 111.020 384.399,110.800 384.550,110.800 384.957 C 110.800 385.339,110.466 385.600,109.976 385.600 C 109.523 385.600,109.260 385.773,109.391 385.985 C 109.702 386.489,106.489 389.702,105.985 389.391 C 105.773 389.260,105.600 389.523,105.600 389.976 C 105.600 390.466,105.339 390.800,104.957 390.800 C 104.550 390.800,104.399 391.020,104.545 391.400 C 104.671 391.730,104.609 392.000,104.406 392.000 C 103.926 392.000,102.000 393.926,102.000 394.406 C 102.000 394.609,101.730 394.671,101.400 394.545 C 101.020 394.399,100.800 394.550,100.800 394.957 C 100.800 395.339,100.466 395.600,99.976 395.600 C 99.523 395.600,99.260 395.773,99.391 395.985 C 99.702 396.489,96.489 399.702,95.985 399.391 C 95.773 399.260,95.600 399.523,95.600 399.976 C 95.600 400.466,95.339 400.800,94.957 400.800 C 94.550 400.800,94.399 401.020,94.545 401.400 C 94.671 401.730,94.609 402.000,94.406 402.000 C 93.926 402.000,92.000 403.926,92.000 404.406 C 92.000 404.609,91.730 404.671,91.400 404.545 C 91.020 404.399,90.800 404.550,90.800 404.957 C 90.800 405.339,90.466 405.600,89.976 405.600 C 89.523 405.600,89.260 405.773,89.391 405.985 C 89.702 406.489,86.489 409.702,85.985 409.391 C 85.773 409.260,85.600 409.523,85.600 409.976 C 85.600 410.466,85.339 410.800,84.957 410.800 C 84.550 410.800,84.399 411.020,84.545 411.400 C 84.671 411.730,84.609 412.000,84.406 412.000 C 83.926 412.000,82.000 413.926,82.000 414.406 C 82.000 414.609,81.730 414.671,81.400 414.545 C 81.020 414.399,80.800 414.550,80.800 414.957 C 80.800 415.339,80.466 415.600,79.976 415.600 C 79.523 415.600,79.260 415.773,79.391 415.985 C 79.702 416.489,76.489 419.702,75.985 419.391 C 75.773 419.260,75.600 419.523,75.600 419.976 C 75.600 420.466,75.339 420.800,74.957 420.800 C 74.550 420.800,74.399 421.020,74.545 421.400 C 74.671 421.730,74.609 422.000,74.406 422.000 C 73.926 422.000,72.000 423.926,72.000 424.406 C 72.000 424.609,71.730 424.671,71.400 424.545 C 71.020 424.399,70.800 424.550,70.800 424.957 C 70.800 425.339,70.466 425.600,69.976 425.600 C 69.523 425.600,69.260 425.773,69.391 425.985 C 69.702 426.489,66.489 429.702,65.985 429.391 C 65.773 429.260,65.600 429.523,65.600 429.976 C 65.600 430.466,65.339 430.800,64.957 430.800 C 64.550 430.800,64.399 431.020,64.545 431.400 C 64.671 431.730,64.609 432.000,64.406 432.000 C 63.926 432.000,62.000 433.926,62.000 434.406 C 62.000 434.609,61.730 434.671,61.400 434.545 C 61.020 434.399,60.800 434.550,60.800 434.957 C 60.800 435.339,60.466 435.600,59.976 435.600 C 59.523 435.600,59.260 435.773,59.391 435.985 C 59.702 436.489,56.489 439.702,55.985 439.391 C 55.773 439.260,55.600 439.523,55.600 439.976 C 55.600 440.466,55.339 440.800,54.957 440.800 C 54.550 440.800,54.399 441.020,54.545 441.400 C 54.671 441.730,54.609 442.000,54.406 442.000 C 53.926 442.000,52.000 443.926,52.000 444.406 C 52.000 444.609,51.730 444.671,51.400 444.545 C 51.020 444.399,50.800 444.550,50.800 444.957 C 50.800 445.339,50.466 445.600,49.976 445.600 C 49.523 445.600,49.260 445.773,49.391 445.985 C 49.702 446.489,46.489 449.702,45.985 449.391 C 45.773 449.260,45.600 449.523,45.600 449.976 C 45.600 450.466,45.339 450.800,44.957 450.800 C 44.550 450.800,44.399 451.020,44.545 451.400 C 44.671 451.730,44.609 452.000,44.406 452.000 C 43.926 452.000,42.000 453.926,42.000 454.406 C 42.000 454.609,41.730 454.671,41.400 454.545 C 41.020 454.399,40.800 454.550,40.800 454.957 C 40.800 455.339,40.466 455.600,39.976 455.600 C 39.523 455.600,39.260 455.773,39.391 455.985 C 39.702 456.489,36.489 459.702,35.985 459.391 C 35.773 459.260,35.600 459.523,35.600 459.976 C 35.600 460.466,35.339 460.800,34.957 460.800 C 34.550 460.800,34.399 461.020,34.545 461.400 C 34.671 461.730,34.609 462.000,34.406 462.000 C 33.926 462.000,32.000 463.926,32.000 464.406 C 32.000 464.609,31.730 464.671,31.400 464.545 C 31.020 464.399,30.800 464.550,30.800 464.957 C 30.800 465.339,30.466 465.600,29.976 465.600 C 29.523 465.600,29.260 465.773,29.391 465.985 C 29.702 466.489,26.489 469.702,25.985 469.391 C 25.773 469.260,25.600 469.523,25.600 469.976 C 25.600 470.466,25.339 470.800,24.957 470.800 C 24.550 470.800,24.399 471.020,24.545 471.400 C 24.671 471.730,24.609 472.000,24.406 472.000 C 23.926 472.000,22.000 473.926,22.000 474.406 C 22.000 474.609,21.730 474.671,21.400 474.545 C 21.020 474.399,20.800 474.550,20.800 474.957 C 20.800 475.339,20.466 475.600,19.976 475.600 C 19.523 475.600,19.260 475.773,19.391 475.985 C 19.702 476.489,16.489 479.702,15.985 479.391 C 15.773 479.260,15.600 479.523,15.600 479.976 C 15.600 480.466,15.339 480.800,14.957 480.800 C 14.550 480.800,14.399 481.020,14.545 481.400 C 14.671 481.730,14.609 482.000,14.406 482.000 C 13.926 482.000,12.000 483.926,12.000 484.406 C 12.000 484.609,11.730 484.671,11.400 484.545 C 11.020 484.399,10.800 484.550,10.800 484.957 C 10.800 485.339,10.466 485.600,9.976 485.600 C 9.523 485.600,9.260 485.773,9.391 485.985 C 9.692 486.473,6.497 489.707,6.010 489.406 C 5.812 489.284,5.593 489.862,5.525 490.692 C 5.440 491.717,5.224 492.163,4.851 492.084 C 4.502 492.010,4.388 492.191,4.538 492.584 C 4.702 493.010,4.532 493.200,3.987 493.200 C 3.350 493.200,3.200 493.474,3.200 494.643 C 3.200 495.761,3.065 496.034,2.600 495.855 C 2.150 495.683,2.000 495.921,2.000 496.813 C 2.000 497.601,1.799 498.000,1.400 498.000 C 0.981 498.000,0.800 498.422,0.800 499.400 C 0.800 500.170,0.620 500.800,0.400 500.800 C 0.144 500.800,0.000 504.400,0.000 510.800 C 0.000 517.200,0.144 520.800,0.400 520.800 C 0.620 520.800,0.800 521.629,0.800 522.643 C 0.800 524.116,0.920 524.439,1.400 524.255 C 1.833 524.089,2.000 524.299,2.000 525.009 C 2.000 525.581,2.503 526.473,3.200 527.140 C 4.068 527.969,4.402 528.662,4.406 529.643 C 4.411 530.633,4.513 530.841,4.783 530.414 C 5.081 529.943,5.236 530.041,5.567 530.914 C 5.794 531.511,6.165 532.000,6.390 532.000 C 6.616 532.000,6.800 532.270,6.800 532.600 C 6.800 532.930,7.070 533.200,7.400 533.200 C 7.730 533.200,8.000 533.384,8.000 533.610 C 8.000 533.835,8.489 534.206,9.086 534.433 C 9.959 534.764,10.057 534.919,9.586 535.217 C 9.125 535.509,9.191 535.589,9.900 535.594 C 10.431 535.597,10.800 535.846,10.800 536.200 C 10.800 536.530,11.070 536.800,11.400 536.800 C 11.730 536.800,12.000 537.070,12.000 537.400 C 12.000 537.730,12.270 538.000,12.600 538.000 C 12.930 538.000,13.200 538.270,13.200 538.600 C 13.200 538.930,13.470 539.200,13.800 539.200 C 14.154 539.200,14.403 539.569,14.406 540.100 C 14.411 540.809,14.491 540.875,14.783 540.414 C 15.081 539.943,15.236 540.041,15.567 540.914 C 15.794 541.511,16.165 542.000,16.390 542.000 C 16.616 542.000,16.800 542.270,16.800 542.600 C 16.800 542.930,17.070 543.200,17.400 543.200 C 17.730 543.200,18.000 543.384,18.000 543.610 C 18.000 543.835,18.489 544.206,19.086 544.433 C 19.959 544.764,20.057 544.919,19.586 545.217 C 19.125 545.509,19.191 545.589,19.900 545.594 C 20.431 545.597,20.800 545.846,20.800 546.200 C 20.800 546.530,21.070 546.800,21.400 546.800 C 21.730 546.800,22.000 547.070,22.000 547.400 C 22.000 547.730,22.270 548.000,22.600 548.000 C 22.930 548.000,23.200 548.270,23.200 548.600 C 23.200 548.930,23.470 549.200,23.800 549.200 C 24.154 549.200,24.403 549.569,24.406 550.100 C 24.411 550.809,24.491 550.875,24.783 550.414 C 25.081 549.943,25.236 550.041,25.567 550.914 C 25.794 551.511,26.165 552.000,26.390 552.000 C 26.616 552.000,26.800 552.270,26.800 552.600 C 26.800 552.930,27.070 553.200,27.400 553.200 C 27.730 553.200,28.000 553.384,28.000 553.610 C 28.000 553.835,28.489 554.206,29.086 554.433 C 29.959 554.764,30.057 554.919,29.586 555.217 C 29.125 555.509,29.191 555.589,29.900 555.594 C 30.431 555.597,30.800 555.846,30.800 556.200 C 30.800 556.530,31.070 556.800,31.400 556.800 C 31.730 556.800,32.000 557.070,32.000 557.400 C 32.000 557.730,32.270 558.000,32.600 558.000 C 32.930 558.000,33.200 558.270,33.200 558.600 C 33.200 558.930,33.470 559.200,33.800 559.200 C 34.154 559.200,34.403 559.569,34.406 560.100 C 34.411 560.809,34.491 560.875,34.783 560.414 C 35.081 559.943,35.236 560.041,35.567 560.914 C 35.794 561.511,36.165 562.000,36.390 562.000 C 36.616 562.000,36.800 562.270,36.800 562.600 C 36.800 562.930,37.070 563.200,37.400 563.200 C 37.730 563.200,38.000 563.384,38.000 563.610 C 38.000 563.835,38.489 564.206,39.086 564.433 C 39.959 564.764,40.057 564.919,39.586 565.217 C 39.157 565.488,39.356 565.589,40.329 565.594 C 41.059 565.597,41.927 565.870,42.257 566.200 C 42.587 566.530,43.289 566.800,43.816 566.800 C 44.504 566.800,44.710 566.969,44.545 567.400 C 44.375 567.841,44.598 568.000,45.386 568.000 C 45.975 568.000,46.727 568.270,47.057 568.600 C 47.443 568.986,48.432 569.200,49.829 569.200 C 51.720 569.200,52.000 569.301,52.000 569.985 C 52.000 570.733,52.297 570.769,58.200 570.744 C 64.013 570.720,64.400 570.671,64.400 569.959 C 64.400 569.298,64.710 569.200,66.800 569.200 C 68.620 569.200,69.200 569.061,69.200 568.625 C 69.200 568.269,69.695 568.003,70.500 567.925 C 71.278 567.850,71.760 567.599,71.700 567.300 C 71.642 567.010,72.008 566.800,72.571 566.800 C 73.106 566.800,73.813 566.530,74.143 566.200 C 74.473 565.870,75.104 565.600,75.544 565.600 C 76.004 565.600,76.458 565.246,76.609 564.771 C 76.767 564.273,77.097 564.028,77.436 564.159 C 77.764 564.284,78.000 564.129,78.000 563.787 C 78.000 563.464,78.168 563.200,78.373 563.200 C 78.578 563.200,78.864 562.827,79.009 562.371 C 79.167 561.873,79.497 561.628,79.836 561.759 C 80.342 561.953,80.580 561.540,80.447 560.700 C 80.421 560.535,80.535 560.421,80.700 560.447 C 81.540 560.580,81.953 560.342,81.759 559.836 C 81.628 559.497,81.873 559.167,82.371 559.009 C 82.827 558.864,83.200 558.578,83.200 558.373 C 83.200 558.168,83.464 558.000,83.787 558.000 C 84.145 558.000,84.285 557.765,84.145 557.400 C 84.018 557.070,84.105 556.800,84.339 556.800 C 84.890 556.800,86.800 554.890,86.800 554.339 C 86.800 554.105,87.070 554.018,87.400 554.145 C 87.765 554.285,88.000 554.145,88.000 553.787 C 88.000 553.464,88.168 553.200,88.373 553.200 C 88.578 553.200,88.864 552.827,89.009 552.371 C 89.167 551.873,89.497 551.628,89.836 551.759 C 90.342 551.953,90.580 551.540,90.447 550.700 C 90.421 550.535,90.535 550.421,90.700 550.447 C 91.540 550.580,91.953 550.342,91.759 549.836 C 91.628 549.497,91.873 549.167,92.371 549.009 C 92.827 548.864,93.200 548.578,93.200 548.373 C 93.200 548.168,93.464 548.000,93.787 548.000 C 94.145 548.000,94.285 547.765,94.145 547.400 C 94.018 547.070,94.105 546.800,94.339 546.800 C 94.890 546.800,96.800 544.890,96.800 544.339 C 96.800 544.105,97.070 544.018,97.400 544.145 C 97.765 544.285,98.000 544.145,98.000 543.787 C 98.000 543.464,98.168 543.200,98.373 543.200 C 98.578 543.200,98.864 542.827,99.009 542.371 C 99.167 541.873,99.497 541.628,99.836 541.759 C 100.342 541.953,100.580 541.540,100.447 540.700 C 100.421 540.535,100.535 540.421,100.700 540.447 C 101.540 540.580,101.953 540.342,101.759 539.836 C 101.628 539.497,101.873 539.167,102.371 539.009 C 102.827 538.864,103.200 538.578,103.200 538.373 C 103.200 538.168,103.464 538.000,103.787 538.000 C 104.145 538.000,104.285 537.765,104.145 537.400 C 104.018 537.070,104.105 536.800,104.339 536.800 C 104.890 536.800,106.800 534.890,106.800 534.339 C 106.800 534.105,107.070 534.018,107.400 534.145 C 107.765 534.285,108.000 534.145,108.000 533.787 C 108.000 533.464,108.168 533.200,108.373 533.200 C 108.578 533.200,108.864 532.827,109.009 532.371 C 109.167 531.873,109.497 531.628,109.836 531.759 C 110.342 531.953,110.580 531.540,110.447 530.700 C 110.421 530.535,110.535 530.421,110.700 530.447 C 111.540 530.580,111.953 530.342,111.759 529.836 C 111.628 529.497,111.873 529.167,112.371 529.009 C 112.827 528.864,113.200 528.578,113.200 528.373 C 113.200 528.168,113.464 528.000,113.787 528.000 C 114.145 528.000,114.285 527.765,114.145 527.400 C 114.018 527.070,114.105 526.800,114.339 526.800 C 114.890 526.800,116.800 524.890,116.800 524.339 C 116.800 524.105,117.070 524.018,117.400 524.145 C 117.765 524.285,118.000 524.145,118.000 523.787 C 118.000 523.464,118.168 523.200,118.373 523.200 C 118.578 523.200,118.864 522.827,119.009 522.371 C 119.167 521.873,119.497 521.628,119.836 521.759 C 120.342 521.953,120.580 521.540,120.447 520.700 C 120.421 520.535,120.535 520.421,120.700 520.447 C 121.540 520.580,121.953 520.342,121.759 519.836 C 121.628 519.497,121.873 519.167,122.371 519.009 C 122.827 518.864,123.200 518.578,123.200 518.373 C 123.200 518.168,123.464 518.000,123.787 518.000 C 124.145 518.000,124.285 517.765,124.145 517.400 C 124.018 517.070,124.105 516.800,124.339 516.800 C 124.890 516.800,126.800 514.890,126.800 514.339 C 126.800 514.105,127.070 514.018,127.400 514.145 C 127.765 514.285,128.000 514.145,128.000 513.787 C 128.000 513.464,128.168 513.200,128.373 513.200 C 128.578 513.200,128.864 512.827,129.009 512.371 C 129.167 511.873,129.497 511.628,129.836 511.759 C 130.342 511.953,130.580 511.540,130.447 510.700 C 130.421 510.535,130.535 510.421,130.700 510.447 C 131.540 510.580,131.953 510.342,131.759 509.836 C 131.628 509.497,131.873 509.167,132.371 509.009 C 132.827 508.864,133.200 508.578,133.200 508.373 C 133.200 508.168,133.464 508.000,133.787 508.000 C 134.145 508.000,134.285 507.765,134.145 507.400 C 134.018 507.070,134.105 506.800,134.339 506.800 C 134.890 506.800,136.800 504.890,136.800 504.339 C 136.800 504.105,137.070 504.018,137.400 504.145 C 137.765 504.285,138.000 504.145,138.000 503.787 C 138.000 503.464,138.168 503.200,138.373 503.200 C 138.578 503.200,138.864 502.827,139.009 502.371 C 139.167 501.873,139.497 501.628,139.836 501.759 C 140.342 501.953,140.580 501.540,140.447 500.700 C 140.421 500.535,140.535 500.421,140.700 500.447 C 141.540 500.580,141.953 500.342,141.759 499.836 C 141.628 499.497,141.873 499.167,142.371 499.009 C 142.827 498.864,143.200 498.578,143.200 498.373 C 143.200 498.168,143.464 498.000,143.787 498.000 C 144.145 498.000,144.285 497.765,144.145 497.400 C 144.018 497.070,144.105 496.800,144.339 496.800 C 144.890 496.800,146.800 494.890,146.800 494.339 C 146.800 494.105,147.070 494.018,147.400 494.145 C 147.765 494.285,148.000 494.145,148.000 493.787 C 148.000 493.464,148.168 493.200,148.373 493.200 C 148.578 493.200,148.864 492.827,149.009 492.371 C 149.167 491.873,149.497 491.628,149.836 491.759 C 150.342 491.953,150.580 491.540,150.447 490.700 C 150.421 490.535,150.535 490.421,150.700 490.447 C 151.540 490.580,151.953 490.342,151.759 489.836 C 151.628 489.497,151.873 489.167,152.371 489.009 C 152.827 488.864,153.200 488.578,153.200 488.373 C 153.200 488.168,153.464 488.000,153.787 488.000 C 154.145 488.000,154.285 487.765,154.145 487.400 C 154.018 487.070,154.105 486.800,154.339 486.800 C 154.890 486.800,156.800 484.890,156.800 484.339 C 156.800 484.105,157.070 484.018,157.400 484.145 C 157.765 484.285,158.000 484.145,158.000 483.787 C 158.000 483.464,158.168 483.200,158.373 483.200 C 158.578 483.200,158.864 482.827,159.009 482.371 C 159.167 481.873,159.497 481.628,159.836 481.759 C 160.342 481.953,160.580 481.540,160.447 480.700 C 160.421 480.535,160.535 480.421,160.700 480.447 C 161.540 480.580,161.953 480.342,161.759 479.836 C 161.628 479.497,161.873 479.167,162.371 479.009 C 162.827 478.864,163.200 478.578,163.200 478.373 C 163.200 478.168,163.464 478.000,163.787 478.000 C 164.145 478.000,164.285 477.765,164.145 477.400 C 164.018 477.070,164.105 476.800,164.339 476.800 C 164.890 476.800,166.800 474.890,166.800 474.339 C 166.800 474.105,167.070 474.018,167.400 474.145 C 167.765 474.285,168.000 474.145,168.000 473.787 C 168.000 473.464,168.168 473.200,168.373 473.200 C 168.578 473.200,168.864 472.827,169.009 472.371 C 169.167 471.873,169.497 471.628,169.836 471.759 C 170.342 471.953,170.580 471.540,170.447 470.700 C 170.421 470.535,170.535 470.421,170.700 470.447 C 171.540 470.580,171.953 470.342,171.759 469.836 C 171.628 469.497,171.873 469.167,172.371 469.009 C 172.827 468.864,173.200 468.578,173.200 468.373 C 173.200 468.168,173.464 468.000,173.787 468.000 C 174.145 468.000,174.285 467.765,174.145 467.400 C 174.018 467.070,174.105 466.800,174.339 466.800 C 174.890 466.800,176.800 464.890,176.800 464.339 C 176.800 464.105,177.070 464.018,177.400 464.145 C 177.765 464.285,178.000 464.145,178.000 463.787 C 178.000 463.464,178.168 463.200,178.373 463.200 C 178.578 463.200,178.864 462.827,179.009 462.371 C 179.167 461.873,179.497 461.628,179.836 461.759 C 180.342 461.953,180.580 461.540,180.447 460.700 C 180.421 460.535,180.535 460.421,180.700 460.447 C 181.540 460.580,181.953 460.342,181.759 459.836 C 181.628 459.497,181.873 459.167,182.371 459.009 C 182.827 458.864,183.200 458.578,183.200 458.373 C 183.200 458.168,183.464 458.000,183.787 458.000 C 184.145 458.000,184.285 457.765,184.145 457.400 C 184.018 457.070,184.105 456.800,184.339 456.800 C 184.890 456.800,186.800 454.890,186.800 454.339 C 186.800 454.105,187.070 454.018,187.400 454.145 C 187.765 454.285,188.000 454.145,188.000 453.787 C 188.000 453.464,188.168 453.200,188.373 453.200 C 188.578 453.200,188.864 452.827,189.009 452.371 C 189.167 451.873,189.497 451.628,189.836 451.759 C 190.342 451.953,190.580 451.540,190.447 450.700 C 190.421 450.535,190.535 450.421,190.700 450.447 C 191.540 450.580,191.953 450.342,191.759 449.836 C 191.628 449.497,191.873 449.167,192.371 449.009 C 192.827 448.864,193.200 448.578,193.200 448.373 C 193.200 448.168,193.464 448.000,193.787 448.000 C 194.145 448.000,194.285 447.765,194.145 447.400 C 194.018 447.070,194.105 446.800,194.339 446.800 C 194.890 446.800,196.800 444.890,196.800 444.339 C 196.800 444.105,197.070 444.018,197.400 444.145 C 197.765 444.285,198.000 444.145,198.000 443.787 C 198.000 443.464,198.168 443.200,198.373 443.200 C 198.578 443.200,198.860 442.840,199.000 442.400 C 199.140 441.960,199.590 441.600,200.000 441.600 C 200.410 441.600,200.860 441.960,201.000 442.400 C 201.140 442.840,201.422 443.200,201.627 443.200 C 201.832 443.200,202.000 443.464,202.000 443.787 C 202.000 444.145,202.235 444.285,202.600 444.145 C 202.930 444.018,203.200 444.105,203.200 444.339 C 203.200 444.890,205.110 446.800,205.661 446.800 C 205.895 446.800,205.982 447.070,205.855 447.400 C 205.715 447.765,205.855 448.000,206.213 448.000 C 206.536 448.000,206.800 448.168,206.800 448.373 C 206.800 448.578,207.173 448.864,207.629 449.009 C 208.127 449.167,208.372 449.497,208.241 449.836 C 208.047 450.342,208.460 450.580,209.300 450.447 C 209.465 450.421,209.579 450.535,209.553 450.700 C 209.420 451.540,209.658 451.953,210.164 451.759 C 210.503 451.628,210.833 451.873,210.991 452.371 C 211.136 452.827,211.422 453.200,211.627 453.200 C 211.832 453.200,212.000 453.464,212.000 453.787 C 212.000 454.145,212.235 454.285,212.600 454.145 C 212.930 454.018,213.200 454.105,213.200 454.339 C 213.200 454.890,215.110 456.800,215.661 456.800 C 215.895 456.800,215.982 457.070,215.855 457.400 C 215.715 457.765,215.855 458.000,216.213 458.000 C 216.536 458.000,216.800 458.168,216.800 458.373 C 216.800 458.578,217.173 458.864,217.629 459.009 C 218.127 459.167,218.372 459.497,218.241 459.836 C 218.047 460.342,218.460 460.580,219.300 460.447 C 219.465 460.421,219.579 460.535,219.553 460.700 C 219.420 461.540,219.658 461.953,220.164 461.759 C 220.503 461.628,220.833 461.873,220.991 462.371 C 221.136 462.827,221.422 463.200,221.627 463.200 C 221.832 463.200,222.000 463.464,222.000 463.787 C 222.000 464.145,222.235 464.285,222.600 464.145 C 222.930 464.018,223.200 464.105,223.200 464.339 C 223.200 464.890,225.110 466.800,225.661 466.800 C 225.895 466.800,225.982 467.070,225.855 467.400 C 225.715 467.765,225.855 468.000,226.213 468.000 C 226.536 468.000,226.800 468.168,226.800 468.373 C 226.800 468.578,227.173 468.864,227.629 469.009 C 228.127 469.167,228.372 469.497,228.241 469.836 C 228.047 470.342,228.460 470.580,229.300 470.447 C 229.465 470.421,229.579 470.535,229.553 470.700 C 229.420 471.540,229.658 471.953,230.164 471.759 C 230.503 471.628,230.833 471.873,230.991 472.371 C 231.136 472.827,231.422 473.200,231.627 473.200 C 231.832 473.200,232.000 473.464,232.000 473.787 C 232.000 474.145,232.235 474.285,232.600 474.145 C 232.930 474.018,233.200 474.105,233.200 474.339 C 233.200 474.890,235.110 476.800,235.661 476.800 C 235.895 476.800,235.982 477.070,235.855 477.400 C 235.715 477.765,235.855 478.000,236.213 478.000 C 236.536 478.000,236.800 478.168,236.800 478.373 C 236.800 478.578,237.173 478.864,237.629 479.009 C 238.127 479.167,238.372 479.497,238.241 479.836 C 238.047 480.342,238.460 480.580,239.300 480.447 C 239.465 480.421,239.579 480.535,239.553 480.700 C 239.420 481.540,239.658 481.953,240.164 481.759 C 240.503 481.628,240.833 481.873,240.991 482.371 C 241.136 482.827,241.422 483.200,241.627 483.200 C 241.832 483.200,242.000 483.464,242.000 483.787 C 242.000 484.145,242.235 484.285,242.600 484.145 C 242.930 484.018,243.200 484.105,243.200 484.339 C 243.200 484.890,245.110 486.800,245.661 486.800 C 245.895 486.800,245.982 487.070,245.855 487.400 C 245.715 487.765,245.855 488.000,246.213 488.000 C 246.536 488.000,246.800 488.168,246.800 488.373 C 246.800 488.578,247.173 488.864,247.629 489.009 C 248.127 489.167,248.372 489.497,248.241 489.836 C 248.047 490.342,248.460 490.580,249.300 490.447 C 249.465 490.421,249.579 490.535,249.553 490.700 C 249.420 491.540,249.658 491.953,250.164 491.759 C 250.503 491.628,250.833 491.873,250.991 492.371 C 251.136 492.827,251.422 493.200,251.627 493.200 C 251.832 493.200,252.000 493.464,252.000 493.787 C 252.000 494.145,252.235 494.285,252.600 494.145 C 252.930 494.018,253.200 494.105,253.200 494.339 C 253.200 494.890,255.110 496.800,255.661 496.800 C 255.895 496.800,255.982 497.070,255.855 497.400 C 255.715 497.765,255.855 498.000,256.213 498.000 C 256.536 498.000,256.800 498.168,256.800 498.373 C 256.800 498.578,257.173 498.864,257.629 499.009 C 258.127 499.167,258.372 499.497,258.241 499.836 C 258.047 500.342,258.460 500.580,259.300 500.447 C 259.465 500.421,259.579 500.535,259.553 500.700 C 259.420 501.540,259.658 501.953,260.164 501.759 C 260.503 501.628,260.833 501.873,260.991 502.371 C 261.136 502.827,261.422 503.200,261.627 503.200 C 261.832 503.200,262.000 503.464,262.000 503.787 C 262.000 504.145,262.235 504.285,262.600 504.145 C 262.930 504.018,263.200 504.105,263.200 504.339 C 263.200 504.890,265.110 506.800,265.661 506.800 C 265.895 506.800,265.982 507.070,265.855 507.400 C 265.715 507.765,265.855 508.000,266.213 508.000 C 266.536 508.000,266.800 508.168,266.800 508.373 C 266.800 508.578,267.173 508.864,267.629 509.009 C 268.127 509.167,268.372 509.497,268.241 509.836 C 268.047 510.342,268.460 510.580,269.300 510.447 C 269.465 510.421,269.579 510.535,269.553 510.700 C 269.420 511.540,269.658 511.953,270.164 511.759 C 270.503 511.628,270.833 511.873,270.991 512.371 C 271.136 512.827,271.422 513.200,271.627 513.200 C 271.832 513.200,272.000 513.464,272.000 513.787 C 272.000 514.145,272.235 514.285,272.600 514.145 C 272.930 514.018,273.200 514.105,273.200 514.339 C 273.200 514.890,275.110 516.800,275.661 516.800 C 275.895 516.800,275.982 517.070,275.855 517.400 C 275.715 517.765,275.855 518.000,276.213 518.000 C 276.536 518.000,276.800 518.168,276.800 518.373 C 276.800 518.578,277.173 518.864,277.629 519.009 C 278.127 519.167,278.372 519.497,278.241 519.836 C 278.047 520.342,278.460 520.580,279.300 520.447 C 279.465 520.421,279.579 520.535,279.553 520.700 C 279.420 521.540,279.658 521.953,280.164 521.759 C 280.503 521.628,280.833 521.873,280.991 522.371 C 281.136 522.827,281.422 523.200,281.627 523.200 C 281.832 523.200,282.000 523.464,282.000 523.787 C 282.000 524.145,282.235 524.285,282.600 524.145 C 282.930 524.018,283.200 524.105,283.200 524.339 C 283.200 524.890,285.110 526.800,285.661 526.800 C 285.895 526.800,285.982 527.070,285.855 527.400 C 285.715 527.765,285.855 528.000,286.213 528.000 C 286.536 528.000,286.800 528.168,286.800 528.373 C 286.800 528.578,287.173 528.864,287.629 529.009 C 288.127 529.167,288.372 529.497,288.241 529.836 C 288.047 530.342,288.460 530.580,289.300 530.447 C 289.465 530.421,289.579 530.535,289.553 530.700 C 289.420 531.540,289.658 531.953,290.164 531.759 C 290.503 531.628,290.833 531.873,290.991 532.371 C 291.136 532.827,291.422 533.200,291.627 533.200 C 291.832 533.200,292.000 533.464,292.000 533.787 C 292.000 534.145,292.235 534.285,292.600 534.145 C 292.930 534.018,293.200 534.105,293.200 534.339 C 293.200 534.890,295.110 536.800,295.661 536.800 C 295.895 536.800,295.982 537.070,295.855 537.400 C 295.715 537.765,295.855 538.000,296.213 538.000 C 296.536 538.000,296.800 538.168,296.800 538.373 C 296.800 538.578,297.173 538.864,297.629 539.009 C 298.127 539.167,298.372 539.497,298.241 539.836 C 298.047 540.342,298.460 540.580,299.300 540.447 C 299.465 540.421,299.579 540.535,299.553 540.700 C 299.420 541.540,299.658 541.953,300.164 541.759 C 300.503 541.628,300.833 541.873,300.991 542.371 C 301.136 542.827,301.422 543.200,301.627 543.200 C 301.832 543.200,302.000 543.464,302.000 543.787 C 302.000 544.145,302.235 544.285,302.600 544.145 C 302.930 544.018,303.200 544.105,303.200 544.339 C 303.200 544.890,305.110 546.800,305.661 546.800 C 305.895 546.800,305.982 547.070,305.855 547.400 C 305.715 547.765,305.855 548.000,306.213 548.000 C 306.536 548.000,306.800 548.168,306.800 548.373 C 306.800 548.578,307.173 548.864,307.629 549.009 C 308.127 549.167,308.372 549.497,308.241 549.836 C 308.047 550.342,308.460 550.580,309.300 550.447 C 309.465 550.421,309.579 550.535,309.553 550.700 C 309.420 551.540,309.658 551.953,310.164 551.759 C 310.503 551.628,310.833 551.873,310.991 552.371 C 311.136 552.827,311.422 553.200,311.627 553.200 C 311.832 553.200,312.000 553.464,312.000 553.787 C 312.000 554.145,312.235 554.285,312.600 554.145 C 312.930 554.018,313.200 554.105,313.200 554.339 C 313.200 554.890,315.110 556.800,315.661 556.800 C 315.895 556.800,315.982 557.070,315.855 557.400 C 315.715 557.765,315.855 558.000,316.213 558.000 C 316.536 558.000,316.800 558.168,316.800 558.373 C 316.800 558.578,317.173 558.864,317.629 559.009 C 318.127 559.167,318.372 559.497,318.241 559.836 C 318.047 560.342,318.460 560.580,319.300 560.447 C 319.465 560.421,319.579 560.535,319.553 560.700 C 319.420 561.540,319.658 561.953,320.164 561.759 C 320.503 561.628,320.833 561.873,320.991 562.371 C 321.136 562.827,321.422 563.200,321.627 563.200 C 321.832 563.200,322.000 563.464,322.000 563.787 C 322.000 564.129,322.236 564.284,322.564 564.159 C 322.903 564.028,323.233 564.273,323.391 564.771 C 323.542 565.246,323.996 565.600,324.456 565.600 C 324.896 565.600,325.527 565.870,325.857 566.200 C 326.187 566.530,326.894 566.800,327.429 566.800 C 327.992 566.800,328.358 567.010,328.300 567.300 C 328.240 567.599,328.722 567.850,329.500 567.925 C 330.305 568.003,330.800 568.269,330.800 568.625 C 330.800 569.074,331.459 569.200,333.800 569.200 C 336.469 569.200,336.800 569.283,336.800 569.952 C 336.800 570.645,337.185 570.706,341.800 570.733 C 346.505 570.762,346.800 570.717,346.800 569.982 C 346.800 569.286,347.087 569.200,349.400 569.200 C 351.444 569.200,352.000 569.072,352.000 568.600 C 352.000 568.069,353.917 567.708,355.349 567.969 C 355.541 568.004,355.592 567.755,355.462 567.416 C 355.300 566.995,355.464 566.800,355.980 566.800 C 357.153 566.800,358.000 566.368,358.000 565.770 C 358.000 565.450,358.248 565.320,358.600 565.455 C 358.980 565.601,359.200 565.450,359.200 565.043 C 359.200 564.594,359.566 564.400,360.413 564.400 C 361.121 564.400,361.721 564.151,361.855 563.800 C 361.982 563.470,362.336 563.200,362.643 563.200 C 362.949 563.200,363.200 562.949,363.200 562.643 C 363.200 562.336,363.470 561.982,363.800 561.855 C 364.130 561.729,364.400 561.355,364.400 561.025 C 364.400 560.656,364.631 560.514,365.000 560.655 C 365.416 560.815,365.600 560.628,365.600 560.043 C 365.600 559.560,365.857 559.200,366.200 559.200 C 366.530 559.200,366.800 558.930,366.800 558.600 C 366.800 558.270,367.070 558.000,367.400 558.000 C 367.730 558.000,368.000 557.730,368.000 557.400 C 368.000 557.070,368.270 556.800,368.600 556.800 C 368.930 556.800,369.200 556.530,369.200 556.200 C 369.200 555.857,369.560 555.600,370.043 555.600 C 370.628 555.600,370.815 555.416,370.655 555.000 C 370.514 554.631,370.656 554.400,371.025 554.400 C 371.355 554.400,371.729 554.130,371.855 553.800 C 371.982 553.470,372.336 553.200,372.643 553.200 C 372.949 553.200,373.200 552.949,373.200 552.643 C 373.200 552.336,373.470 551.982,373.800 551.855 C 374.130 551.729,374.400 551.355,374.400 551.025 C 374.400 550.656,374.631 550.514,375.000 550.655 C 375.416 550.815,375.600 550.628,375.600 550.043 C 375.600 549.560,375.857 549.200,376.200 549.200 C 376.530 549.200,376.800 548.930,376.800 548.600 C 376.800 548.270,377.070 548.000,377.400 548.000 C 377.730 548.000,378.000 547.730,378.000 547.400 C 378.000 547.070,378.270 546.800,378.600 546.800 C 378.930 546.800,379.200 546.530,379.200 546.200 C 379.200 545.857,379.560 545.600,380.043 545.600 C 380.628 545.600,380.815 545.416,380.655 545.000 C 380.514 544.631,380.656 544.400,381.025 544.400 C 381.355 544.400,381.729 544.130,381.855 543.800 C 381.982 543.470,382.336 543.200,382.643 543.200 C 382.949 543.200,383.200 542.949,383.200 542.643 C 383.200 542.336,383.470 541.982,383.800 541.855 C 384.130 541.729,384.400 541.355,384.400 541.025 C 384.400 540.656,384.631 540.514,385.000 540.655 C 385.416 540.815,385.600 540.628,385.600 540.043 C 385.600 539.560,385.857 539.200,386.200 539.200 C 386.530 539.200,386.800 538.930,386.800 538.600 C 386.800 538.270,387.070 538.000,387.400 538.000 C 387.730 538.000,388.000 537.730,388.000 537.400 C 388.000 537.070,388.270 536.800,388.600 536.800 C 388.930 536.800,389.200 536.530,389.200 536.200 C 389.200 535.857,389.560 535.600,390.043 535.600 C 390.628 535.600,390.815 535.416,390.655 535.000 C 390.514 534.631,390.656 534.400,391.025 534.400 C 391.355 534.400,391.729 534.130,391.855 533.800 C 391.982 533.470,392.336 533.200,392.643 533.200 C 392.949 533.200,393.200 532.949,393.200 532.643 C 393.200 532.336,393.470 531.982,393.800 531.855 C 394.130 531.729,394.400 531.355,394.400 531.025 C 394.400 530.656,394.631 530.514,395.000 530.655 C 395.457 530.831,395.600 530.577,395.600 529.586 C 395.600 528.664,395.948 527.954,396.800 527.140 C 397.497 526.473,398.000 525.581,398.000 525.009 C 398.000 524.299,398.167 524.089,398.600 524.255 C 399.080 524.439,399.200 524.116,399.200 522.643 C 399.200 521.629,399.380 520.800,399.600 520.800 C 399.856 520.800,400.000 517.200,400.000 510.800 C 400.000 504.400,399.856 500.800,399.600 500.800 C 399.380 500.800,399.200 500.170,399.200 499.400 C 399.200 498.422,399.019 498.000,398.600 498.000 C 398.201 498.000,398.000 497.601,398.000 496.813 C 398.000 495.921,397.850 495.683,397.400 495.855 C 396.935 496.034,396.800 495.761,396.800 494.643 C 396.800 493.474,396.650 493.200,396.013 493.200 C 395.477 493.200,395.299 493.008,395.455 492.600 C 395.601 492.220,395.450 492.000,395.043 492.000 C 394.573 492.000,394.400 491.617,394.400 490.576 C 394.400 489.765,394.234 489.255,394.015 489.391 C 393.511 489.702,390.298 486.489,390.609 485.985 C 390.740 485.773,390.477 485.600,390.024 485.600 C 389.534 485.600,389.200 485.339,389.200 484.957 C 389.200 484.550,388.980 484.399,388.600 484.545 C 388.270 484.671,388.000 484.576,388.000 484.333 C 388.000 483.815,386.127 482.000,385.592 482.000 C 385.390 482.000,385.329 481.730,385.455 481.400 C 385.601 481.020,385.450 480.800,385.043 480.800 C 384.661 480.800,384.400 480.466,384.400 479.976 C 384.400 479.523,384.227 479.260,384.015 479.391 C 383.511 479.702,380.298 476.489,380.609 475.985 C 380.740 475.773,380.477 475.600,380.024 475.600 C 379.534 475.600,379.200 475.339,379.200 474.957 C 379.200 474.550,378.980 474.399,378.600 474.545 C 378.270 474.671,378.000 474.576,378.000 474.333 C 378.000 473.815,376.127 472.000,375.592 472.000 C 375.390 472.000,375.329 471.730,375.455 471.400 C 375.601 471.020,375.450 470.800,375.043 470.800 C 374.661 470.800,374.400 470.466,374.400 469.976 C 374.400 469.523,374.227 469.260,374.015 469.391 C 373.511 469.702,370.298 466.489,370.609 465.985 C 370.740 465.773,370.477 465.600,370.024 465.600 C 369.534 465.600,369.200 465.339,369.200 464.957 C 369.200 464.550,368.980 464.399,368.600 464.545 C 368.270 464.671,368.000 464.609,368.000 464.406 C 368.000 464.203,367.542 463.578,366.982 463.018 C 366.422 462.458,365.797 462.000,365.594 462.000 C 365.391 462.000,365.329 461.730,365.455 461.400 C 365.601 461.020,365.450 460.800,365.043 460.800 C 364.661 460.800,364.400 460.466,364.400 459.976 C 364.400 459.523,364.227 459.260,364.015 459.391 C 363.511 459.702,360.298 456.489,360.609 455.985 C 360.740 455.773,360.477 455.600,360.024 455.600 C 359.534 455.600,359.200 455.339,359.200 454.957 C 359.200 454.550,358.980 454.399,358.600 454.545 C 358.270 454.671,358.000 454.609,358.000 454.406 C 358.000 453.926,356.074 452.000,355.594 452.000 C 355.391 452.000,355.329 451.730,355.455 451.400 C 355.601 451.020,355.450 450.800,355.043 450.800 C 354.661 450.800,354.400 450.466,354.400 449.976 C 354.400 449.523,354.227 449.260,354.015 449.391 C 353.511 449.702,350.298 446.489,350.609 445.985 C 350.740 445.773,350.477 445.600,350.024 445.600 C 349.534 445.600,349.200 445.339,349.200 444.957 C 349.200 444.550,348.980 444.399,348.600 444.545 C 348.270 444.671,348.000 444.609,348.000 444.406 C 348.000 444.203,347.542 443.578,346.982 443.018 C 346.422 442.458,345.797 442.000,345.594 442.000 C 345.391 442.000,345.329 441.730,345.455 441.400 C 345.601 441.020,345.450 440.800,345.043 440.800 C 344.661 440.800,344.400 440.466,344.400 439.976 C 344.400 439.523,344.227 439.260,344.015 439.391 C 343.511 439.702,340.298 436.489,340.609 435.985 C 340.740 435.773,340.477 435.600,340.024 435.600 C 339.534 435.600,339.200 435.339,339.200 434.957 C 339.200 434.550,338.980 434.399,338.600 434.545 C 338.270 434.671,338.000 434.576,338.000 434.333 C 338.000 433.815,336.127 432.000,335.592 432.000 C 335.390 432.000,335.329 431.730,335.455 431.400 C 335.601 431.020,335.450 430.800,335.043 430.800 C 334.661 430.800,334.400 430.466,334.400 429.976 C 334.400 429.523,334.227 429.260,334.015 429.391 C 333.511 429.702,330.298 426.489,330.609 425.985 C 330.740 425.773,330.477 425.600,330.024 425.600 C 329.534 425.600,329.200 425.339,329.200 424.957 C 329.200 424.550,328.980 424.399,328.600 424.545 C 328.270 424.671,328.000 424.576,328.000 424.333 C 328.000 423.815,326.127 422.000,325.592 422.000 C 325.390 422.000,325.329 421.730,325.455 421.400 C 325.601 421.020,325.450 420.800,325.043 420.800 C 324.661 420.800,324.400 420.466,324.400 419.976 C 324.400 419.523,324.227 419.260,324.015 419.391 C 323.511 419.702,320.298 416.489,320.609 415.985 C 320.740 415.773,320.477 415.600,320.024 415.600 C 319.534 415.600,319.200 415.339,319.200 414.957 C 319.200 414.550,318.980 414.399,318.600 414.545 C 318.270 414.671,318.000 414.609,318.000 414.406 C 318.000 413.926,316.074 412.000,315.594 412.000 C 315.391 412.000,315.329 411.730,315.455 411.400 C 315.601 411.020,315.450 410.800,315.043 410.800 C 314.661 410.800,314.400 410.466,314.400 409.976 C 314.400 409.523,314.227 409.260,314.015 409.391 C 313.511 409.702,310.298 406.489,310.609 405.985 C 310.740 405.773,310.477 405.600,310.024 405.600 C 309.534 405.600,309.200 405.339,309.200 404.957 C 309.200 404.550,308.980 404.399,308.600 404.545 C 308.270 404.671,308.000 404.609,308.000 404.406 C 308.000 403.926,306.074 402.000,305.594 402.000 C 305.391 402.000,305.329 401.730,305.455 401.400 C 305.601 401.020,305.450 400.800,305.043 400.800 C 304.661 400.800,304.400 400.466,304.400 399.976 C 304.400 399.523,304.227 399.260,304.015 399.391 C 303.511 399.702,300.298 396.489,300.609 395.985 C 300.740 395.773,300.477 395.600,300.024 395.600 C 299.534 395.600,299.200 395.339,299.200 394.957 C 299.200 394.550,298.980 394.399,298.600 394.545 C 298.270 394.671,298.000 394.609,298.000 394.406 C 298.000 393.926,296.074 392.000,295.594 392.000 C 295.391 392.000,295.329 391.730,295.455 391.400 C 295.601 391.020,295.450 390.800,295.043 390.800 C 294.661 390.800,294.400 390.466,294.400 389.976 C 294.400 389.523,294.227 389.260,294.015 389.391 C 293.803 389.522,292.896 388.896,292.000 388.000 C 291.104 387.104,290.478 386.197,290.609 385.985 C 290.740 385.773,290.477 385.600,290.024 385.600 C 289.534 385.600,289.200 385.339,289.200 384.957 C 289.200 384.550,288.980 384.399,288.600 384.545 C 288.270 384.671,288.000 384.576,288.000 384.333 C 288.000 383.815,286.127 382.000,285.592 382.000 C 285.390 382.000,285.329 381.730,285.455 381.400 C 285.601 381.020,285.450 380.800,285.043 380.800 C 284.661 380.800,284.400 380.466,284.400 379.976 C 284.400 379.523,284.227 379.260,284.015 379.391 C 283.511 379.702,280.298 376.489,280.609 375.985 C 280.740 375.773,280.477 375.600,280.024 375.600 C 279.534 375.600,279.200 375.339,279.200 374.957 C 279.200 374.550,278.980 374.399,278.600 374.545 C 278.270 374.671,278.000 374.576,278.000 374.333 C 278.000 373.815,276.127 372.000,275.592 372.000 C 275.390 372.000,275.329 371.730,275.455 371.400 C 275.601 371.020,275.450 370.800,275.043 370.800 C 274.661 370.800,274.400 370.466,274.400 369.976 C 274.400 369.523,274.227 369.260,274.015 369.391 C 273.511 369.702,270.298 366.489,270.609 365.985 C 270.740 365.773,270.477 365.600,270.024 365.600 C 269.534 365.600,269.200 365.339,269.200 364.957 C 269.200 364.550,268.980 364.399,268.600 364.545 C 268.270 364.671,268.000 364.609,268.000 364.406 C 268.000 363.926,266.074 362.000,265.594 362.000 C 265.391 362.000,265.329 361.730,265.455 361.400 C 265.601 361.020,265.450 360.800,265.043 360.800 C 264.661 360.800,264.400 360.466,264.400 359.976 C 264.400 359.523,264.227 359.260,264.015 359.391 C 263.511 359.702,260.298 356.489,260.609 355.985 C 260.740 355.773,260.477 355.600,260.024 355.600 C 259.534 355.600,259.200 355.339,259.200 354.957 C 259.200 354.550,258.980 354.399,258.600 354.545 C 258.270 354.671,258.000 354.609,258.000 354.406 C 258.000 353.926,256.074 352.000,255.594 352.000 C 255.391 352.000,255.329 351.730,255.455 351.400 C 255.601 351.020,255.450 350.800,255.043 350.800 C 254.661 350.800,254.400 350.466,254.400 349.976 C 254.400 349.523,254.227 349.260,254.015 349.391 C 253.511 349.702,250.298 346.489,250.609 345.985 C 250.740 345.773,250.477 345.600,250.024 345.600 C 249.534 345.600,249.200 345.339,249.200 344.957 C 249.200 344.550,248.980 344.399,248.600 344.545 C 248.270 344.671,248.000 344.609,248.000 344.406 C 248.000 343.926,246.074 342.000,245.594 342.000 C 245.391 342.000,245.329 341.730,245.455 341.400 C 245.601 341.020,245.450 340.800,245.043 340.800 C 244.661 340.800,244.400 340.466,244.400 339.976 C 244.400 339.523,244.227 339.260,244.015 339.391 C 243.511 339.702,240.298 336.489,240.609 335.985 C 240.740 335.773,240.477 335.600,240.024 335.600 C 239.534 335.600,239.200 335.339,239.200 334.957 C 239.200 334.550,238.980 334.399,238.600 334.545 C 238.270 334.671,238.000 334.576,238.000 334.333 C 238.000 333.815,236.127 332.000,235.592 332.000 C 235.390 332.000,235.329 331.730,235.455 331.400 C 235.601 331.020,235.450 330.800,235.043 330.800 C 234.661 330.800,234.400 330.466,234.400 329.976 C 234.400 329.523,234.227 329.260,234.015 329.391 C 233.511 329.702,230.298 326.489,230.609 325.985 C 230.740 325.773,230.477 325.600,230.024 325.600 C 229.534 325.600,229.200 325.339,229.200 324.957 C 229.200 324.550,228.980 324.399,228.600 324.545 C 228.270 324.671,228.000 324.576,228.000 324.333 C 228.000 323.815,226.127 322.000,225.592 322.000 C 225.390 322.000,225.329 321.730,225.455 321.400 C 225.601 321.020,225.450 320.800,225.043 320.800 C 224.661 320.800,224.400 320.466,224.400 319.976 C 224.400 319.523,224.227 319.260,224.015 319.391 C 223.511 319.702,220.298 316.489,220.609 315.985 C 220.745 315.766,220.235 315.600,219.424 315.600 C 218.383 315.600,218.000 315.427,218.000 314.957 C 218.000 314.550,217.780 314.399,217.400 314.545 C 216.992 314.701,216.800 314.523,216.800 313.987 C 216.800 313.350,216.526 313.200,215.357 313.200 C 214.239 313.200,213.966 313.065,214.145 312.600 C 214.326 312.128,214.031 312.000,212.759 312.000 C 211.856 312.000,210.878 311.735,210.543 311.400 C 210.157 311.014,209.168 310.800,207.771 310.800 C 205.788 310.800,205.599 310.722,205.594 309.900 C 205.589 309.243,205.495 309.146,205.244 309.543 C 204.995 309.935,204.822 309.959,204.617 309.628 C 204.067 308.738,194.400 309.129,194.400 310.041 " stroke="none" fill="#74e4ec" fill-rule="evenodd"></path><path id="path1" d="" stroke="none" fill="#78e4ec" fill-rule="evenodd"></path><path id="path2" d="" stroke="none" fill="#78e4ec" fill-rule="evenodd"></path><path id="path3" d="" stroke="none" fill="#78e4ec" fill-rule="evenodd"></path><path id="path4" d="" stroke="none" fill="#78e4ec" fill-rule="evenodd"></path></g></svg>