<?xml version="1.0" standalone="no"?>
<!DOCTYPE svg PUBLIC "-//W3C//DTD SVG 20010904//EN"
 "http://www.w3.org/TR/2001/REC-SVG-20010904/DTD/svg10.dtd">
<svg version="1.0" xmlns="http://www.w3.org/2000/svg"
 width="1024.000000pt" height="1024.000000pt" viewBox="0 0 1024.000000 1024.000000"
 preserveAspectRatio="xMidYMid meet">
<metadata>
Created by potrace 1.14, written by Peter Selinger 2001-2017
</metadata>
<g transform="translate(0.000000,1024.000000) scale(0.100000,-0.100000)"
fill="#000000" stroke="none">
<path d="M4858 10236 c-1 -2 -50 -6 -108 -10 -58 -3 -116 -8 -130 -11 -14 -2
-52 -7 -85 -10 -105 -9 -381 -52 -395 -60 -3 -2 -26 -6 -50 -10 -94 -14 -412
-99 -582 -156 -546 -182 -1005 -424 -1473 -775 -82 -62 -161 -123 -175 -136
-14 -13 -38 -34 -55 -46 -51 -40 -214 -192 -324 -302 -292 -294 -537 -612
-778 -1007 -142 -235 -320 -621 -423 -918 -69 -202 -140 -458 -174 -635 -2
-14 -9 -47 -15 -75 -6 -27 -13 -66 -16 -85 -12 -77 -34 -238 -40 -285 -3 -27
-8 -64 -10 -81 -26 -188 -26 -858 0 -1015 2 -13 6 -51 10 -84 3 -33 8 -76 10
-95 11 -75 27 -176 32 -205 3 -16 7 -39 8 -50 7 -43 16 -89 20 -94 2 -4 6 -24
9 -46 6 -38 50 -211 95 -375 60 -222 197 -570 325 -829 25 -51 43 -98 39 -104
-3 -5 -1 -7 4 -4 6 4 16 -8 24 -26 7 -17 20 -44 30 -58 10 -14 19 -32 21 -40
2 -8 5 -16 8 -19 14 -12 59 -98 55 -104 -3 -3 -2 -4 2 -1 10 8 35 -34 27 -47
-4 -7 -3 -8 4 -4 7 4 12 2 12 -4 0 -6 9 -20 20 -32 10 -12 17 -25 14 -30 -3
-4 -1 -8 3 -8 13 0 43 -56 35 -65 -4 -5 -1 -5 6 -1 7 4 12 1 12 -8 0 -8 3 -16
8 -18 12 -5 64 -78 56 -78 -4 0 1 -7 12 -15 10 -8 16 -15 11 -15 -4 0 1 -8 10
-18 49 -52 124 -158 116 -166 -3 -3 0 -6 8 -6 15 0 85 -94 82 -110 -2 -5 4 -7
12 -4 8 4 15 1 15 -5 0 -6 8 -19 18 -30 19 -21 98 -110 112 -127 5 -7 6 -15 2
-20 -4 -4 -2 -4 4 -1 11 6 61 -42 56 -55 -1 -5 5 -8 14 -8 10 0 14 -6 11 -14
-4 -11 -1 -13 10 -9 11 4 14 2 9 -5 -4 -7 -3 -12 3 -12 15 0 51 -42 45 -52 -3
-5 -2 -7 3 -6 10 3 63 -36 63 -47 0 -11 28 -35 40 -35 6 0 8 -4 5 -10 -3 -5
-1 -10 6 -10 6 0 28 -17 48 -38 20 -20 50 -49 66 -62 17 -14 30 -29 30 -33 0
-4 15 -15 33 -24 17 -8 32 -22 32 -30 0 -8 4 -12 8 -9 11 6 42 -30 34 -39 -4
-4 -2 -6 3 -5 22 5 35 -1 35 -16 0 -8 4 -13 8 -10 5 3 25 -10 45 -29 21 -19
37 -33 37 -30 0 3 9 -3 19 -12 11 -9 17 -21 14 -26 -3 -6 -1 -7 5 -3 10 6 31
-7 67 -42 8 -6 18 -12 24 -12 6 0 11 -3 11 -8 0 -4 10 -12 23 -17 12 -6 21
-16 20 -23 -2 -6 4 -9 12 -6 8 4 17 -1 21 -10 3 -9 9 -14 14 -11 4 2 16 -4 26
-13 10 -10 36 -28 57 -41 20 -12 37 -27 37 -32 0 -6 5 -7 11 -3 6 3 14 2 18
-3 3 -5 76 -51 161 -102 191 -114 526 -280 719 -356 223 -88 539 -189 660
-212 14 -2 28 -6 31 -8 5 -3 121 -28 231 -50 56 -11 257 -45 299 -50 289 -35
363 -39 675 -39 239 -1 453 7 514 19 9 1 47 6 84 10 37 3 76 8 85 10 9 1 40 6
67 9 85 12 258 44 382 72 65 14 124 27 133 29 8 2 56 15 105 30 50 15 106 31
125 36 56 14 255 83 380 132 260 103 475 207 735 357 160 92 510 340 675 478
218 182 542 508 672 677 12 17 28 36 35 43 26 27 212 279 270 367 141 212 334
561 422 765 13 30 32 73 42 95 126 286 284 828 325 1115 3 19 7 46 9 60 12 62
23 148 31 225 3 33 7 71 10 85 25 156 25 850 0 1000 -3 14 -7 50 -10 80 -3 30
-10 87 -15 125 -6 39 -13 88 -16 110 -3 22 -8 51 -11 65 -2 14 -6 36 -9 50 -5
23 -20 101 -31 160 -10 52 -75 305 -95 368 -63 205 -125 375 -220 602 -30 72
-217 440 -259 510 -18 30 -41 69 -51 85 -106 174 -304 451 -444 622 -168 203
-485 520 -658 656 -15 12 -39 32 -52 44 -36 32 -280 213 -350 260 -259 173
-455 284 -720 408 -374 175 -868 332 -1220 389 -36 6 -82 14 -110 20 -11 2
-45 7 -75 11 -30 4 -62 9 -71 10 -29 6 -116 15 -294 32 -50 4 -642 12 -647 9z"/>
</g>
</svg>
