<?xml version="1.0" standalone="no"?>
<!DOCTYPE svg PUBLIC "-//W3C//DTD SVG 20010904//EN"
 "http://www.w3.org/TR/2001/REC-SVG-20010904/DTD/svg10.dtd">
<svg version="1.0" xmlns="http://www.w3.org/2000/svg"
 width="1024.000000pt" height="1024.000000pt" viewBox="0 0 1024.000000 1024.000000"
 preserveAspectRatio="xMidYMid meet">
<metadata>
Created by potrace 1.14, written by Peter Selinger 2001-2017
</metadata>
<g transform="translate(0.000000,1024.000000) scale(0.100000,-0.100000)"
fill="#000000" stroke="none">
<path d="M0 6296 l0 -3943 75 -32 c41 -17 79 -31 85 -31 5 0 10 -4 10 -10 0
-5 9 -10 20 -10 11 0 39 -9 63 -19 23 -11 112 -43 197 -72 85 -28 190 -69 233
-90 43 -22 84 -39 92 -39 7 0 20 -7 29 -15 8 -9 50 -20 97 -26 45 -6 120 -26
168 -45 47 -19 93 -34 103 -34 9 0 27 -4 40 -9 13 -5 26 -9 30 -10 36 -8 103
-38 150 -66 31 -19 61 -35 66 -35 6 0 44 -15 84 -34 100 -47 467 -181 519
-190 8 -1 28 -7 45 -13 16 -6 62 -21 102 -34 40 -12 75 -26 78 -31 3 -4 16 -8
29 -8 13 0 27 -4 30 -10 3 -5 25 -14 48 -20 23 -6 71 -22 106 -36 42 -16 73
-23 92 -19 21 5 30 2 38 -13 6 -11 24 -22 41 -26 17 -3 82 -24 143 -46 209
-74 398 -129 445 -130 13 0 38 11 55 24 61 46 122 69 207 80 124 16 331 12
425 -7 44 -9 121 -22 170 -28 63 -8 105 -20 140 -39 28 -15 66 -33 86 -39 20
-7 54 -27 75 -45 38 -33 39 -35 42 -115 l4 -81 117 -1 c118 0 163 -4 188 -13
15 -6 13 -40 -5 -73 -7 -12 -12 -33 -12 -47 0 -14 -6 -26 -12 -26 -10 0 -10
-2 -1 -8 7 -4 13 -27 14 -50 2 -23 8 -42 14 -42 10 0 75 -66 75 -76 0 -9 -29
-3 -32 7 -2 7 -12 7 -30 -2 -15 -6 -25 -16 -21 -22 3 -6 1 -7 -6 -3 -6 4 -9
12 -6 17 4 5 2 9 -4 9 -5 0 -13 -5 -16 -11 -5 -6 -12 -4 -21 8 -7 10 -14 13
-14 7 0 -7 -7 -15 -16 -18 -10 -4 -13 -2 -8 6 4 6 -3 4 -17 -5 -30 -21 -53
-22 -45 -2 3 9 0 15 -10 15 -11 0 -14 -6 -10 -17 6 -17 5 -17 -8 0 -16 21 -26
22 -26 2 0 -19 -16 -19 -24 0 -4 11 -11 12 -28 6 -13 -4 -36 -5 -51 0 -24 7
-27 6 -17 -6 18 -22 3 -37 -23 -22 -12 6 -26 18 -30 25 -7 11 -12 10 -22 -5
-11 -14 -16 -16 -26 -5 -15 14 -63 17 -54 2 10 -15 0 -12 -24 9 -13 12 -18 22
-11 26 5 3 10 1 10 -4 0 -6 5 -11 10 -11 17 0 11 18 -14 44 -27 30 -36 32 -36
11 0 -9 -6 -15 -12 -14 -33 4 -40 -1 -23 -17 9 -9 13 -19 10 -22 -3 -3 -11 0
-17 6 -7 7 -18 12 -26 12 -7 0 -20 7 -29 15 -14 14 -13 15 11 9 17 -4 26 -2
26 6 0 6 5 8 10 5 6 -3 10 -1 10 4 0 6 -7 11 -15 11 -9 0 -18 7 -21 15 -3 8
-21 17 -40 21 -28 5 -32 9 -23 20 6 8 8 14 3 14 -5 0 -3 4 4 9 9 5 1 10 -27
15 -44 7 -49 15 -50 86 -2 116 -56 217 -109 203 -12 -3 -22 -8 -23 -12 0 -3
-2 -24 -3 -46 -2 -24 -22 -73 -50 -124 -25 -46 -55 -116 -66 -154 -18 -67 -42
-108 -55 -95 -3 3 -11 63 -17 134 -8 95 -8 150 0 215 7 47 12 104 12 127 0 35
-3 41 -27 47 -20 5 -31 2 -41 -12 -7 -10 -20 -17 -28 -15 -8 2 -14 -2 -14 -7
0 -6 -16 -13 -35 -17 -20 -3 -41 -14 -48 -24 -11 -15 -48 -40 -60 -40 -3 0 -3
9 0 20 6 24 -10 26 -32 3 -10 -9 -34 -17 -58 -17 l-42 -1 -3 52 c-3 54 -25 79
-37 42 -4 -12 -12 -18 -21 -15 -8 3 -14 -1 -14 -8 0 -20 -35 -47 -52 -41 -11
4 -19 -3 -27 -26 -17 -48 -14 -59 14 -59 14 0 28 -7 31 -15 4 -10 13 -13 25
-10 11 4 19 2 19 -4 0 -6 6 -11 14 -11 8 0 17 -7 20 -16 5 -14 9 -14 22 -3 9
7 39 15 67 17 39 3 55 9 69 28 19 23 77 36 63 14 -3 -6 -1 -10 4 -10 21 0 11
-19 -11 -22 -19 -2 -22 -8 -20 -33 2 -25 -2 -32 -25 -41 -31 -11 -75 -5 -73
11 1 5 -4 11 -10 13 -9 3 -9 -1 -1 -17 7 -12 9 -26 6 -31 -3 -6 1 -7 9 -4 9 4
16 1 16 -6 0 -8 -9 -11 -25 -8 -17 4 -25 1 -25 -8 0 -23 -28 -4 -35 23 -5 22
-10 25 -35 19 -17 -3 -30 -2 -30 3 0 5 -9 7 -20 4 -19 -5 -19 -6 -3 -19 13 -9
15 -16 7 -24 -15 -15 -66 -17 -71 -2 -3 8 1 10 13 5 16 -6 17 -5 4 9 -14 15
-16 14 -25 -3 -7 -13 -15 -15 -25 -9 -9 6 -20 4 -30 -3 -13 -11 -13 -10 -1 5
7 10 17 16 21 13 13 -8 18 18 6 31 -12 13 -49 6 -40 -7 6 -11 -7 -11 -23 -1
-14 9 -4 26 15 28 36 3 42 5 42 14 0 13 -46 13 -71 -1 -11 -5 -17 -14 -14 -18
2 -5 -5 -11 -16 -14 -17 -5 -20 -2 -15 16 3 12 1 29 -4 37 -9 13 -11 13 -20 0
-5 -8 -10 -19 -10 -25 0 -5 4 -3 10 5 12 20 21 9 13 -18 -5 -22 -23 -31 -23
-12 0 6 -11 15 -25 22 -13 6 -22 15 -19 19 3 5 -9 1 -25 -9 -39 -21 -39 -29 0
-37 28 -6 29 -8 12 -20 -10 -8 -22 -10 -28 -5 -6 5 -20 7 -30 6 -11 -2 -25 1
-31 6 -16 12 -5 51 12 44 8 -3 14 -1 14 3 0 12 -29 23 -41 15 -5 -3 -14 -2
-20 2 -8 4 -7 9 2 15 7 4 10 11 6 15 -3 4 -13 1 -22 -6 -9 -7 -18 -10 -22 -6
-3 3 0 6 8 6 17 0 -30 39 -49 40 -6 0 -21 -9 -32 -20 -12 -12 -25 -18 -30 -15
-6 4 -4 13 6 22 11 12 12 18 4 23 -6 4 -12 11 -13 16 -1 5 -9 8 -17 7 -8 -1
-2 4 14 11 22 10 25 14 12 19 -9 4 -16 2 -16 -4 0 -6 -7 -6 -20 1 -11 6 -26 8
-32 4 -7 -4 -8 -3 -4 4 4 7 2 12 -3 12 -6 0 -11 7 -11 16 0 9 -5 12 -12 8 -34
-21 -92 -6 -82 21 5 11 1 12 -19 2 -27 -13 -26 -27 1 -27 10 0 25 -9 34 -19
16 -19 15 -19 -27 -19 -35 0 -44 4 -48 20 -5 16 -9 18 -25 9 -14 -7 -18 -17
-15 -31 3 -11 0 -20 -6 -20 -6 0 -11 5 -11 11 0 5 -4 7 -10 4 -5 -3 -10 -2
-10 4 0 5 5 11 12 13 6 2 12 14 13 25 2 27 -42 51 -51 29 -8 -21 -33 -27 -57
-14 -12 6 -28 12 -37 13 -47 7 -60 17 -54 44 4 20 3 23 -5 11 -15 -21 -14 -36
4 -54 8 -8 12 -17 8 -19 -11 -6 -37 25 -41 48 -4 21 -20 35 -37 34 -5 0 -4 -3
3 -6 23 -9 12 -23 -12 -13 -31 11 -66 2 -59 -16 3 -8 0 -14 -6 -14 -6 0 -11 4
-11 9 0 5 -3 17 -7 27 -5 14 -2 16 23 10 27 -6 28 -5 10 9 -11 8 -14 15 -8 15
7 0 12 5 12 11 0 6 -7 8 -16 5 -8 -3 -12 -2 -9 4 9 15 -5 12 -22 -5 -13 -14
-18 -13 -43 5 -32 23 -54 26 -45 8 4 -7 0 -5 -9 6 -8 10 -19 15 -25 11 -18
-11 -12 7 7 21 16 12 15 13 -6 14 -19 0 -22 4 -17 20 3 11 3 20 -2 20 -4 0
-14 -9 -21 -20 -7 -11 -18 -20 -24 -20 -9 0 -9 3 0 12 17 17 15 38 -4 38 -14
0 -15 -2 -3 -17 12 -15 12 -16 -5 -10 -14 6 -17 4 -12 -8 3 -8 1 -15 -5 -15
-5 0 -12 6 -15 14 -7 17 25 56 45 56 20 0 5 13 -20 17 -14 2 -19 -2 -17 -14 2
-13 -4 -18 -22 -19 -14 -1 -34 -4 -45 -8 -17 -6 -16 -4 5 15 19 17 20 21 6 15
-10 -3 -25 -1 -33 6 -11 9 -16 9 -23 -1 -10 -17 -30 -5 -30 19 0 10 -6 20 -13
23 -19 7 -71 -4 -80 -17 -5 -7 -7 -3 -5 9 3 17 -2 20 -27 18 -25 -3 -35 4 -59
37 -20 27 -33 37 -40 30 -15 -15 -34 -12 -32 6 0 9 -5 19 -12 21 -9 4 -11 -2
-6 -21 4 -17 2 -26 -6 -26 -7 0 -10 6 -7 14 7 18 -18 40 -37 33 -10 -4 -12 0
-8 15 4 17 2 20 -12 15 -10 -4 -19 -7 -22 -7 -2 0 0 -8 3 -17 6 -16 5 -16 -10
-4 -9 7 -17 20 -17 28 0 11 -4 13 -13 6 -6 -5 -18 -8 -24 -7 -7 1 -17 2 -23 3
-5 0 -10 8 -10 16 0 8 -5 15 -11 15 -6 0 -8 -7 -5 -16 3 -8 2 -13 -3 -10 -5 3
-26 -8 -46 -24 -45 -36 -47 -36 -70 -10 -14 16 -26 19 -47 15 -25 -6 -28 -4
-28 19 0 14 -4 26 -10 26 -5 0 -10 -11 -10 -25 0 -16 -6 -25 -16 -25 -8 0 -12
-5 -9 -10 3 -6 3 -10 -2 -11 -4 0 -18 -2 -30 -5 -13 -2 -23 1 -23 7 0 5 -4 8
-9 5 -5 -3 -12 1 -15 10 -4 12 -14 14 -36 9 -20 -4 -30 -3 -30 5 0 7 6 10 14
7 8 -3 22 0 32 8 15 10 16 16 6 27 -12 15 -7 28 10 28 5 0 6 -5 3 -10 -3 -6
-1 -10 5 -10 7 0 10 -7 6 -17 -5 -15 -4 -15 9 1 8 11 15 15 15 8 0 -6 -9 -17
-20 -25 -11 -8 -17 -17 -13 -20 3 -4 12 -2 20 5 11 8 12 7 7 -6 -3 -9 -3 -16
1 -16 10 0 35 27 35 38 0 6 6 13 13 15 7 4 6 6 -4 6 -20 1 -32 38 -13 38 7 0
11 -4 8 -9 -7 -12 10 -10 22 2 13 13 44 2 44 -15 0 -8 16 -19 34 -26 19 -7 33
-16 30 -20 -5 -9 15 -23 23 -16 7 8 -19 77 -30 77 -5 0 -6 -7 -3 -16 5 -14 4
-15 -9 -4 -18 15 -20 44 -2 34 6 -3 -1 5 -18 19 -16 14 -27 28 -24 32 8 7 75
-56 102 -95 17 -24 17 -24 12 -2 -4 12 -2 22 3 22 14 0 33 -26 25 -33 -3 -4
-1 -7 6 -7 9 0 12 9 8 27 -3 14 1 44 9 66 18 51 18 71 0 64 -17 -7 -30 22 -20
46 4 12 1 15 -15 12 -15 -3 -18 0 -14 12 5 12 1 14 -15 8 -16 -5 -22 -2 -22
10 0 10 5 13 13 9 6 -4 3 2 -7 15 -11 12 -22 18 -25 13 -8 -12 -41 -23 -41
-14 0 4 -12 8 -27 7 -20 0 -29 6 -34 25 -4 14 -7 20 -8 15 -1 -12 -41 -15 -41
-4 0 4 -13 -6 -30 -21 -36 -33 -36 -34 -8 -60 12 -11 16 -20 10 -20 -7 0 -12
-8 -12 -17 0 -15 2 -16 10 -3 5 8 12 11 15 8 16 -16 -9 -30 -44 -24 -28 5 -33
4 -21 -4 13 -10 13 -11 0 -7 -8 2 -15 10 -15 18 0 9 -12 14 -32 15 -18 1 -33
-4 -33 -10 0 -6 -5 -4 -10 4 -5 8 -13 15 -17 16 -21 2 -61 24 -66 36 -4 11 -6
11 -6 0 -1 -8 9 -23 22 -34 18 -16 19 -19 4 -14 -10 3 -23 6 -28 6 -5 0 -9 7
-9 15 0 8 -5 15 -10 15 -7 0 -7 6 0 19 6 12 6 22 1 25 -5 3 -12 -5 -15 -19 -4
-14 -11 -25 -17 -25 -6 0 -9 7 -5 15 3 8 1 15 -4 15 -6 0 -10 -4 -10 -8 0 -4
-13 -16 -30 -25 -28 -17 -29 -17 -41 5 -6 13 -8 20 -4 16 13 -12 34 18 28 41
-8 30 -32 27 -28 -4 1 -14 -1 -25 -6 -25 -4 0 -11 -9 -14 -20 -7 -23 -25 -27
-25 -5 0 8 -6 15 -14 15 -23 0 -30 20 -13 38 15 14 17 13 26 -11 6 -15 12 -27
13 -27 2 0 3 18 4 41 1 22 -2 35 -6 29 -4 -7 -19 -12 -32 -12 -21 0 -25 -5
-26 -35 -1 -19 3 -31 8 -28 6 3 10 -1 10 -9 0 -9 -4 -16 -9 -16 -14 0 -32 26
-23 35 4 4 -2 2 -14 -5 -25 -15 -78 -5 -71 13 2 7 11 11 20 11 14 -1 15 2 5
19 l-11 21 -8 -21 c-6 -15 -14 -20 -28 -16 -12 3 -21 10 -21 15 0 5 -6 8 -12
7 -37 -5 -49 1 -43 21 5 14 2 20 -10 20 -8 0 -18 7 -21 15 -8 21 -32 19 -37
-3 -2 -9 -3 -4 -1 11 3 24 1 27 -16 22 -15 -5 -20 -2 -20 11 0 12 -3 14 -13 6
-22 -18 -39 1 -28 30 11 30 4 43 -15 27 -11 -9 -14 -195 -14 -1020 l0 -1009
4720 0 4720 0 0 80 0 80 91 0 c57 0 88 4 84 10 -3 5 0 7 8 4 8 -3 17 2 20 10
4 9 2 16 -4 16 -6 0 -7 5 -4 10 5 8 11 7 20 0 15 -13 35 -6 35 12 0 5 -7 7
-16 4 -10 -4 -14 -1 -12 6 3 7 13 15 23 16 14 3 17 -1 13 -22 -4 -18 -1 -26 8
-26 8 0 14 -4 14 -10 0 -5 9 -10 20 -10 11 0 20 -4 20 -9 0 -5 14 -9 30 -9 22
1 30 6 30 18 0 25 27 33 33 10 3 -12 -1 -21 -12 -23 -9 -3 2 -5 24 -5 22 0 32
2 23 5 -28 7 -21 18 13 20 24 2 30 -1 25 -12 -6 -17 11 -19 48 -5 17 6 26 6
26 0 0 -6 3 -9 7 -9 5 1 23 1 41 0 l32 -1 0 -80 0 -80 80 0 80 0 0 76 c0 62
-4 80 -18 93 -10 9 -21 24 -25 33 -9 25 -27 22 -22 -3 4 -18 2 -19 -11 -8 -13
10 -17 10 -24 0 -5 -9 -10 -10 -14 -2 -4 6 -20 11 -37 11 -16 0 -29 4 -29 10
0 5 -7 7 -15 4 -8 -4 -15 -1 -15 6 0 7 -7 10 -15 6 -9 -3 -15 0 -15 10 0 12
-14 14 -84 10 -60 -3 -86 -1 -90 7 -3 8 -5 8 -5 -1 -1 -10 -6 -10 -23 2 -12 9
-30 16 -40 16 -10 0 -18 5 -18 10 0 6 -11 10 -25 10 -13 0 -29 8 -34 18 -6 9
-11 11 -11 5 0 -7 -5 -13 -11 -13 -6 0 -9 7 -5 15 6 17 -19 21 -29 5 -4 -6
-15 -8 -26 -5 -22 7 -61 -3 -55 -14 3 -4 19 -6 36 -3 26 4 29 2 23 -14 -4 -11
-8 -13 -11 -6 -5 17 -29 15 -36 -3 -3 -9 -12 -12 -23 -8 -10 3 -15 3 -11 -2 4
-4 0 -14 -10 -21 -21 -15 -61 1 -43 19 7 7 5 14 -7 23 -22 18 -2 33 35 26 19
-4 24 -1 21 9 -3 9 -19 14 -40 14 -20 0 -34 4 -31 8 2 4 -6 16 -19 26 -15 13
-25 16 -30 8 -4 -7 -11 -7 -22 3 -14 11 -16 10 -10 -4 4 -12 1 -16 -14 -16
-12 0 -24 5 -27 10 -10 17 -28 11 -21 -7 7 -18 -9 -33 -37 -33 -13 0 -17 5
-12 19 4 15 1 18 -18 14 -18 -4 -23 0 -24 17 -1 16 2 20 14 16 9 -4 20 -1 25
6 13 22 9 36 -9 33 -10 -2 -21 -4 -25 -4 -5 -1 -8 -8 -8 -17 0 -8 -4 -12 -10
-9 -6 4 -7 -1 -3 -12 6 -16 5 -16 -11 -4 -15 13 -16 15 -2 23 20 11 21 29 1
22 -8 -4 -15 -2 -15 4 0 6 5 12 11 14 15 5 3 45 -14 45 -6 0 -21 3 -32 6 -16
6 -21 3 -21 -14 0 -18 5 -20 33 -14 20 4 33 2 33 -5 0 -5 -15 -10 -33 -10 -18
0 -38 -5 -44 -11 -14 -14 -24 2 -25 41 -1 17 -5 30 -10 30 -4 0 -8 -3 -8 -8 0
-4 -13 -13 -30 -20 -33 -15 -57 -8 -41 12 8 9 3 12 -19 12 -16 0 -27 -3 -24
-8 3 -4 -4 -8 -16 -8 -17 0 -20 4 -15 20 4 13 2 20 -7 21 -7 1 -2 4 12 8 25 7
25 7 4 19 -31 17 -64 4 -64 -24 0 -34 -19 -30 -27 6 -3 17 -10 33 -15 36 -6 4
-7 -2 -3 -15 7 -22 6 -22 -14 -4 -12 10 -17 19 -11 21 5 2 10 15 10 29 0 20
-4 24 -20 20 -11 -3 -20 -1 -20 4 0 6 -6 4 -14 -3 -11 -11 -11 -15 3 -25 14
-11 14 -12 -6 -13 -12 0 -23 -5 -25 -12 -6 -16 -38 -2 -38 16 0 8 9 17 19 21
16 5 18 11 11 34 -8 29 2 38 44 45 5 0 11 8 13 16 4 13 3 13 -6 0 -9 -12 -11
-12 -11 -1 0 11 -5 9 -22 -5 -20 -18 -21 -18 -15 -1 4 11 3 16 -3 12 -6 -3
-37 1 -69 9 -62 16 -85 15 -121 -4 -12 -6 -24 -9 -26 -7 -7 7 -59 -42 -59 -55
0 -12 -44 -37 -65 -37 -13 -1 -13 0 0 9 19 13 8 13 -25 0 -19 -7 -27 -6 -31 4
-6 16 -54 9 -54 -9 0 -8 -9 -10 -24 -8 -16 3 -23 10 -19 19 3 9 -2 14 -16 14
-15 0 -21 -5 -19 -18 2 -9 -3 -16 -9 -14 -8 1 -13 -8 -13 -21 0 -16 -6 -23
-19 -23 -11 0 -17 6 -14 12 3 8 -2 11 -16 7 -12 -3 -21 -11 -21 -17 0 -10 -45
-12 -90 -3 -52 10 -84 62 -75 118 5 27 4 39 -3 35 -6 -4 -8 2 -5 14 3 11 -1
28 -8 37 -10 12 -10 14 -1 9 7 -4 12 -1 12 8 0 9 5 16 10 16 6 0 10 14 10 30
0 19 5 30 14 30 25 0 46 -12 46 -26 0 -8 6 -14 13 -14 7 0 18 -9 25 -20 7 -11
19 -20 28 -20 9 0 12 -5 8 -11 -16 -26 53 -33 81 -8 15 15 27 10 21 -8 -5 -16
-4 -16 6 -3 14 17 27 19 46 7 21 -14 14 -29 -10 -21 -20 6 -21 5 -9 -10 7 -9
21 -16 30 -16 9 0 27 -8 41 -17 22 -16 23 -16 17 1 -5 13 -3 17 6 13 8 -3 14
1 14 8 0 8 -7 11 -15 7 -12 -4 -14 -1 -9 12 4 10 0 27 -8 39 -11 15 -12 24 -3
34 8 10 8 17 0 25 -9 9 -12 9 -12 0 0 -18 -30 -11 -53 12 -14 14 -21 15 -27 6
-5 -8 -10 -8 -14 -2 -3 5 2 13 11 16 14 6 13 10 -7 31 -24 25 -42 27 -22 2 8
-10 5 -13 -14 -15 -13 -1 -24 3 -24 10 0 6 -3 8 -6 5 -4 -4 -19 3 -35 13 -28
21 -55 82 -44 100 3 5 1 10 -5 10 -6 0 -9 4 -5 9 7 12 -24 43 -36 35 -5 -3 -8
0 -7 6 2 7 -6 17 -17 23 -28 17 -35 29 -29 53 4 14 0 23 -11 28 -10 3 -15 12
-11 21 3 8 1 15 -4 15 -6 0 -10 -5 -10 -10 0 -6 -8 -5 -20 2 -11 7 -20 19 -20
26 0 7 4 11 9 8 5 -4 5 10 0 32 -12 51 -11 64 4 56 6 -3 -4 8 -23 24 -19 17
-37 27 -40 21 -4 -6 -19 -3 -38 7 -32 15 -43 34 -21 34 8 0 8 5 -1 15 -8 9
-21 13 -35 9 -20 -5 -23 -3 -18 15 3 14 0 23 -11 27 -9 3 -14 9 -11 14 2 4 -6
5 -19 3 -17 -4 -27 1 -35 16 -7 12 -20 21 -31 21 -39 0 -50 11 -50 52 0 35 6
46 42 79 24 22 49 39 55 39 7 0 13 5 13 10 0 6 6 10 13 10 8 0 22 9 31 19 10
11 24 17 32 14 10 -4 12 0 8 11 -6 16 50 91 68 91 5 0 14 11 21 25 7 14 23 26
35 28 26 4 27 10 6 33 -10 11 -12 19 -5 24 6 3 11 1 11 -4 0 -6 5 -11 11 -11
6 0 8 7 5 16 -5 12 -1 14 17 9 18 -6 20 -5 10 6 -7 7 -13 17 -13 22 0 4 6 5
13 1 10 -6 10 -4 0 7 -19 19 -16 40 4 32 11 -4 14 -3 9 5 -11 19 4 59 27 70
21 10 21 11 2 12 -16 1 -12 5 14 19 33 17 33 19 13 25 -28 9 -29 26 -2 26 15
0 20 7 20 29 0 20 8 34 25 45 27 18 33 41 13 49 -10 4 -10 7 0 18 6 7 12 19
12 27 0 8 12 23 26 34 20 16 23 23 12 29 -10 7 -10 9 0 9 6 0 12 6 12 14 0 8
6 17 13 19 7 4 8 6 1 6 -13 1 23 81 36 81 4 0 10 15 14 32 6 29 32 94 57 140
5 10 9 23 9 30 0 7 20 53 45 103 25 49 45 97 45 107 0 9 5 20 10 23 5 3 10 19
10 34 0 31 14 69 70 199 13 28 27 52 31 52 4 0 7 8 7 18 -1 24 11 83 20 96 4
6 7 30 8 53 1 24 8 53 16 66 9 12 19 43 22 67 4 25 27 112 52 193 24 82 42
152 40 156 -3 4 3 19 12 32 20 29 41 101 42 147 0 19 6 35 15 38 8 4 12 10 9
15 -3 5 -2 9 3 9 4 0 8 39 8 86 0 47 3 88 8 91 4 2 7 15 7 29 0 14 -4 23 -9
19 -6 -3 -16 5 -22 17 -17 31 -49 150 -43 160 3 4 -2 22 -10 40 -24 52 -76
247 -83 310 -3 33 -10 55 -16 51 -5 -3 -13 1 -18 8 -12 20 -11 31 2 23 7 -4
10 -2 8 5 -3 7 -9 11 -14 9 -5 -2 -15 37 -22 86 -7 48 -16 93 -21 100 -16 20
-21 73 -9 85 9 10 8 15 -4 24 -15 11 -29 70 -29 122 0 11 -7 37 -16 57 -14 30
-14 41 -5 52 10 12 10 23 2 48 -11 35 -18 98 -25 258 -3 52 -5 100 -5 107 -1
18 -52 62 -66 57 -6 -3 -27 10 -47 28 -19 18 -59 49 -87 68 -29 19 -63 43 -77
53 -102 77 -329 216 -360 222 -50 9 -90 30 -124 65 -15 15 -38 35 -52 44 -15
10 -29 28 -32 42 -4 14 -22 48 -41 76 -19 28 -35 55 -35 60 0 6 -44 61 -97
124 -54 63 -120 140 -147 172 -120 141 -248 258 -325 300 -49 25 -71 28 -90
10 -11 -10 -13 -10 -7 0 5 8 -1 12 -21 13 -15 0 -40 2 -56 4 -20 3 -31 -2 -44
-21 -11 -18 -21 -23 -36 -18 -20 6 -20 6 -3 -12 17 -16 19 -17 30 -1 14 18 52
13 60 -9 7 -18 -30 -37 -60 -31 -13 2 -28 -1 -34 -8 -6 -7 -30 -13 -55 -13
-24 -1 -68 -8 -97 -16 -61 -17 -168 -21 -168 -6 0 6 4 10 9 10 5 0 29 20 53
44 23 24 50 42 60 41 9 -2 19 6 23 19 4 13 8 16 12 9 7 -19 23 -15 16 4 -4 9
-2 14 3 10 6 -4 9 6 6 24 -3 22 -9 29 -27 29 -37 0 -85 12 -85 21 0 5 22 9 49
9 28 0 53 5 56 10 4 6 -5 10 -19 10 -14 0 -26 5 -26 10 0 6 5 10 10 10 6 0 10
9 10 20 0 21 40 37 61 25 6 -4 29 -9 51 -11 42 -3 62 -14 40 -21 -10 -4 -10
-8 -1 -19 16 -19 33 -18 25 2 -5 12 -2 15 11 9 10 -3 41 -11 68 -17 28 -6 60
-15 72 -21 40 -18 35 0 -9 34 -24 19 -54 47 -67 62 -13 16 -41 35 -62 44 -22
8 -39 21 -39 28 0 11 -25 23 -65 30 -5 1 -12 3 -15 4 -3 2 -15 4 -28 5 -12 2
-29 11 -38 22 -8 10 -13 13 -9 7 9 -18 -6 -16 -32 5 -12 9 -24 30 -27 46 -3
17 -13 34 -21 39 -28 15 -105 97 -105 111 0 7 -7 19 -15 26 -8 7 -14 18 -13
24 3 19 -13 57 -23 51 -5 -4 -12 2 -16 12 -4 10 -9 20 -12 23 -3 3 -14 15 -25
27 -18 22 -18 22 20 38 22 9 48 13 59 10 61 -19 95 -26 141 -30 28 -3 69 -12
90 -22 21 -9 46 -18 54 -19 86 -16 128 -48 150 -114 13 -41 49 -75 70 -68 6 2
5 13 -4 29 -12 23 -11 27 5 37 11 7 18 22 17 35 -4 56 50 141 71 110 3 -6 15
-15 26 -21 32 -17 31 -110 -2 -180 -18 -39 -24 -63 -20 -88 6 -34 2 -38 -33
-35 -12 1 -11 -1 2 -12 20 -16 23 -53 8 -77 -9 -13 -11 -13 -20 0 -5 8 -10 11
-10 5 0 -5 -11 7 -25 28 -14 20 -30 37 -35 37 -13 0 -13 -27 0 -35 12 -7 2
-36 -18 -52 -14 -12 -14 -13 1 -13 25 0 56 -35 51 -57 -4 -15 7 -26 48 -49 29
-16 61 -32 70 -36 10 -4 18 -12 18 -17 0 -5 10 -13 23 -17 12 -4 34 -21 50
-38 52 -59 182 -176 196 -176 10 0 40 59 50 99 11 39 28 36 36 -7 4 -25 1 -54
-9 -83 -18 -52 -21 -90 -5 -87 6 2 16 -6 22 -17 19 -31 98 -137 126 -169 14
-15 50 -44 80 -63 74 -48 107 -85 165 -186 58 -101 99 -136 289 -238 67 -36
181 -98 253 -137 72 -40 143 -72 159 -72 40 0 79 27 91 63 6 18 38 111 72 207
33 96 77 238 96 315 50 199 113 464 120 505 12 61 29 125 38 136 4 6 5 19 2
29 -4 10 -1 20 6 25 19 12 20 80 1 80 -22 0 15 24 64 41 49 17 81 46 99 90 11
26 11 35 2 44 -7 5 -23 35 -35 65 -12 30 -26 64 -31 75 -5 11 -23 54 -41 95
-17 41 -42 91 -56 111 -13 19 -27 49 -32 65 -5 16 -21 70 -37 119 -18 60 -26
110 -26 151 1 59 0 63 -37 95 -74 67 -173 119 -262 138 -47 10 -186 52 -229
69 -8 3 -33 10 -54 16 -22 6 -42 17 -44 25 -3 10 0 12 11 8 8 -3 67 -7 131 -8
141 -3 259 -21 312 -47 59 -30 67 -31 97 -10 l28 20 44 -48 c34 -36 44 -53 39
-68 -6 -21 -6 -21 10 -1 8 11 16 23 16 27 0 3 24 44 53 90 52 83 52 83 51 163
-1 62 -8 99 -33 168 -28 80 -38 95 -98 153 -37 36 -81 71 -100 79 -35 15 -163
139 -163 158 0 7 -11 33 -25 59 -14 26 -25 61 -25 78 0 42 -53 147 -96 189
-19 19 -32 39 -29 45 3 6 8 19 11 29 5 12 12 16 23 11 9 -4 44 -10 79 -14 70
-8 77 -12 77 -43 0 -18 7 -23 42 -28 23 -3 59 -18 82 -33 30 -21 47 -26 68
-22 22 5 34 1 48 -15 47 -50 101 -99 109 -99 18 0 55 -42 49 -56 -3 -8 2 -25
11 -39 23 -35 20 -68 -14 -132 -38 -70 -41 -163 -10 -243 11 -28 20 -64 20
-81 0 -36 23 -94 42 -105 7 -5 21 -21 31 -36 22 -35 32 -35 82 3 33 25 41 27
43 14 5 -21 -26 -55 -48 -55 -11 0 -20 -10 -24 -25 -4 -14 -10 -25 -15 -25
-16 0 -70 -59 -97 -107 -15 -26 -38 -61 -50 -78 -12 -16 -32 -50 -44 -74 -20
-40 -21 -48 -10 -115 17 -98 55 -225 88 -294 61 -127 184 -352 192 -352 5 0
21 10 37 23 32 26 76 55 113 75 13 7 43 28 65 47 38 31 42 37 44 87 1 29 4 61
7 70 7 24 -38 123 -103 229 -30 48 -55 95 -58 105 -2 11 -13 40 -25 67 -15 34
-27 47 -41 47 -18 0 -20 4 -14 30 6 29 -14 67 -29 53 -3 -4 -6 -1 -6 6 0 15
40 50 57 51 7 0 18 -9 25 -20 7 -11 16 -20 20 -20 5 0 3 9 -4 20 -16 24 -6 34
26 26 29 -7 95 -91 118 -151 9 -22 28 -69 43 -105 15 -36 43 -103 62 -150 51
-127 75 -180 88 -190 16 -14 325 175 488 299 37 27 97 64 135 80 50 22 68 35
70 51 6 39 -16 48 -42 19 -24 -28 -34 -27 -52 5 -5 11 -21 20 -34 21 -13 1
-33 14 -45 28 -11 15 -26 27 -33 27 -16 0 -52 59 -52 86 0 12 -9 42 -20 67
-11 25 -20 58 -19 74 1 15 -2 66 -6 112 l-8 83 43 -27 c24 -15 52 -36 63 -45
10 -10 25 -16 33 -13 9 3 14 -2 14 -16 0 -14 11 -28 30 -39 17 -9 35 -31 40
-48 14 -41 48 -73 59 -56 10 17 20 5 51 -63 23 -48 36 -65 53 -65 4 0 7 347 7
770 l0 770 -5120 0 -5120 0 0 -3944z m9660 3252 c0 -7 -13 -25 -29 -41 -17
-17 -38 -58 -55 -110 -16 -45 -46 -119 -68 -165 -33 -70 -46 -88 -86 -113 -26
-16 -78 -39 -116 -51 -38 -11 -76 -28 -86 -38 -11 -11 -35 -17 -69 -19 -29 -1
-62 -6 -72 -12 -22 -11 -22 -11 -19 66 1 30 11 68 25 95 13 25 30 66 37 92 9
34 18 48 32 50 11 2 31 19 44 38 19 29 31 36 72 42 26 4 79 23 118 43 38 19
80 39 93 44 13 5 56 27 94 50 76 44 85 47 85 29z m-4939 -388 c29 -1 57 -36
55 -67 -1 -22 2 -29 11 -26 16 6 17 -13 2 -23 -8 -5 -6 -10 5 -16 13 -7 14
-13 6 -23 -7 -8 -9 -19 -5 -25 3 -5 1 -10 -4 -10 -6 0 -11 5 -11 10 0 6 -5 10
-11 10 -8 0 -8 -4 1 -15 6 -8 9 -19 6 -24 -4 -6 2 -15 13 -20 16 -9 18 -8 14
9 -3 11 -1 20 4 20 5 0 9 -10 8 -22 -3 -29 12 -59 27 -55 7 1 13 -4 14 -10 1
-7 3 -15 4 -18 1 -3 3 -11 4 -17 1 -7 11 -12 23 -10 14 2 26 -5 33 -18 7 -12
18 -19 25 -16 8 3 17 1 20 -3 3 -5 -2 -11 -10 -15 -21 -8 -19 -20 7 -31 13 -6
25 -19 27 -30 2 -11 12 -28 22 -38 10 -10 19 -24 19 -32 0 -8 4 -15 8 -15 4 0
16 -15 26 -32 11 -18 28 -43 39 -55 18 -20 19 -23 3 -23 -36 0 -27 -30 23 -80
59 -59 64 -88 27 -143 -21 -31 -24 -44 -21 -113 2 -44 6 -90 9 -104 8 -33 -33
-116 -57 -114 -9 1 -17 -3 -17 -8 0 -6 9 -8 21 -5 15 4 19 2 15 -10 -3 -8 -6
-19 -6 -23 0 -5 -9 -7 -20 -5 -26 5 -52 -4 -44 -16 3 -5 19 -9 35 -9 19 0 31
-6 35 -17 3 -10 10 -26 15 -36 7 -13 6 -23 -3 -34 -7 -9 -12 -24 -10 -34 2 -9
-2 -20 -8 -24 -5 -3 -10 -1 -10 4 0 6 -10 9 -22 7 -17 -2 -23 -10 -23 -29 -1
-15 2 -27 6 -27 4 0 2 -11 -4 -25 -16 -33 -93 -62 -81 -30 4 8 1 15 -5 15 -6
0 -11 -10 -11 -23 0 -20 5 -24 30 -24 35 0 50 -11 31 -23 -8 -4 -11 -14 -8
-22 3 -8 -4 -20 -16 -28 -28 -18 -56 -20 -50 -5 3 8 -4 11 -21 8 -28 -6 -40
-40 -31 -90 5 -32 -6 -48 -39 -54 -11 -2 -20 -12 -22 -21 -1 -11 3 -15 12 -11
22 8 16 -8 -11 -32 -15 -12 -27 -32 -28 -44 -1 -12 -9 -27 -18 -32 -15 -8 -10
-16 34 -58 l52 -50 -2 -92 c-1 -100 -10 -118 -50 -92 -20 14 -23 14 -29 0 -3
-9 -12 -13 -20 -10 -8 3 -14 0 -14 -6 0 -17 -14 -13 -40 9 -13 11 -27 21 -32
21 -4 1 -12 2 -16 3 -5 0 -21 15 -35 31 -26 29 -26 29 -27 7 0 -24 -21 -52
-39 -52 -5 0 -21 14 -35 32 -24 31 -25 32 -45 14 -11 -10 -28 -16 -38 -14 -15
3 -19 15 -21 68 -4 86 1 101 46 135 27 20 38 35 34 47 -3 12 -10 17 -22 13
-13 -4 -20 4 -29 35 -6 22 -16 40 -22 40 -6 0 -7 5 -4 11 4 6 -2 20 -12 32
-11 12 -28 51 -39 87 -10 36 -30 78 -44 93 -14 16 -25 32 -26 35 -3 22 -25 62
-35 62 -6 0 -9 6 -6 13 3 8 -8 26 -24 41 -32 30 -37 54 -14 62 21 9 19 24 -4
24 -10 0 -21 9 -24 19 -6 24 0 31 25 31 22 0 24 16 2 24 -10 4 -13 13 -9 25 3
12 -1 31 -10 45 -9 14 -14 30 -10 36 4 6 1 9 -6 8 -6 -2 -23 18 -37 43 l-25
47 29 27 c26 25 27 27 7 21 -14 -5 -23 -3 -23 3 0 6 7 11 15 11 8 0 15 6 15
13 0 6 7 25 15 41 10 19 12 33 5 45 -9 15 -9 14 -10 -1 0 -10 -4 -18 -9 -18
-15 0 -19 23 -9 43 7 13 5 24 -6 36 -9 10 -16 23 -16 29 0 7 -4 12 -9 12 -5 0
0 25 12 55 11 30 24 55 28 55 5 0 9 7 9 16 0 12 9 15 40 12 22 -1 40 0 40 5 1
40 1 41 -20 22 -20 -18 -21 -18 -35 1 -20 26 -18 45 4 51 24 6 36 33 15 33 -9
0 -14 7 -12 17 5 25 22 26 33 1 14 -31 33 -33 33 -4 0 15 -5 23 -13 20 -7 -3
-15 1 -18 10 -8 20 19 28 33 11 14 -17 30 -11 30 11 0 8 -4 13 -8 10 -5 -3
-16 4 -25 14 -12 14 -14 26 -7 49 4 16 6 32 2 35 -3 3 2 6 12 6 9 0 14 5 11
10 -7 11 7 27 47 53 31 19 42 22 33 7 -3 -5 0 -10 8 -10 8 0 17 7 21 15 3 8 1
15 -4 15 -13 0 18 55 32 56 7 1 21 2 31 3 36 2 15 21 -23 21 l-41 0 3 48 c2
26 10 53 18 60 13 12 13 13 -2 9 -30 -10 -29 6 2 35 35 31 45 35 37 14 -3 -8
2 -16 14 -19 24 -6 36 17 20 37 -17 21 16 30 36 10 15 -14 18 -13 40 15 21 27
28 30 68 26 30 -2 45 0 45 8 0 7 7 4 14 -5 7 -10 19 -18 27 -18z m119 -151 c0
-6 -4 -7 -10 -4 -5 3 -10 11 -10 16 0 6 5 7 10 4 6 -3 10 -11 10 -16z m0 -40
c0 -6 -4 -7 -10 -4 -5 3 -10 11 -10 16 0 6 5 7 10 4 6 -3 10 -11 10 -16z m40
-11 c-1 -7 -7 -24 -15 -38 -15 -26 -19 -12 -9 28 7 23 24 31 24 10z m35 -108
c3 -5 -1 -10 -9 -10 -9 0 -16 5 -16 10 0 6 4 10 9 10 6 0 13 -4 16 -10z m89
-106 c3 -8 2 -12 -4 -9 -6 3 -10 10 -10 16 0 14 7 11 14 -7z m-827 -116 c-3
-8 -6 -5 -6 6 -1 11 2 17 5 13 3 -3 4 -12 1 -19z m3583 -48 c0 -5 6 -10 14
-10 9 0 14 -9 13 -21 l-1 -21 -18 22 c-10 12 -22 19 -28 15 -11 -7 -14 8 -3
18 10 10 23 8 23 -3z m137 -90 c18 -16 39 -30 45 -30 9 0 48 -29 102 -77 11
-9 39 -27 62 -39 58 -31 106 -75 99 -91 -2 -8 0 -11 5 -8 14 9 12 -8 -4 -30
-13 -18 -14 -18 -20 3 -6 17 -11 20 -25 13 -14 -8 -27 -1 -64 37 -26 26 -47
53 -47 60 0 6 -7 9 -15 5 -13 -5 -13 -8 5 -20 23 -16 26 -38 6 -46 -10 -4 -18
4 -25 21 -5 15 -10 21 -10 14 -1 -7 -6 -10 -11 -7 -6 4 -7 11 -4 17 5 7 2 8
-5 3 -12 -7 -51 25 -51 41 0 4 -7 16 -16 25 -9 10 -16 30 -16 44 0 16 -9 30
-22 37 -19 10 -20 10 -7 -6 8 -9 11 -19 8 -23 -4 -3 -14 8 -24 26 -10 17 -23
31 -28 31 -6 0 -16 10 -24 21 -12 21 -12 22 19 15 18 -3 48 -19 67 -36z
m-3759 -69 c3 -8 -1 -12 -9 -9 -7 2 -15 10 -17 17 -3 8 1 12 9 9 7 -2 15 -10
17 -17z m3972 -175 c0 -3 -4 -8 -10 -11 -5 -3 -10 -1 -10 4 0 6 5 11 10 11 6
0 10 -2 10 -4z m20 -30 c0 -3 -4 -8 -10 -11 -5 -3 -10 -1 -10 4 0 6 5 11 10
11 6 0 10 -2 10 -4z m150 -26 c0 -6 9 -10 20 -10 13 0 24 -10 30 -26 12 -30
13 -44 2 -28 -4 6 -20 14 -35 18 -26 6 -27 5 -17 -13 10 -20 10 -20 -19 -3
-29 16 -29 17 -9 25 19 7 20 9 4 25 -23 27 -21 46 4 32 11 -6 20 -15 20 -20z
m-130 0 c0 -5 -4 -10 -10 -10 -5 0 -10 5 -10 10 0 6 5 10 10 10 6 0 10 -4 10
-10z m11 -33 c-13 -13 -15 1 -4 30 7 17 8 17 11 -1 2 -10 -1 -23 -7 -29z m72
-58 c36 -32 49 -37 41 -14 -4 8 -12 15 -20 15 -8 0 -14 5 -14 10 0 13 -5 15
75 -25 39 -19 75 -35 81 -35 20 0 47 -51 35 -63 -8 -8 -19 -4 -38 14 -35 32
-97 51 -112 36 -8 -8 -15 -7 -23 2 -10 11 -10 13 0 7 6 -4 12 -2 12 3 0 6 -5
11 -11 11 -6 0 -26 14 -44 31 -24 23 -31 37 -27 53 6 19 7 19 10 3 2 -11 18
-32 35 -48z m-4053 -221 c0 -5 -4 -8 -10 -8 -5 0 -10 10 -10 23 0 18 2 19 10
7 5 -8 10 -18 10 -22z m3324 -259 c-24 -34 -39 -68 -42 -96 -4 -38 -11 -48
-56 -80 -28 -21 -59 -48 -69 -61 -24 -29 -69 -52 -102 -52 -20 0 -25 5 -25 24
0 35 -16 40 -55 18 -30 -18 -35 -19 -46 -5 -10 11 -10 18 -1 31 6 10 20 35 31
57 11 22 45 65 77 95 126 122 127 123 152 98 8 -8 18 -9 34 -1 13 5 36 9 52 8
19 -1 37 7 54 24 43 42 40 2 -4 -60z m-3234 -23 c0 -2 -7 -7 -16 -10 -8 -3
-12 -2 -9 4 6 10 25 14 25 6z m2495 -316 c-3 -5 -12 -10 -18 -10 -7 0 -6 4 3
10 19 12 23 12 15 0z m-2025 -392 c19 -8 43 -18 53 -21 9 -4 17 -15 17 -26 0
-27 37 -42 188 -80 136 -35 270 -93 377 -164 120 -79 300 -254 343 -332 9 -16
28 -50 43 -75 15 -25 30 -56 33 -70 6 -23 6 -23 -7 -7 -20 24 -23 22 -23 -19
0 -41 -12 -51 -59 -49 -40 1 -39 1 -23 -28 10 -19 9 -21 -4 -9 -12 9 -18 10
-23 2 -4 -6 -16 -8 -28 -4 -19 6 -20 5 -9 -9 7 -8 11 -21 10 -28 -5 -22 33
-23 39 -1 4 18 7 18 34 -11 16 -16 29 -38 29 -48 0 -11 6 -19 13 -19 8 0 8 -3
1 -8 -6 -4 -13 -15 -17 -24 -3 -10 -13 -18 -21 -18 -13 0 -13 -4 2 -29 16 -28
34 -33 31 -8 -3 28 2 48 11 42 6 -3 10 -1 10 4 0 22 18 10 30 -20 9 -21 15
-26 21 -18 4 7 5 17 3 21 -3 4 0 8 5 8 6 0 11 -3 12 -7 0 -5 3 -17 5 -28 15
-63 15 -83 0 -88 -9 -4 -16 -11 -16 -17 0 -6 5 -8 11 -5 6 4 5 -2 -3 -14 -7
-12 -18 -21 -25 -21 -16 0 -16 -15 -1 -43 16 -29 21 -60 8 -52 -5 3 -10 2 -10
-4 0 -5 7 -14 16 -19 21 -12 28 -63 8 -55 -12 5 -19 -13 -15 -39 0 -4 -6 -5
-14 -2 -8 3 -13 11 -12 16 1 6 -3 12 -9 15 -7 2 -12 -2 -11 -9 2 -47 -3 -53
-38 -53 -19 0 -35 3 -35 8 0 18 -18 4 -24 -18 -4 -14 -11 -23 -16 -20 -6 3
-10 1 -10 -4 0 -6 -9 -11 -20 -11 -11 0 -20 -4 -20 -9 0 -4 -8 -8 -17 -8 -36
0 -43 -3 -43 -18 0 -9 -9 -15 -22 -15 -26 0 -107 -24 -136 -39 -25 -13 -148
-27 -177 -20 -6 1 -39 -6 -74 -16 -49 -15 -68 -26 -84 -50 -12 -18 -43 -42
-76 -57 -61 -29 -182 -105 -219 -138 -39 -33 -80 -26 -134 24 -26 24 -72 58
-102 75 -41 24 -53 36 -49 50 5 21 -29 35 -46 18 -8 -8 -11 -7 -12 4 -3 56 -6
71 -15 77 -14 9 -24 61 -13 68 5 3 9 0 9 -5 0 -16 37 -13 43 3 7 18 -40 31
-58 16 -15 -12 -28 0 -17 16 9 13 55 13 65 0 5 -6 7 1 4 17 -3 22 -2 25 9 16
19 -16 18 -4 -1 15 -18 18 -10 70 10 62 9 -3 9 3 -2 25 -8 16 -20 29 -26 30
-7 1 -1 4 13 8 24 7 34 32 21 56 -13 25 -8 80 7 71 8 -5 7 67 -1 99 -3 11 1
37 8 58 7 20 9 34 5 32 -5 -3 -6 4 -3 16 3 12 11 18 19 15 16 -6 17 -4 8 18
-3 9 -10 13 -15 10 -5 -3 -9 2 -9 11 0 9 5 13 10 10 6 -3 10 1 10 9 0 9 -5 15
-12 13 -6 -1 -13 7 -15 18 -3 14 -1 16 5 7 10 -14 54 -11 59 5 2 6 -7 8 -22 6
-15 -3 -25 -1 -25 6 0 7 4 10 9 6 6 -3 9 3 8 14 0 11 -4 18 -8 15 -4 -2 -7 4
-6 15 1 16 7 19 36 16 19 -2 29 0 22 4 -6 4 -9 14 -6 23 3 8 -2 21 -11 29 -13
11 -18 11 -21 2 -3 -7 -9 -13 -13 -13 -5 0 -3 18 5 40 14 40 10 104 -8 127 -5
7 -7 20 -3 28 4 12 0 15 -17 13 -12 -2 -21 2 -20 8 1 6 -5 11 -13 11 -7 0 -14
-4 -14 -9 0 -4 -11 -8 -24 -8 -31 0 -56 -34 -57 -80 -1 -19 -3 -27 -6 -17 -6
21 -10 21 -30 1 -13 -13 -17 -13 -24 -2 -7 10 -9 10 -9 -1 0 -11 -4 -9 -15 5
-11 14 -14 15 -15 4 0 -13 -2 -13 -14 0 -12 12 -13 22 -3 53 7 20 16 37 20 37
5 0 5 5 2 10 -3 6 -17 10 -31 10 -26 0 -27 2 -18 49 4 17 10 28 15 26 4 -3 10
-1 14 5 4 6 9 8 13 6 4 -2 8 7 8 20 1 15 -4 24 -12 24 -8 0 -19 12 -24 26 -13
33 4 58 34 50 20 -5 20 -4 2 9 -16 12 -22 12 -44 -3 -25 -16 -25 -16 -13 6 10
19 9 21 -5 15 -15 -5 -16 -2 -11 25 6 30 6 31 -12 14 -10 -9 -16 -20 -14 -24
2 -4 -6 -5 -19 -3 -12 3 -25 0 -29 -6 -4 -7 -12 -5 -22 5 -15 15 -17 15 -27
-4 -6 -11 -15 -18 -20 -15 -5 3 -11 1 -15 -5 -3 -5 -1 -10 4 -10 6 0 11 -4 11
-10 0 -19 -19 -10 -26 12 -7 22 -7 22 -28 -5 -12 -14 -30 -28 -41 -29 -29 -5
-46 -18 -39 -30 4 -6 1 -9 -7 -6 -7 2 -16 15 -19 29 -4 17 -8 20 -14 11 -4 -7
-14 -11 -22 -8 -8 3 -14 1 -14 -4 0 -6 5 -10 12 -10 6 0 4 -7 -5 -18 -11 -12
-16 -30 -13 -50 4 -35 3 -36 -24 -22 -14 7 -17 6 -16 -8 0 -9 5 -20 10 -23 5
-4 -3 -15 -18 -24 -14 -10 -26 -23 -26 -31 0 -7 -5 -16 -12 -20 -8 -5 -9 -2
-5 9 3 10 2 17 -3 17 -5 0 -7 9 -5 20 5 26 -15 26 -22 1 -3 -11 -11 -17 -18
-14 -8 2 -11 12 -8 21 4 9 -3 6 -14 -8 -17 -19 -19 -28 -10 -39 10 -11 8 -13
-10 -7 -12 4 -24 2 -28 -4 -3 -5 -11 -10 -17 -10 -6 0 -4 8 5 18 10 10 17 27
17 37 0 10 3 15 7 12 3 -4 14 0 24 9 10 9 25 14 34 11 11 -5 15 0 15 17 0 13
11 34 25 47 34 32 34 55 0 33 -15 -10 -25 -12 -25 -5 0 6 7 11 16 11 9 0 12 5
8 12 -5 8 2 9 24 5 32 -7 38 1 33 41 -1 6 5 12 13 12 8 0 16 -6 19 -12 2 -7 8
-1 12 13 5 20 11 25 26 22 10 -3 19 -1 19 4 0 5 19 16 41 23 34 11 38 15 23
21 -18 7 -17 8 4 15 12 3 22 13 22 20 0 8 7 14 15 14 8 0 15 5 15 10 0 6 6 10
14 10 8 0 17 6 19 13 4 9 8 8 16 -3 9 -13 11 -13 11 2 0 18 35 31 115 44 22 3
58 12 81 20 22 7 49 15 60 17 10 1 25 7 33 11 10 6 12 5 7 -3 -4 -6 -2 -19 5
-28 13 -14 14 -62 5 -203 -6 -107 29 -185 89 -195 28 -5 32 -2 58 50 15 31 26
59 23 63 -3 5 -1 34 3 65 5 34 4 60 -2 66 -7 7 -6 44 1 108 7 63 8 101 2 107
-13 13 -13 43 1 52 6 3 43 10 82 14 49 6 73 13 79 25 5 9 13 15 16 13 4 -2 23
-11 42 -20z m-663 -464 c-3 -3 -12 -4 -19 -1 -8 3 -5 6 6 6 11 1 17 -2 13 -5z
m-257 -95 c0 -5 -7 -9 -15 -9 -9 0 -12 6 -9 15 6 15 24 11 24 -6z m400 -59 c0
-5 -4 -10 -10 -10 -5 0 -10 5 -10 10 0 6 5 10 10 10 6 0 10 -4 10 -10z m210
-70 c0 -5 -7 -10 -15 -10 -8 0 -15 5 -15 10 0 6 7 10 15 10 8 0 15 -4 15 -10z
m25 -118 c21 -15 10 -37 -20 -39 -17 -2 -50 -6 -75 -9 l-45 -6 24 26 c25 26
64 35 76 16 8 -13 25 -13 25 1 0 5 -5 7 -12 3 -7 -4 -8 -3 -4 4 8 14 17 15 31
4z m1687 -123 c5 -24 6 -50 3 -56 -2 -7 0 -13 6 -13 6 0 8 -9 4 -21 -4 -12 -7
-37 -7 -55 0 -27 -3 -32 -13 -24 -7 5 -11 21 -9 35 1 14 -2 25 -7 25 -5 0 -9
-8 -10 -17 0 -10 -2 -29 -5 -42 -3 -19 -2 -21 9 -12 11 8 16 5 25 -14 8 -17 8
-25 1 -25 -6 0 -9 -17 -6 -42 6 -64 -4 -92 -34 -95 -14 -1 -32 3 -40 8 -12 8
-12 10 1 20 12 8 8 9 -14 4 -26 -6 -28 -4 -16 10 7 8 10 18 7 22 -4 3 -1 13 6
22 10 13 7 12 -15 -2 -16 -10 -28 -13 -28 -7 0 6 -6 10 -14 8 -8 -2 -15 0 -15
5 -3 25 0 27 20 16 15 -8 24 -8 32 0 7 7 7 11 1 11 -17 0 -5 113 13 128 21 16
41 16 25 0 -18 -18 -15 -28 8 -28 11 0 20 5 20 11 0 5 -4 7 -10 4 -6 -4 -8 7
-4 27 5 26 3 30 -6 18 -9 -12 -10 -10 -5 10 4 14 13 30 21 36 7 6 11 13 9 16
-9 9 17 69 28 65 7 -2 15 -23 19 -48z m-338 -25 c7 -18 0 -34 -16 -34 -6 0 -6
6 2 15 11 13 10 14 -4 9 -11 -4 -16 -1 -16 10 0 21 26 21 34 0z m-2584 -211
c0 -5 -4 -15 -10 -23 -11 -18 -25 -7 -17 15 6 15 27 21 27 8z m2625 -83 c3 -5
1 -10 -4 -10 -6 0 -11 5 -11 10 0 6 2 10 4 10 3 0 8 -4 11 -10z m152 -12 c-3
-8 -6 -5 -6 6 -1 11 2 17 5 13 3 -3 4 -12 1 -19z m-1633 -234 c5 -13 4 -14 -7
-6 -8 7 -18 8 -22 4 -5 -4 -5 -1 -1 6 10 17 23 15 30 -4z m1389 -295 c28 -7
50 -25 83 -67 144 -180 164 -444 54 -714 -26 -63 -103 -195 -123 -209 -10 -7
-12 -39 -3 -61 5 -11 -3 -28 -27 -55 -19 -21 -36 -42 -38 -48 -2 -5 -8 -9 -12
-7 -5 1 -6 -6 -2 -16 5 -17 1 -19 -35 -15 -23 3 -40 1 -40 -5 0 -5 -11 -13
-25 -16 -14 -4 -25 -11 -25 -17 0 -6 -4 -8 -9 -5 -5 4 -21 2 -34 -3 -14 -6
-44 -12 -66 -15 -22 -2 -45 -7 -50 -11 -6 -3 -11 -1 -11 6 0 10 -3 10 -12 1
-8 -8 -17 -8 -30 -1 -31 16 -70 3 -66 -23 2 -15 -3 -22 -19 -24 -15 -3 -23 1
-23 11 0 8 -5 15 -12 15 -23 0 -83 -25 -94 -39 -6 -8 -26 -16 -43 -17 -18 -1
-42 -5 -54 -8 -12 -3 -28 -2 -35 3 -7 4 -46 3 -87 -4 -60 -9 -75 -9 -79 2 -6
14 -43 17 -70 7 -9 -3 -13 -11 -9 -18 5 -7 2 -7 -8 1 -8 7 -27 10 -41 8 -49
-9 -107 38 -123 100 -4 17 -9 55 -9 85 -1 30 -8 69 -15 85 -7 17 -14 35 -15
41 -1 7 -7 18 -14 26 -6 8 -13 34 -15 59 -1 24 -5 49 -8 54 -3 6 -5 60 -5 122
1 103 3 114 24 135 20 21 32 23 115 23 68 0 101 -5 126 -17 19 -10 45 -18 58
-18 13 0 37 -7 53 -15 26 -14 30 -14 30 -1 0 35 -121 116 -173 116 -26 0 -61
32 -50 45 5 4 3 6 -2 2 -15 -8 -43 11 -30 21 6 4 23 23 39 42 16 19 36 35 45
35 9 0 22 14 30 31 8 20 26 36 48 45 23 9 32 18 28 28 -3 10 0 9 10 -3 8 -11
16 -32 16 -48 1 -15 2 -31 3 -35 1 -5 6 -33 10 -63 9 -63 18 -97 53 -192 39
-107 142 -187 271 -211 21 -4 31 -3 27 3 -3 6 -15 10 -25 10 -36 0 -125 46
-163 85 -67 67 -113 177 -122 291 -7 84 1 117 48 194 12 19 23 41 24 50 1 8 7
16 13 18 6 2 17 10 24 18 8 8 19 14 24 14 5 0 15 7 22 15 21 25 21 11 0 -30
-11 -22 -20 -46 -19 -55 0 -10 2 -11 6 -2 2 6 9 12 14 12 4 0 6 -7 3 -15 -9
-23 12 -18 29 8 8 12 39 35 67 51 62 34 60 22 -3 -18 -28 -18 -56 -48 -77 -85
-30 -49 -34 -66 -38 -142 -4 -98 6 -129 67 -192 130 -138 343 -103 427 70 25
50 29 69 28 143 0 97 -19 140 -78 181 -18 12 -41 34 -51 49 -10 14 -32 34 -49
45 l-31 18 39 9 c23 5 53 4 75 -2 20 -5 45 -10 56 -10 42 1 -21 37 -87 49
-121 24 -134 28 -115 35 9 3 25 9 35 13 35 13 50 14 166 19 66 3 122 7 125 9
7 8 44 6 84 -6z m400 -127 c2 -40 1 -75 -3 -77 -3 -2 -6 -29 -5 -59 1 -30 -2
-53 -7 -50 -5 3 -6 -23 -2 -59 4 -39 2 -72 -4 -83 -6 -11 -13 -51 -17 -90 -3
-38 -10 -94 -15 -124 -8 -46 -8 -324 0 -340 1 -3 1 -15 0 -27 0 -12 5 -42 14
-66 15 -44 13 -96 -6 -131 -16 -29 -28 -1 -28 67 0 46 -3 57 -16 57 -11 0 -15
-6 -11 -19 5 -21 -36 -47 -55 -35 -8 5 -9 -6 -4 -36 7 -43 7 -44 -13 -26 -50
46 -49 229 3 516 14 74 31 191 37 258 11 111 15 125 35 139 20 13 23 21 18 56
-6 53 -6 90 2 152 7 52 30 99 45 89 5 -3 9 1 10 8 2 32 18 -54 22 -120z
m-2985 79 c-1 -3 2 -13 5 -21 3 -8 8 -35 10 -60 3 -25 10 -70 16 -100 7 -30
14 -98 16 -150 3 -52 7 -117 10 -145 3 -27 7 -75 10 -105 3 -30 10 -57 16 -60
5 -4 7 -14 3 -23 -8 -22 12 -22 25 1 9 14 10 13 11 -10 0 -18 -5 -28 -14 -28
-8 0 -18 -5 -22 -12 -5 -8 0 -9 14 -6 27 7 28 0 5 -18 -17 -13 -17 -14 2 -8
20 5 20 5 1 -10 -18 -15 -18 -16 5 -35 17 -14 20 -21 9 -21 -13 -1 -12 -3 2
-13 9 -7 19 -31 23 -52 4 -27 3 -35 -3 -26 -12 17 -24 -1 -16 -23 3 -9 1 -16
-5 -16 -6 0 -11 -4 -11 -10 0 -11 32 -1 42 14 5 7 8 4 8 -6 0 -10 5 -18 10
-18 6 0 10 -6 10 -12 0 -17 52 -51 120 -79 30 -12 59 -26 64 -31 6 -4 18 -8
28 -8 9 0 21 -6 25 -14 4 -8 17 -14 28 -14 39 1 45 -2 45 -22 0 -20 -11 -26
-24 -12 -4 4 -11 7 -14 7 -4 1 -22 9 -39 18 -18 10 -33 15 -33 11 0 -3 -11 1
-25 10 -13 9 -32 16 -42 16 -10 0 -41 15 -68 34 -28 18 -60 36 -72 40 -13 4
-23 11 -23 16 0 4 -8 11 -17 14 -15 6 -15 5 1 -13 11 -12 15 -25 10 -33 -5 -7
-9 -20 -11 -28 -1 -8 -12 -23 -24 -32 -11 -10 -22 -29 -23 -43 -1 -25 -26 -36
-26 -12 -1 6 -3 28 -5 47 -6 61 -24 289 -35 455 -6 88 -15 212 -20 275 -6 63
-12 167 -14 230 -2 63 -7 122 -10 131 -5 10 -2 16 8 16 8 0 14 -3 14 -6z
m1962 -81 c0 -5 -5 -10 -11 -10 -5 0 -7 5 -4 10 3 6 8 10 11 10 2 0 4 -4 4
-10z m295 -173 c20 -11 20 -11 0 -15 -11 -2 -24 -8 -29 -13 -15 -14 -60 -11
-82 6 -19 15 -19 15 1 31 21 16 71 12 110 -9z m-1944 -131 c6 -6 9 -5 9 3 0
13 24 41 35 41 4 0 4 -7 1 -16 -3 -8 -2 -12 4 -9 6 4 10 -10 10 -34 0 -73 38
-184 100 -291 20 -35 70 -70 100 -70 9 0 20 -4 25 -9 32 -29 216 -47 305 -31
126 23 126 23 154 -1 14 -12 26 -31 26 -41 0 -15 5 -18 21 -13 19 6 21 4 17
-19 -4 -19 0 -27 13 -31 16 -5 18 -17 18 -80 0 -41 3 -79 6 -85 8 -13 9 -110
1 -117 -3 -3 -12 2 -21 11 -9 9 -22 16 -28 16 -7 0 0 -12 16 -25 15 -13 32
-36 37 -50 9 -23 7 -26 -20 -32 -26 -5 -28 -8 -18 -21 11 -13 10 -14 -9 -3
-13 6 -23 16 -23 21 0 5 -7 7 -16 3 -8 -3 -13 -11 -10 -18 3 -10 -3 -9 -23 3
-17 9 -35 13 -47 8 -25 -9 -29 -9 -29 6 0 14 -59 32 -63 19 -2 -5 -20 -5 -43
0 -22 5 -54 11 -72 13 -18 2 -31 9 -30 15 2 6 -7 11 -20 11 -57 1 -84 6 -110
24 -24 16 -32 18 -49 7 -17 -10 -20 -9 -25 8 -3 13 -14 21 -25 21 -18 0 -19
-2 -7 -17 12 -14 12 -16 -1 -11 -20 6 -22 54 -3 74 11 11 13 18 5 23 -7 4 -8
12 -2 20 9 15 -10 41 -30 41 -7 0 -24 8 -38 19 -15 10 -33 20 -41 23 -11 3
-10 8 5 23 17 16 17 18 2 12 -10 -3 -20 -2 -23 3 -4 6 1 10 9 10 9 0 16 5 16
10 0 6 -10 8 -24 4 -19 -5 -26 0 -37 25 -8 17 -18 31 -22 31 -5 0 -5 9 -2 20
4 13 2 20 -8 20 -20 0 -40 44 -32 70 4 14 3 20 -3 16 -5 -3 -15 1 -21 8 -9 10
-9 16 -1 21 8 5 6 11 -4 18 -11 8 -16 32 -17 75 -1 34 -6 62 -10 62 -5 0 -7
21 -5 48 2 26 4 64 5 85 1 22 5 36 11 32 5 -3 17 7 27 22 16 24 18 25 21 7 2
-10 8 -23 13 -28z m212 -136 c7 0 21 -14 32 -30 36 -55 120 -114 177 -126 66
-13 160 -1 206 27 49 28 54 14 9 -26 -55 -49 -122 -62 -232 -46 -47 7 -85 18
-85 23 0 6 -6 8 -12 5 -16 -5 -113 46 -113 61 0 6 -3 13 -7 17 -4 4 -4 13 -2
20 3 7 1 23 -6 34 -8 16 -8 27 1 43 8 14 14 18 17 10 2 -6 9 -12 15 -12z
m1627 -731 c0 -11 42 -8 73 6 10 4 20 6 22 3 8 -8 -12 -29 -31 -33 -10 -2 -19
-4 -19 -5 0 -2 -37 -9 -60 -11 -33 -2 -45 0 -45 10 0 5 9 7 20 4 18 -5 25 5
21 30 0 4 4 7 9 7 6 0 10 -5 10 -11z m-210 -493 c0 -11 -19 -15 -25 -6 -3 5 1
10 9 10 9 0 16 -2 16 -4z m1098 -30 c13 -11 43 -51 68 -88 24 -38 48 -68 53
-68 4 0 24 -13 42 -30 21 -18 66 -39 119 -56 106 -32 160 -54 160 -66 0 -15
-32 -22 -40 -9 -4 7 -5 -10 -2 -37 3 -33 0 -52 -8 -57 -13 -8 -63 24 -63 40 1
16 -37 65 -51 65 -15 0 -50 38 -59 63 -7 19 -28 24 -24 5 6 -32 -88 -7 -97 25
-3 11 -8 18 -12 14 -4 -3 -25 9 -47 28 -45 38 -57 43 -57 20 0 -8 -9 -15 -20
-15 -24 0 -41 -37 -34 -74 2 -14 0 -26 -5 -26 -6 0 -5 -18 3 -44 8 -25 11 -48
8 -51 -4 -3 1 -3 11 1 14 5 15 9 6 20 -16 19 13 29 53 18 45 -13 45 -29 -1
-47 -21 -9 -43 -22 -47 -28 -5 -9 -2 -10 9 -6 11 4 17 1 17 -9 0 -8 -4 -12
-10 -9 -14 9 -12 -1 6 -37 9 -16 12 -28 7 -25 -5 3 -15 2 -23 -4 -12 -7 -11
-9 4 -9 18 0 19 -1 1 -20 -10 -11 -15 -23 -12 -27 4 -3 7 -1 7 5 0 7 4 12 8
12 4 0 8 -9 8 -19 0 -11 -3 -18 -6 -16 -3 2 -7 -22 -8 -52 -2 -37 2 -59 10
-65 10 -6 10 -8 1 -8 -19 0 -16 -31 5 -47 9 -8 11 -11 3 -7 -11 5 -12 1 -7
-20 4 -17 -1 -42 -16 -76 -22 -48 -48 -73 -48 -46 0 7 -6 13 -14 13 -8 0 -12
-6 -9 -14 3 -7 0 -13 -6 -13 -6 0 -11 4 -11 8 0 5 -6 9 -12 9 -7 0 -21 4 -30
8 -18 7 -19 -9 -4 -34 7 -11 4 -13 -12 -9 -17 5 -21 0 -27 -28 -3 -18 -11 -37
-18 -41 -7 -5 -13 -19 -13 -33 -3 -52 -6 -65 -11 -52 -7 18 -33 -4 -33 -28 0
-9 -11 -23 -25 -30 -28 -15 -30 -22 -15 -50 7 -13 7 -21 0 -25 -5 -3 -10 -11
-10 -16 0 -6 5 -7 10 -4 6 3 10 1 10 -4 0 -6 -4 -11 -9 -11 -11 0 -4 -51 9
-64 11 -11 1 -36 -15 -36 -8 0 -17 -5 -21 -12 -5 -7 -3 -8 6 -3 8 5 11 3 8 -6
-3 -8 -12 -13 -21 -13 -19 2 -16 -19 6 -44 9 -10 17 -22 17 -26 0 -4 7 -15 16
-24 12 -11 13 -17 5 -20 -9 -3 -9 -8 0 -19 10 -12 10 -16 -2 -24 -11 -7 -11
-9 4 -9 10 0 17 -8 17 -20 0 -13 -5 -18 -15 -14 -9 4 -15 1 -15 -7 0 -8 -9 1
-20 19 -11 18 -20 38 -20 44 0 6 -6 16 -13 22 -12 10 -103 228 -137 326 -27
81 -69 262 -83 365 -24 162 -40 401 -33 473 l7 62 -54 0 c-29 0 -57 -4 -63
-10 -15 -15 -225 -13 -240 2 -4 4 -14 2 -22 -5 -12 -9 -16 -9 -19 1 -3 7 -22
12 -47 12 -26 0 -61 9 -89 24 -25 14 -49 21 -53 18 -5 -4 -3 0 4 9 6 9 9 19 5
23 -4 4 1 4 11 0 15 -6 17 -2 15 22 -1 16 2 40 8 53 9 21 11 22 25 7 21 -20
29 -20 21 0 -5 14 -3 14 16 3 12 -8 19 -19 17 -26 -3 -7 -1 -15 4 -18 6 -4 10
-1 10 6 0 7 8 5 22 -7 12 -10 18 -13 14 -6 -4 7 -1 12 8 12 9 0 16 -4 16 -9 0
-12 39 -21 45 -10 3 4 18 6 33 3 24 -5 27 -2 29 21 0 15 9 35 18 44 16 15 17
13 12 -30 l-6 -45 82 2 c79 2 147 -9 147 -25 0 -17 55 -31 123 -31 220 1 325
52 448 217 34 45 46 46 87 9z m-1378 -67 c0 -16 4 -19 21 -14 19 6 20 5 9 -14
-6 -12 -8 -26 -4 -32 10 -16 -24 5 -66 41 -30 27 -32 30 -13 30 12 0 25 5 28
10 9 15 25 2 25 -21z m-130 -32 c19 -11 69 -46 111 -77 96 -72 208 -134 297
-165 66 -23 111 -31 235 -42 46 -4 56 -7 47 -18 -17 -20 -16 -124 2 -185 14
-52 40 -159 53 -226 6 -32 -16 -66 -30 -44 -11 18 -27 12 -16 -7 5 -10 5 -26
0 -41 -12 -31 -2 -88 22 -128 27 -44 40 -125 30 -179 -6 -33 -4 -57 7 -89 14
-39 14 -48 2 -71 -11 -20 -12 -35 -3 -67 9 -34 8 -48 -8 -85 -10 -25 -19 -56
-19 -69 0 -13 -5 -24 -11 -24 -6 0 -9 -7 -5 -15 3 -8 1 -15 -4 -15 -6 0 -10
-7 -10 -15 0 -8 -4 -15 -9 -15 -9 0 -24 -38 -22 -53 3 -17 -30 -67 -44 -67 -8
0 -15 -5 -15 -11 0 -6 -9 -8 -20 -4 -11 4 -20 2 -20 -4 0 -6 -6 -11 -13 -11
-8 0 -21 -17 -29 -39 -13 -33 -20 -39 -52 -43 -21 -2 -39 0 -42 4 -9 14 -32 9
-36 -8 -2 -13 -6 -12 -23 7 -11 12 -15 19 -8 16 6 -4 14 -3 18 3 3 5 14 10 23
10 27 0 43 15 36 34 -4 9 -12 15 -18 13 -16 -6 -62 19 -56 30 3 4 -10 9 -27
11 -34 3 -42 -9 -23 -38 9 -13 10 -13 10 0 0 13 1 13 10 0 7 -11 5 -17 -8 -21
-11 -4 -19 0 -24 12 -4 11 -15 19 -25 19 -26 1 -59 31 -67 63 -3 15 -11 25
-16 22 -6 -4 -7 -12 -3 -18 4 -7 9 -22 11 -34 2 -19 -2 -23 -23 -23 -14 0 -25
5 -25 10 0 6 -3 9 -7 9 -5 -1 -19 -1 -33 1 -23 1 -23 2 -5 10 11 5 14 9 8 11
-17 2 -32 6 -38 9 -3 1 -8 3 -12 4 -5 1 -13 5 -19 9 -7 4 -15 0 -18 -9 -5 -14
-7 -14 -22 0 -23 24 -43 20 -36 -6 4 -16 2 -19 -9 -14 -8 4 -5 0 5 -8 11 -9
17 -16 14 -16 -4 0 -13 -3 -22 -6 -10 -4 -16 -1 -16 8 0 8 -9 23 -20 33 -11
10 -17 22 -14 27 3 4 0 7 -8 6 -7 -2 -13 3 -12 10 3 42 5 44 21 38 9 -4 20 -1
25 6 5 9 8 8 8 -5 0 -21 19 -18 34 5 7 12 5 23 -8 43 -21 32 -40 28 -44 -8
l-3 -27 -29 22 c-24 18 -27 24 -19 42 9 19 9 20 -4 3 -8 -10 -21 -15 -30 -11
-26 10 -56 -13 -50 -38 4 -22 4 -22 -10 -5 -14 17 -15 16 -21 -8 -4 -16 -20
-31 -46 -44 l-40 -19 -28 27 c-15 15 -32 30 -38 32 -10 4 -58 96 -59 114 -1
24 -28 74 -37 69 -5 -3 -25 -3 -44 1 -24 4 -38 13 -44 31 -8 19 -16 24 -46 24
-36 0 -37 0 -19 20 10 11 26 22 36 25 32 10 21 25 -17 25 -27 0 -37 -5 -41
-19 -4 -14 -12 -19 -31 -16 -15 1 -28 3 -30 4 -1 0 5 12 14 26 11 17 13 25 4
25 -7 0 -10 7 -6 17 7 18 5 16 -57 -39 -22 -19 -15 -61 9 -51 7 3 14 0 14 -6
0 -6 -11 -11 -25 -11 -14 0 -25 6 -25 13 0 6 -12 23 -25 36 -14 13 -25 27 -25
31 0 5 -10 10 -22 12 -21 3 -23 8 -20 51 2 36 -2 57 -19 83 -12 19 -19 38 -15
41 3 4 6 1 6 -6 0 -7 5 -9 11 -5 7 4 8 9 0 17 -5 5 -7 23 -4 38 3 19 1 29 -6
29 -7 0 -10 4 -7 8 7 13 -6 26 -38 37 -27 10 -28 12 -31 85 -2 49 1 77 8 82
19 12 -17 41 -51 42 -16 1 -28 6 -25 12 2 5 -8 23 -22 40 -14 16 -25 36 -25
44 0 23 -47 73 -60 65 -9 -6 -9 -2 0 14 12 23 30 20 30 -6 0 -10 6 -13 16 -9
9 3 19 6 24 6 12 0 22 30 26 78 2 23 6 47 9 52 10 16 25 12 25 -6 0 -11 5 -14
16 -10 14 5 15 4 4 -9 -15 -18 -10 -25 19 -28 16 -1 20 -6 15 -20 -6 -19 -5
-19 24 -2 16 10 29 23 28 29 -1 6 -20 36 -42 66 -22 30 -43 65 -46 77 -5 19 0
24 45 37 28 8 54 13 58 10 4 -2 10 0 14 6 4 6 15 4 30 -6 21 -14 24 -14 33 2
8 14 24 18 74 18 40 1 71 6 82 15 9 8 19 11 23 8 3 -4 12 -2 20 5 7 6 16 8 20
5 3 -4 21 3 39 14 19 11 38 18 44 14 5 -3 20 1 33 10 13 8 32 13 41 9 9 -3 16
-2 16 3 0 5 26 17 58 28 72 23 122 52 122 71 0 8 6 14 14 14 8 0 32 17 54 39
75 74 117 83 192 38z m400 23 c0 -5 -4 -10 -10 -10 -5 0 -10 5 -10 10 0 6 5
10 10 10 6 0 10 -4 10 -10z m-1630 -144 c0 -11 -19 -15 -25 -6 -3 5 1 10 9 10
9 0 16 -2 16 -4z m0 -180 c0 -5 6 -3 14 3 14 12 24 5 21 -14 -1 -5 -11 -30
-23 -55 -14 -29 -17 -47 -10 -51 7 -5 7 -9 0 -13 -13 -8 -4 -36 17 -54 14 -12
14 -13 -1 -8 -21 6 -32 -9 -22 -32 4 -9 8 -21 9 -27 0 -5 5 -18 9 -28 9 -19
-8 -39 -49 -63 -11 -6 -24 -27 -28 -48 -5 -20 -13 -36 -18 -36 -5 0 -9 -6 -9
-14 0 -7 -7 -19 -15 -26 -12 -10 -12 -15 2 -36 14 -22 14 -26 -1 -43 -9 -9
-16 -21 -16 -25 0 -4 -11 -19 -25 -34 -14 -15 -25 -22 -25 -16 0 5 5 15 12 22
9 9 9 12 0 12 -6 0 -15 -6 -19 -13 -6 -11 -15 -9 -42 10 -19 13 -29 23 -24 23
17 0 25 33 11 41 -7 5 -14 21 -15 36 0 15 -13 73 -27 128 -30 117 -31 130 -11
200 16 53 66 134 85 136 6 1 13 2 18 4 4 1 24 5 45 9 20 5 39 11 42 15 6 11
95 8 95 -3z m3100 -278 c-20 -209 -48 -337 -98 -458 -32 -77 -116 -219 -142
-240 -11 -8 -21 -28 -24 -44 -7 -39 -27 -67 -111 -155 -40 -42 -94 -102 -119
-134 -26 -31 -48 -57 -49 -57 -7 0 7 87 15 98 7 8 7 17 -2 27 -10 12 -9 16 6
22 25 9 162 151 180 185 8 16 19 26 24 23 9 -6 14 8 11 28 -2 13 39 77 50 77
5 0 9 6 9 13 0 7 13 26 30 42 16 15 27 32 24 37 -3 4 0 8 5 8 6 0 10 3 9 8 -1
4 11 34 26 67 15 32 26 69 23 82 -2 13 -1 23 4 23 4 0 6 8 4 18 -1 9 2 23 7
29 6 7 8 24 6 38 -3 14 -2 25 2 25 4 0 7 6 8 13 0 6 3 28 6 47 18 111 19 120
2 120 -9 0 -16 5 -16 11 0 15 53 79 67 79 6 0 17 17 24 38 27 86 33 67 19 -70z
m-2877 -203 c4 -8 2 -17 -3 -20 -6 -4 -10 3 -10 14 0 25 6 27 13 6z m-533
-155 c0 -5 -4 -10 -10 -10 -5 0 -10 5 -10 10 0 6 5 10 10 10 6 0 10 -4 10 -10z
m142 -60 c-17 -31 -32 -39 -32 -18 0 12 30 46 42 47 4 1 -1 -12 -10 -29z
m-3162 -280 c0 -14 -58 -42 -65 -31 -3 5 8 12 25 16 16 4 30 11 30 16 0 5 2 9
5 9 3 0 5 -4 5 -10z m786 -76 c-3 -9 -6 -18 -6 -20 0 -2 -4 -4 -9 -4 -5 0 -7
9 -4 20 3 11 10 20 15 20 6 0 7 -7 4 -16z m98 1 c-4 -8 -11 -12 -16 -9 -6 4
-5 10 3 15 19 12 19 11 13 -6z m2900 0 c-4 -8 -11 -12 -16 -9 -6 4 -5 10 3 15
19 12 19 11 13 -6z m-2969 -25 c3 -5 2 -10 -4 -10 -5 0 -13 5 -16 10 -3 6 -2
10 4 10 5 0 13 -4 16 -10z m-475 -41 c0 -5 -6 -6 -13 -3 -8 3 -14 11 -14 19 0
11 4 12 14 4 7 -6 13 -15 13 -20z m70 0 c0 -14 -17 -10 -23 5 -4 10 -1 13 9 9
7 -3 14 -9 14 -14z m127 -18 c0 -11 -5 -18 -9 -15 -4 3 -5 11 -1 19 7 21 12
19 10 -4z m3550 -3 c-3 -8 -6 -5 -6 6 -1 11 2 17 5 13 3 -3 4 -12 1 -19z
m-3502 -27 c-6 -5 -25 10 -25 20 0 5 6 4 14 -3 8 -7 12 -15 11 -17z m171 15
c9 -9 10 -17 4 -21 -5 -3 -10 -1 -10 4 0 6 -7 11 -16 11 -8 0 -12 5 -9 10 8
13 14 13 31 -4z m-50 -22 c-3 -9 -6 -20 -6 -25 0 -6 -9 -7 -20 -4 -16 5 -20 2
-20 -14 0 -12 -5 -21 -11 -21 -5 0 -7 -6 -3 -12 5 -9 2 -8 -10 1 -13 11 -14
16 -4 22 7 5 8 9 2 9 -5 0 -19 7 -30 16 -18 15 -18 15 8 11 17 -3 29 1 32 10
4 9 13 12 26 8 11 -4 20 -2 20 4 0 6 5 11 11 11 6 0 8 -7 5 -16z m10 -71 c-10
-10 -19 5 -10 18 6 11 8 11 12 0 2 -7 1 -15 -2 -18z m5102 10 c2 -7 -3 -13
-12 -13 -9 0 -16 5 -16 11 0 5 -4 7 -10 4 -5 -3 -10 -1 -10 5 0 15 42 8 48 -7z
m-5338 -3 c0 -5 -4 -10 -10 -10 -5 0 -10 5 -10 10 0 6 5 10 10 10 6 0 10 -4
10 -10z m91 -7 c13 -16 12 -17 -3 -4 -10 7 -18 15 -18 17 0 8 8 3 21 -13z m34
-33 c3 -5 1 -10 -4 -10 -6 0 -11 5 -11 10 0 6 2 10 4 10 3 0 8 -4 11 -10z
m455 -77 c0 -11 -5 -11 -20 -3 -11 6 -20 8 -20 5 0 -3 -6 0 -14 7 -20 18 1 29
31 15 12 -5 23 -16 23 -24z m-200 -17 c6 -8 19 -12 28 -9 15 5 14 3 -2 -15
-11 -12 -24 -22 -30 -21 -6 0 -6 3 2 6 13 5 17 24 5 22 -21 -3 -33 2 -33 16 0
19 14 19 30 1z m3619 -5 c8 -5 9 -11 3 -15 -5 -3 -15 1 -22 9 -14 16 -3 20 19
6z m-3559 -32 c0 -5 4 -8 8 -5 5 3 9 -9 9 -27 1 -18 -1 -26 -4 -19 -3 6 -10 9
-16 5 -7 -4 -8 0 -4 12 4 9 2 24 -4 31 -8 10 -8 14 0 14 6 0 11 -5 11 -11z
m355 -2 c11 -11 10 -15 -4 -24 -18 -11 -41 -7 -41 9 0 5 10 7 23 3 21 -6 21
-6 3 9 -12 9 -14 16 -7 16 7 0 18 -6 26 -13z m-170 -7 c3 -5 -1 -10 -10 -10
-9 0 -13 5 -10 10 3 6 8 10 10 10 2 0 7 -4 10 -10z m95 0 c0 -5 -4 -10 -9 -10
-6 0 -13 5 -16 10 -3 6 1 10 9 10 9 0 16 -4 16 -10z m3921 -63 c-10 -9 -11 -8
-5 6 3 10 9 15 12 12 3 -3 0 -11 -7 -18z m-3674 -24 c-7 -6 -46 10 -41 18 3 5
14 3 24 -3 11 -7 18 -13 17 -15z m3340 -5 c11 -19 13 -39 2 -32 -15 9 -31 44
-20 44 5 0 13 -6 18 -12z m-3334 -34 c-4 -10 -9 -11 -24 -1 -26 16 -24 25 5
20 16 -3 23 -10 19 -19z m3812 -15 c11 -4 32 -19 47 -33 15 -14 33 -26 40 -26
7 0 33 -18 58 -40 25 -22 49 -40 53 -40 14 0 61 -62 73 -94 14 -41 43 -53 134
-60 81 -5 161 8 198 32 16 10 55 17 111 19 376 16 985 64 1051 83 19 6 58 10
86 10 28 0 66 5 84 11 25 9 34 9 40 0 5 -9 9 -9 13 3 9 23 33 20 33 -4 0 -11
-6 -20 -13 -20 -12 0 -14 -5 -17 -42 -1 -16 -28 -38 -38 -32 -5 3 -8 0 -8 -5
0 -15 -27 -14 -33 2 -2 6 -8 8 -13 4 -5 -4 -2 -12 6 -17 12 -7 10 -12 -8 -28
-13 -11 -21 -26 -20 -33 2 -9 -4 -13 -16 -11 -10 2 -15 -1 -12 -7 4 -5 1 -13
-5 -17 -6 -3 -15 -1 -19 7 -5 8 -8 -8 -6 -38 2 -44 -1 -51 -16 -48 -15 3 -16
0 -8 -14 6 -13 5 -24 -5 -37 -12 -17 -11 -21 13 -41 15 -11 23 -25 19 -29 -4
-5 -12 -2 -17 6 -7 10 -10 11 -10 3 0 -7 -9 -13 -19 -13 -30 0 -52 -11 -44
-23 3 -6 1 -7 -5 -3 -7 4 -10 16 -9 26 4 23 17 39 17 21 0 -7 5 -9 11 -6 14
10 28 48 21 60 -3 5 -9 -1 -12 -15 -4 -18 -12 -24 -27 -22 -27 4 -37 -32 -18
-68 12 -23 12 -27 0 -27 -8 0 -17 8 -20 18 -6 18 -18 18 -62 -3 -17 -8 -26 -8
-38 2 -12 10 -15 10 -16 -1 -1 -8 -1 -18 1 -24 1 -5 -7 -2 -17 7 -10 10 -33
18 -51 20 -18 1 -32 6 -32 10 0 4 -7 5 -15 2 -8 -4 -13 -9 -10 -14 2 -4 -6 -5
-19 -3 -15 3 -25 -1 -29 -11 -4 -9 -3 -16 1 -17 29 -3 46 -10 63 -25 18 -16
19 -16 13 -1 -4 12 -1 17 10 17 10 0 13 -5 9 -17 -4 -11 -3 -14 5 -9 7 4 12 3
12 -3 0 -5 -4 -13 -10 -16 -5 -3 -10 -1 -10 5 0 14 -41 -7 -53 -26 -9 -15 -37
-19 -37 -5 0 4 -15 12 -32 17 -38 11 -50 51 -23 78 19 19 13 21 -14 4 -15 -9
-18 -20 -14 -52 l5 -41 -26 30 c-14 17 -25 25 -26 18 0 -6 -9 -9 -22 -5 -16 4
-19 2 -13 -8 5 -9 4 -11 -3 -6 -7 4 -12 15 -12 24 -1 15 -3 14 -16 -3 -14 -18
-17 -18 -27 -4 -14 18 -46 33 -64 30 -7 -1 -13 7 -13 19 0 11 -4 20 -10 20 -5
0 -9 -6 -7 -12 1 -7 -3 -12 -10 -11 -7 2 -10 -3 -7 -10 2 -7 -7 -19 -21 -27
-19 -10 -22 -16 -14 -27 9 -10 8 -13 -4 -13 -9 0 -21 -8 -26 -17 -10 -17 -10
-17 -11 -1 0 10 -6 17 -12 15 -8 -1 -12 8 -11 26 l2 27 -32 -30 c-21 -20 -40
-28 -57 -27 -32 4 -50 15 -50 30 0 7 7 3 15 -7 8 -11 15 -14 15 -8 0 7 7 12
16 12 23 0 8 17 -22 24 -38 10 -51 -7 -30 -38 18 -29 21 -46 6 -46 -5 0 -9 3
-9 8 4 25 -3 32 -28 27 -24 -5 -26 -4 -13 7 8 7 15 20 15 29 0 25 -27 69 -41
69 -7 0 -15 6 -17 13 -3 6 -6 0 -6 -15 -1 -20 4 -28 17 -29 10 0 12 -3 5 -6
-9 -3 -8 -11 4 -30 9 -14 12 -28 7 -31 -15 -12 -15 -32 1 -32 8 0 15 -5 15
-10 0 -15 -30 -8 -51 10 -43 39 -63 50 -70 38 -4 -6 -15 -8 -25 -4 -15 6 -16
9 -4 16 8 5 12 12 8 15 -9 9 -48 -32 -48 -51 0 -8 5 -12 10 -9 6 4 7 12 4 18
-5 9 -4 9 5 1 13 -12 4 -47 -10 -38 -5 3 -9 0 -9 -5 0 -6 -4 -11 -10 -11 -5 0
-10 7 -10 17 0 14 -2 14 -20 -2 -16 -14 -24 -16 -42 -7 -13 6 -17 11 -10 11
17 1 15 21 -2 21 -9 0 -12 9 -10 29 3 23 0 29 -14 27 -12 -2 -16 -11 -14 -28
2 -17 -6 -36 -23 -54 -17 -18 -25 -22 -21 -11 6 18 -18 25 -29 7 -3 -6 -15 -6
-29 0 -13 5 -27 6 -30 3 -3 -4 -6 -1 -6 6 0 6 8 11 17 9 10 -2 18 4 18 12 1 8
5 23 9 33 10 22 -2 37 -14 17 -7 -11 -11 -11 -23 -1 -13 10 -17 8 -22 -10 -5
-13 -10 -17 -14 -11 -4 7 -16 10 -28 8 -15 -3 -23 2 -26 16 -5 16 -2 19 15 15
16 -5 19 -2 15 14 -3 10 -1 19 5 19 6 0 7 11 4 27 -4 14 -3 29 3 32 21 14 -2
51 -45 72 -23 12 -43 25 -42 28 3 29 -11 52 -69 112 -37 38 -70 66 -75 61 -5
-5 -9 -47 -9 -93 0 -73 3 -91 23 -122 13 -20 29 -36 36 -37 7 0 11 -4 7 -9 -3
-5 -1 -12 5 -16 5 -3 10 -17 10 -30 0 -17 9 -29 30 -40 25 -13 29 -20 24 -40
-4 -16 0 -30 10 -40 9 -9 16 -13 16 -9 0 4 6 0 13 -11 8 -10 19 -15 25 -11 23
14 11 -4 -12 -20 -19 -12 -29 -13 -43 -5 -14 8 -14 10 -3 11 10 0 6 8 -13 25
-15 14 -27 33 -27 42 0 11 -6 14 -21 10 -16 -4 -32 5 -63 39 -41 43 -79 57
-89 32 -4 -10 -8 -9 -16 2 -6 8 -11 11 -11 6 0 -5 -7 -3 -16 5 -8 7 -13 20
-11 29 9 35 -14 142 -42 198 -34 68 -95 121 -120 105 -9 -5 -22 -30 -29 -54
-7 -24 -19 -55 -27 -70 -10 -18 -11 -36 -5 -62 4 -21 6 -46 3 -57 -3 -11 -1
-20 4 -20 5 0 10 -22 11 -50 1 -34 -2 -50 -10 -50 -9 0 -9 -3 1 -9 12 -8 12
-12 3 -24 -7 -8 -11 -20 -10 -27 2 -8 -11 -13 -35 -14 -20 0 -37 4 -38 9 0 6
-5 -3 -10 -20 -5 -17 -24 -40 -45 -53 -35 -22 -36 -22 -31 -3 3 11 0 22 -7 24
-7 3 -6 9 4 22 8 10 10 16 5 13 -19 -11 -35 7 -28 30 4 16 11 21 22 17 8 -3
12 -3 8 1 -4 4 -2 13 3 20 6 6 10 16 9 20 -4 22 3 32 22 37 26 7 23 45 -6 61
-11 6 -22 12 -25 14 -2 2 -4 15 -5 30 0 15 -4 28 -10 29 -5 1 -9 -5 -7 -13 2
-8 -3 -14 -9 -14 -7 0 -4 -6 6 -14 19 -13 15 -46 -5 -46 -10 0 -13 25 -10 95
1 22 -4 53 -10 69 -6 15 -13 66 -16 112 l-5 85 48 20 c26 11 103 47 171 80 84
42 132 60 155 58 17 -1 39 1 47 4 45 17 54 16 105 -4z m-3838 4 c-4 -3 -2 -12
4 -20 9 -9 8 -13 0 -13 -6 0 -11 5 -11 10 0 6 -10 10 -22 11 -22 0 -22 1 -3 9
25 11 41 12 32 3z m3445 -5 c-9 -9 -15 -9 -24 0 -9 9 -7 12 12 12 19 0 21 -3
12 -12z m783 -57 c39 -10 86 -22 106 -25 77 -14 178 -112 139 -136 -20 -13
-87 -13 -111 0 -10 6 -19 17 -19 25 0 17 -52 47 -72 41 -7 -2 -38 -12 -69 -21
-53 -17 -56 -17 -84 1 l-29 19 32 3 c18 2 36 10 39 18 3 7 9 12 13 9 5 -3 11
-1 15 4 3 6 -10 17 -30 27 -33 15 -43 32 -28 47 10 10 22 9 98 -12z m-3870
-42 c11 -16 1 -19 -13 -3 -7 8 -8 14 -3 14 5 0 13 -5 16 -11z m-14 -76 c13
-17 13 -17 -6 -3 -11 8 -22 16 -24 17 -2 2 0 3 6 3 6 0 17 -8 24 -17z m634
-63 c-3 -5 -10 -10 -16 -10 -5 0 -9 5 -9 10 0 6 7 10 16 10 8 0 12 -4 9 -10z
m4855 -22 c0 -5 -10 -6 -21 -3 -15 5 -19 4 -15 -4 8 -12 -6 -15 -17 -4 -10 9
25 32 40 26 7 -3 13 -9 13 -15z m-5116 3 c3 -5 -8 -14 -25 -20 -27 -9 -30 -9
-19 4 7 8 16 12 21 9 5 -3 9 0 9 5 0 13 7 14 14 2z m303 -18 c-9 -8 -48 8 -42
18 4 5 14 5 26 -2 12 -6 18 -13 16 -16z m630 5 c-2 -7 -12 -12 -21 -12 -9 1
-16 -4 -16 -12 0 -8 -4 -14 -10 -14 -13 0 -13 6 2 30 14 22 53 28 45 8z m-763
-29 c-10 -16 -24 -9 -24 12 0 18 2 19 15 9 8 -7 12 -16 9 -21z m-234 5 c0 -8
-4 -12 -10 -9 -5 3 -10 10 -10 16 0 5 5 9 10 9 6 0 10 -7 10 -16z m5775 6 c-3
-5 -11 -10 -16 -10 -6 0 -7 5 -4 10 3 6 11 10 16 10 6 0 7 -4 4 -10z m-5450
-20 c3 -5 1 -10 -4 -10 -6 0 -11 5 -11 10 0 6 2 10 4 10 3 0 8 -4 11 -10z
m670 0 c3 -5 2 -10 -4 -10 -5 0 -13 5 -16 10 -3 6 -2 10 4 10 5 0 13 -4 16
-10z m-851 -16 c3 -8 2 -12 -4 -9 -6 3 -10 10 -10 16 0 14 7 11 14 -7z m229 3
c3 -8 -3 -14 -14 -14 -19 -2 -25 8 -12 20 10 11 20 8 26 -6z m-90 -52 c-3 -9
-8 -14 -10 -11 -3 3 -2 9 2 15 9 16 15 13 8 -4z m4773 0 c11 -27 -2 -37 -14
-11 -7 16 -8 26 -1 26 5 0 12 -7 15 -15z m-3789 -17 c-3 -8 -6 -5 -6 6 -1 11
2 17 5 13 3 -3 4 -12 1 -19z m-747 2 c0 -5 -4 -10 -10 -10 -5 0 -10 5 -10 10
0 6 5 10 10 10 6 0 10 -4 10 -10z m-70 -46 c0 -8 -4 -12 -10 -9 -5 3 -10 10
-10 16 0 5 5 9 10 9 6 0 10 -7 10 -16z m75 6 c3 -5 2 -10 -4 -10 -5 0 -13 5
-16 10 -3 6 -2 10 4 10 5 0 13 -4 16 -10z m5415 -10 c0 -5 -5 -10 -11 -10 -5
0 -7 5 -4 10 3 6 8 10 11 10 2 0 4 -4 4 -10z m-5201 -37 c10 -19 9 -22 -4 -17
-8 4 -15 15 -15 27 0 23 2 22 19 -10z m494 13 c9 -7 17 -18 17 -24 0 -14 -54
-26 -58 -13 -2 6 -11 11 -20 11 -13 0 -11 5 8 20 30 23 30 23 53 6z m-161 -20
c9 -16 7 -16 -10 -7 -27 15 -36 30 -16 27 9 -1 21 -10 26 -20z m-522 -6 c0 -5
-7 -10 -16 -10 -8 0 -12 5 -9 10 3 6 10 10 16 10 5 0 9 -4 9 -10z m130 0 c0
-5 -2 -10 -4 -10 -3 0 -8 5 -11 10 -3 6 -1 10 4 10 6 0 11 -4 11 -10z m225
-20 c3 -5 -1 -10 -10 -10 -9 0 -13 5 -10 10 3 6 8 10 10 10 2 0 7 -4 10 -10z
m200 -10 c3 -5 1 -10 -4 -10 -6 0 -11 5 -11 10 0 6 2 10 4 10 3 0 8 -4 11 -10z
m3965 0 c0 -5 -4 -10 -10 -10 -5 0 -10 5 -10 10 0 6 5 10 10 10 6 0 10 -4 10
-10z m-4310 -10 c0 -5 -4 -10 -9 -10 -6 0 -13 5 -16 10 -3 6 1 10 9 10 9 0 16
-4 16 -10z m30 0 c0 -5 -2 -10 -4 -10 -3 0 -8 5 -11 10 -3 6 -1 10 4 10 6 0
11 -4 11 -10z m5268 -46 c-3 -14 -7 -10 -16 16 -12 32 -11 34 4 19 9 -9 14
-25 12 -35z m-5228 26 c0 -5 -4 -10 -10 -10 -5 0 -10 5 -10 10 0 6 5 10 10 10
6 0 10 -4 10 -10z m4115 -20 c3 -5 1 -10 -4 -10 -6 0 -11 5 -11 10 0 6 2 10 4
10 3 0 8 -4 11 -10z m-4100 -10 c3 -5 1 -10 -4 -10 -6 0 -11 5 -11 10 0 6 2
10 4 10 3 0 8 -4 11 -10z m143 -15 c0 -14 -4 -25 -9 -25 -5 0 -8 11 -7 25 1
14 5 25 9 25 4 0 7 -11 7 -25z m42 15 c0 -5 -4 -10 -10 -10 -5 0 -10 5 -10 10
0 6 5 10 10 10 6 0 10 -4 10 -10z m-100 -20 c9 -16 8 -18 -5 -14 -8 4 -15 12
-15 20 0 20 7 17 20 -6z m4380 -20 c0 -5 -4 -10 -10 -10 -5 0 -10 5 -10 10 0
6 5 10 10 10 6 0 10 -4 10 -10z m-510 -14 c0 -8 -4 -17 -9 -21 -12 -7 -24 12
-16 25 9 15 25 12 25 -4z m-506 -12 c4 -9 4 -19 2 -21 -8 -8 -26 8 -26 23 0
19 16 18 24 -2z m2047 7 c3 -1 15 -10 27 -22 19 -17 23 -18 28 -5 3 9 12 16
20 16 12 0 12 -4 2 -22 -18 -31 -25 -36 -54 -30 -14 2 -24 0 -24 -7 0 -6 7
-11 15 -11 19 0 19 -19 -1 -45 -12 -17 -16 -17 -24 -6 -7 12 -11 12 -24 2 -10
-8 -29 -10 -60 -6 -36 6 -44 11 -43 26 1 11 10 27 20 37 15 13 20 14 26 3 7
-11 10 -11 17 1 5 8 19 20 31 27 19 10 22 9 17 -4 -7 -16 11 -21 21 -5 3 5 13
6 23 3 11 -4 9 2 -8 18 -14 13 -26 21 -28 17 -6 -13 -22 -9 -22 6 0 8 8 13 18
11 9 -2 20 -4 23 -4z m119 0 c0 -17 -18 -21 -24 -6 -3 9 0 15 9 15 8 0 15 -4
15 -9z m-3493 -17 c-3 -3 -12 -4 -19 -1 -8 3 -5 6 6 6 11 1 17 -2 13 -5z m429
-21 c-7 -7 -26 7 -26 19 0 6 6 6 15 -2 9 -7 13 -15 11 -17z m3084 6 c0 -15 -4
-19 -16 -15 -9 3 -21 6 -27 6 -12 0 23 29 36 30 4 0 7 -9 7 -21z m-2137 4
c-16 -6 -17 -33 -1 -33 6 0 8 -3 5 -6 -11 -11 -36 16 -30 32 3 8 13 14 22 13
10 0 11 -2 4 -6z m1942 -3 c3 -5 1 -10 -4 -10 -6 0 -11 5 -11 10 0 6 2 10 4
10 3 0 8 -4 11 -10z m-3037 -35 c9 5 25 8 34 9 9 0 14 4 12 8 -3 4 2 8 10 8 8
0 20 -9 26 -20 7 -14 7 -20 0 -20 -5 0 -10 -8 -10 -18 0 -27 -20 -43 -40 -32
-10 5 -27 7 -39 5 -13 -2 -21 1 -21 11 0 8 -7 14 -15 14 -18 0 -19 23 -4 53
l12 21 9 -23 c6 -17 13 -21 26 -16z m276 20 c3 -8 1 -15 -4 -15 -6 0 -10 7
-10 15 0 8 2 15 4 15 2 0 6 -7 10 -15z m773 -11 c3 -8 1 -20 -6 -27 -8 -8 -11
-6 -11 10 0 12 -6 24 -12 26 -8 3 -6 6 5 6 10 1 20 -6 24 -15z m-1457 -4 c0
-5 -5 -10 -11 -10 -5 0 -7 5 -4 10 3 6 8 10 11 10 2 0 4 -4 4 -10z m1580 3 c0
-5 -5 -15 -10 -23 -7 -12 -9 -10 -7 8 1 19 17 33 17 15z m-1721 -25 c12 -15
11 -18 -3 -18 -10 0 -16 8 -16 22 0 12 1 19 3 17 1 -2 9 -12 16 -21z m795 -30
c-11 -17 -19 -6 -21 25 l-2 32 14 -25 c7 -14 11 -28 9 -32z m2476 38 c0 -3 -4
-8 -10 -11 -5 -3 -10 -1 -10 4 0 6 5 11 10 11 6 0 10 -2 10 -4z m450 -6 c0 -5
-4 -10 -10 -10 -5 0 -10 5 -10 10 0 6 5 10 10 10 6 0 10 -4 10 -10z m32 -51
c-10 -16 -23 -29 -29 -29 -7 0 -13 -4 -13 -10 0 -5 5 -10 11 -10 11 0 40 25
39 35 -1 21 3 25 23 25 20 -1 21 -2 5 -14 -10 -7 -18 -17 -18 -21 0 -14 -32
-45 -47 -45 -7 0 -18 10 -23 23 -5 12 -9 17 -9 11 -1 -6 -12 -9 -25 -7 l-25 5
27 22 c75 60 113 67 84 15z m-3762 10 c0 -14 -17 -10 -23 5 -4 10 -1 13 9 9 7
-3 14 -9 14 -14z m870 -13 c0 -11 -19 -15 -25 -6 -3 5 1 10 9 10 9 0 16 -2 16
-4z m-1520 -36 c0 -5 -4 -10 -10 -10 -5 0 -10 5 -10 10 0 6 5 10 10 10 6 0 10
-4 10 -10z m4455 -19 c-3 -6 -11 -11 -17 -11 -6 0 -6 6 2 15 14 17 26 13 15
-4z m183 -14 c4 -20 -9 -22 -27 -4 -11 10 -13 9 -8 -5 5 -13 1 -18 -13 -19
-11 -1 -25 -2 -32 -3 -6 -1 -13 5 -15 12 -3 7 5 12 19 12 22 1 22 1 5 14 -17
13 -14 14 25 12 31 -2 44 -7 46 -19z m-138 3 c0 -5 -4 -10 -9 -10 -6 0 -13 5
-16 10 -3 6 1 10 9 10 9 0 16 -4 16 -10z m220 -16 c0 -10 -5 -12 -12 -7 -7 4
-23 6 -35 4 -13 -1 -23 2 -23 8 0 6 16 11 35 11 25 0 35 -4 35 -16z m80 -18
c-15 -15 -33 4 -19 20 10 12 14 12 20 2 5 -7 4 -17 -1 -22z m40 -53 c0 -23
-23 -9 -25 15 -1 17 1 19 12 11 7 -6 13 -18 13 -26z m-47 12 c0 -6 -7 -11 -16
-13 -12 -3 -15 1 -11 13 7 17 25 17 27 0z m187 -61 c0 -16 -15 -32 -26 -27
-21 8 -17 29 6 29 11 0 20 -1 20 -2z m150 -18 c14 -2 31 -5 38 -5 19 -1 14
-19 -8 -26 -12 -4 -27 -1 -35 5 -8 6 -27 11 -42 10 -43 -3 -53 -1 -53 11 0 6
6 9 14 6 8 -3 22 0 32 8 11 7 21 9 24 4 3 -4 17 -11 30 -13z m-565 -26 c-3 -5
-10 -10 -16 -10 -5 0 -9 5 -9 10 0 6 7 10 16 10 8 0 12 -4 9 -10z m905 -60 c0
-5 -2 -10 -4 -10 -3 0 -8 5 -11 10 -3 6 -1 10 4 10 6 0 11 -4 11 -10z m-160
-35 c0 -8 -5 -15 -11 -15 -5 0 -8 4 -5 9 4 5 0 12 -6 14 -8 3 -6 6 5 6 9 1 17
-6 17 -14z m420 11 c0 -11 -19 -15 -25 -6 -3 5 1 10 9 10 9 0 16 -2 16 -4z
m-540 -24 c0 -4 -9 -8 -20 -8 -11 0 -20 4 -20 8 0 4 9 8 20 8 11 0 20 -4 20
-8z"/>
<path d="M4440 9053 c0 -16 5 -23 13 -20 6 2 11 9 10 15 -2 6 4 9 12 6 8 -4
15 -2 15 4 0 5 -11 12 -25 14 -21 4 -25 1 -25 -19z"/>
<path d="M4680 9033 c0 -20 26 -73 36 -73 13 0 7 48 -9 68 -10 13 -27 16 -27
5z"/>
<path d="M4515 8979 c-10 -14 -1 -21 19 -13 9 3 13 10 10 15 -7 12 -21 11 -29
-2z"/>
<path d="M4360 8815 c10 -12 9 -16 -4 -21 -9 -4 -16 -17 -15 -33 0 -21 2 -22
8 -8 4 10 9 17 12 15 3 -2 13 5 22 14 18 18 23 33 8 24 -5 -3 -11 1 -15 9 -3
8 -11 15 -17 15 -8 0 -8 -4 1 -15z"/>
<path d="M4470 8799 c0 -5 5 -7 10 -4 6 3 10 8 10 11 0 2 -4 4 -10 4 -5 0 -10
-5 -10 -11z"/>
<path d="M4690 8749 c0 -5 5 -7 10 -4 6 3 10 8 10 11 0 2 -4 4 -10 4 -5 0 -10
-5 -10 -11z"/>
<path d="M4962 8661 c2 -8 14 -21 26 -29 20 -13 22 -13 22 3 0 10 -3 15 -7 12
-3 -4 -15 1 -26 10 -14 13 -19 14 -15 4z"/>
<path d="M5035 8520 c-10 -11 -13 -20 -8 -20 6 0 13 -14 17 -32 5 -24 9 -29
18 -20 8 8 8 15 -1 26 -7 8 -9 25 -5 40 7 31 3 33 -21 6z"/>
<path d="M4203 8375 c-8 -9 -9 -16 -3 -20 14 -8 30 3 30 21 0 18 -11 17 -27
-1z"/>
<path d="M4257 8370 c10 -11 18 -20 20 -20 1 0 1 9 0 20 -1 12 -8 20 -19 20
-17 0 -17 -1 -1 -20z"/>
<path d="M5065 8280 c3 -5 8 -10 11 -10 2 0 4 5 4 10 0 6 -5 10 -11 10 -5 0
-7 -4 -4 -10z"/>
<path d="M4210 8210 c0 -5 5 -10 11 -10 5 0 7 5 4 10 -3 6 -8 10 -11 10 -2 0
-4 -4 -4 -10z"/>
<path d="M4244 7955 c-15 -11 -16 -14 -4 -15 21 0 44 16 33 23 -6 4 -19 0 -29
-8z"/>
<path d="M4275 7860 c-3 -5 1 -10 9 -10 9 0 16 5 16 10 0 6 -4 10 -9 10 -6 0
-13 -4 -16 -10z"/>
<path d="M4499 7208 c-23 -18 -14 -84 12 -91 12 -3 20 2 25 17 7 20 8 20 16
-6 5 -16 16 -28 24 -28 8 0 14 -4 14 -10 0 -5 -4 -10 -10 -10 -5 0 -10 -4 -10
-8 0 -4 9 -8 19 -8 21 0 21 23 -1 94 -5 18 -7 39 -4 47 4 11 0 12 -17 6 -13
-5 -21 -16 -19 -25 5 -26 -16 -18 -25 9 -7 22 -11 24 -24 13z m25 -33 c3 -8 2
-23 -1 -32 -6 -15 -7 -15 -14 3 -11 27 -11 44 0 44 5 0 11 -7 15 -15z m66 -55
c0 -5 -4 -10 -10 -10 -5 0 -10 5 -10 10 0 6 5 10 10 10 6 0 10 -4 10 -10z"/>
<path d="M4780 7140 c0 -5 5 -10 10 -10 6 0 10 5 10 10 0 6 -4 10 -10 10 -5 0
-10 -4 -10 -10z"/>
<path d="M8406 8006 c10 -8 21 -12 24 -10 5 6 -21 24 -34 24 -6 0 -1 -6 10
-14z"/>
<path d="M4788 6773 c-1 -16 -1 -37 0 -48 1 -11 1 -89 2 -173 l0 -152 72 6
c40 4 79 12 87 18 14 11 12 78 -8 206 -9 60 -14 69 -65 118 -61 59 -85 66 -88
25z"/>
<path d="M4265 6450 c-3 -5 -1 -10 4 -10 6 0 11 5 11 10 0 6 -2 10 -4 10 -3 0
-8 -4 -11 -10z"/>
<path d="M4587 6335 c3 -8 9 -12 14 -9 12 7 11 11 -5 17 -10 4 -13 1 -9 -8z"/>
<path d="M4813 6312 c-22 -14 -30 -57 -23 -125 6 -56 13 -74 36 -98 37 -39 83
-37 102 4 7 15 18 27 23 27 6 0 7 5 4 10 -3 6 -2 10 3 10 5 0 6 17 2 39 -4 22
-3 46 1 53 13 20 11 38 -5 38 -7 0 -25 9 -40 21 -15 12 -35 19 -45 16 -10 -2
-25 -1 -33 4 -7 4 -19 5 -25 1z"/>
<path d="M4527 6163 c-12 -12 -7 -22 8 -17 8 4 15 10 15 15 0 11 -14 12 -23 2z"/>
<path d="M5711 6124 c0 -11 3 -14 6 -6 3 7 2 16 -1 19 -3 4 -6 -2 -5 -13z"/>
<path d="M5715 6080 c3 -5 8 -10 11 -10 2 0 4 5 4 10 0 6 -5 10 -11 10 -5 0
-7 -4 -4 -10z"/>
<path d="M4795 6070 c3 -5 8 -10 11 -10 2 0 4 5 4 10 0 6 -5 10 -11 10 -5 0
-7 -4 -4 -10z"/>
<path d="M5646 6035 c-9 -26 -7 -32 5 -12 6 10 9 21 6 23 -2 3 -7 -2 -11 -11z"/>
<path d="M5625 5890 c3 -5 8 -10 11 -10 2 0 4 5 4 10 0 6 -5 10 -11 10 -5 0
-7 -4 -4 -10z"/>
<path d="M5175 5763 c-16 -2 -54 -8 -82 -14 l-53 -10 0 -42 c0 -23 -3 -51 -6
-63 -6 -24 -5 -24 110 -24 109 1 116 6 116 84 0 64 -9 79 -43 75 -7 -1 -25 -4
-42 -6z"/>
<path d="M5709 5708 c4 -13 7 -29 5 -36 -1 -7 0 -8 3 -2 11 23 22 8 11 -15 -6
-14 -17 -24 -24 -21 -7 3 -11 -4 -10 -20 1 -24 16 -35 16 -12 0 6 12 26 26 45
l26 34 -27 25 c-32 30 -37 30 -26 2z"/>
<path d="M5726 5541 c10 -10 21 -14 23 -8 4 10 -17 27 -33 27 -5 0 -1 -8 10
-19z"/>
<path d="M5060 4830 c-12 -8 -10 -10 8 -10 13 0 20 4 17 10 -7 12 -6 12 -25 0z"/>
<path d="M3561 4284 c0 -11 3 -14 6 -6 3 7 2 16 -1 19 -3 4 -6 -2 -5 -13z"/>
<path d="M6062 2431 c-11 -7 -11 -9 2 -14 10 -4 16 -1 16 8 0 17 -1 17 -18 6z"/>
<path d="M4610 2951 c0 -16 5 -33 10 -36 6 -4 10 6 10 24 0 16 -4 33 -10 36
-6 4 -10 -6 -10 -24z"/>
<path d="M4600 2666 c0 -2 7 -9 15 -16 12 -10 15 -10 15 4 0 9 -7 16 -15 16
-8 0 -15 -2 -15 -4z"/>
<path d="M3690 2631 c0 -5 7 -12 16 -15 14 -5 15 -4 4 9 -14 17 -20 19 -20 6z"/>
<path d="M3664 2597 c4 -40 36 -69 36 -32 0 41 34 -2 39 -48 0 -8 10 -13 21
-12 21 1 41 15 22 15 -7 0 -12 6 -12 13 0 7 -9 18 -20 25 -11 7 -20 19 -20 28
0 10 -6 13 -19 9 -12 -3 -21 0 -25 10 -9 23 -25 18 -22 -8z"/>
<path d="M3781 2468 c-1 -16 3 -28 8 -28 5 0 11 -9 14 -21 3 -12 9 -19 14 -17
15 9 39 -28 39 -59 0 -23 9 -39 32 -58 l31 -26 -9 31 c-9 33 1 79 16 70 5 -3
10 3 12 13 3 12 -4 20 -17 24 -11 3 -18 9 -15 14 3 5 0 9 -5 9 -6 0 -11 -5
-11 -12 0 -9 -3 -9 -11 -1 -6 6 -17 9 -24 6 -7 -2 -16 5 -20 17 -4 11 -13 19
-23 18 -9 -2 -18 7 -23 22 l-7 25 -1 -27z m112 -167 c-9 -12 -23 18 -16 35 6
17 8 17 13 -6 4 -14 5 -27 3 -29z"/>
<path d="M3805 2480 c-3 -5 -1 -10 4 -10 6 0 11 5 11 10 0 6 -2 10 -4 10 -3 0
-8 -4 -11 -10z"/>
<path d="M4811 2464 c0 -11 3 -14 6 -6 3 7 2 16 -1 19 -3 4 -6 -2 -5 -13z"/>
<path d="M4954 2365 c-13 -20 -14 -28 -4 -40 28 -34 58 -8 46 40 -8 32 -21 32
-42 0z"/>
<path d="M3947 2342 c-10 -14 5 -61 25 -79 16 -15 21 -15 28 -3 6 9 5 17 -3
22 -7 4 -8 8 -4 8 10 0 -24 60 -35 60 -4 0 -9 -3 -11 -8z"/>
<path d="M4010 2301 c0 -6 5 -13 10 -16 6 -3 10 1 10 9 0 9 -4 16 -10 16 -5 0
-10 -4 -10 -9z"/>
<path d="M4131 2223 c0 -5 4 -17 9 -28 8 -18 9 -17 9 8 1 15 -3 27 -9 27 -5 0
-10 -3 -9 -7z"/>
<path d="M3850 2206 c0 -23 16 -27 17 -5 1 10 -2 19 -8 19 -5 0 -9 -6 -9 -14z"/>
<path d="M3940 2160 c0 -5 5 -10 11 -10 5 0 7 5 4 10 -3 6 -8 10 -11 10 -2 0
-4 -4 -4 -10z"/>
<path d="M3840 2140 c0 -5 5 -10 10 -10 6 0 10 5 10 10 0 6 -4 10 -10 10 -5 0
-10 -4 -10 -10z"/>
<path d="M4351 2064 c-15 -50 -12 -59 18 -49 25 8 50 47 33 53 -6 2 -8 10 -5
19 5 12 3 14 -6 8 -8 -4 -16 -3 -20 3 -4 6 -13 -9 -20 -34z"/>
<path d="M5206 2073 c-4 -9 -2 -21 4 -27 12 -12 15 -8 24 22 9 27 -18 32 -28
5z"/>
<path d="M3945 2052 c-11 -2 -24 -10 -28 -18 -4 -8 -16 -14 -25 -14 -14 -1
-14 -2 3 -12 11 -6 24 -17 28 -25 13 -21 32 -15 43 15 14 36 5 59 -21 54z"/>
<path d="M5313 2024 c-3 -8 -1 -20 6 -27 8 -8 11 -4 11 16 0 30 -7 35 -17 11z"/>
<path d="M4871 1951 c2 -48 43 -68 53 -26 8 33 2 43 -29 43 -17 0 -25 -6 -24
-17z"/>
<path d="M4435 1630 c-3 -5 -1 -10 4 -10 6 0 11 5 11 10 0 6 -2 10 -4 10 -3 0
-8 -4 -11 -10z"/>
<path d="M5180 1589 c0 -5 5 -7 10 -4 6 3 10 8 10 11 0 2 -4 4 -10 4 -5 0 -10
-5 -10 -11z"/>
<path d="M4840 1579 c0 -5 5 -7 10 -4 6 3 10 8 10 11 0 2 -4 4 -10 4 -5 0 -10
-5 -10 -11z"/>
<path d="M4646 1554 c-20 -19 -21 -35 -2 -28 8 3 16 14 19 25 6 23 3 24 -17 3z"/>
<path d="M3466 2823 c-6 -14 -5 -15 5 -6 7 7 10 15 7 18 -3 3 -9 -2 -12 -12z"/>
<path d="M7161 893 c7 -10 15 -20 16 -22 2 -2 3 3 3 11 0 9 -7 19 -16 22 -15
6 -15 4 -3 -11z"/>
<path d="M5716 775 c2 -20 -3 -38 -11 -45 -22 -18 -18 -28 9 -26 20 1 22 4 13
15 -8 10 -9 15 -1 18 6 2 8 17 6 33 -6 42 -19 46 -16 5z"/>
<path d="M5750 800 c0 -5 5 -10 10 -10 6 0 10 5 10 10 0 6 -4 10 -10 10 -5 0
-10 -4 -10 -10z"/>
<path d="M6920 779 c0 -5 5 -7 10 -4 6 3 10 8 10 11 0 2 -4 4 -10 4 -5 0 -10
-5 -10 -11z"/>
<path d="M6815 771 c-3 -5 -1 -12 4 -15 5 -3 11 1 15 9 6 16 -9 21 -19 6z"/>
<path d="M6200 752 c0 -5 7 -13 16 -16 10 -4 14 -1 12 6 -5 15 -28 23 -28 10z"/>
<path d="M6320 739 c0 -16 38 -28 83 -25 58 3 68 11 25 20 -19 4 -34 2 -36 -4
-2 -5 -13 -10 -25 -10 -16 0 -18 3 -9 9 10 6 7 10 -12 13 -14 3 -26 2 -26 -3z"/>
<path d="M6663 723 c4 -6 0 -14 -9 -17 -8 -3 -13 -10 -10 -15 7 -10 66 9 66
21 0 4 -4 8 -9 8 -5 0 -17 3 -27 7 -11 4 -15 3 -11 -4z"/>
<path d="M6780 715 c0 -8 -4 -15 -10 -15 -5 0 -10 -5 -10 -12 0 -6 9 -3 20 7
22 20 26 35 10 35 -5 0 -10 -7 -10 -15z"/>
<path d="M6595 710 c4 -6 11 -8 16 -5 14 9 11 15 -7 15 -8 0 -12 -5 -9 -10z"/>
<path d="M6395 690 c-3 -5 -3 -10 2 -10 4 0 2 -4 -6 -9 -7 -5 -9 -11 -4 -14 5
-3 14 3 21 13 7 11 8 21 2 25 -5 3 -11 1 -15 -5z"/>
<path d="M5955 680 c3 -5 8 -10 11 -10 2 0 4 5 4 10 0 6 -5 10 -11 10 -5 0 -7
-4 -4 -10z"/>
<path d="M5827 659 c4 -15 8 -17 14 -8 8 14 3 29 -11 29 -4 0 -6 -9 -3 -21z"/>
<path d="M5925 670 c-4 -6 -1 -23 6 -39 12 -26 14 -28 26 -13 17 23 16 35 -2
28 -13 -5 -20 5 -16 27 2 10 -7 9 -14 -3z"/>
<path d="M6782 663 c2 -11 11 -17 21 -15 9 2 17 -3 17 -9 0 -7 3 -9 7 -6 7 8
-25 47 -39 47 -5 0 -8 -8 -6 -17z"/>
<path d="M6847 667 c-3 -8 1 -14 8 -14 7 0 11 6 8 14 -3 7 -6 13 -8 13 -2 0
-5 -6 -8 -13z"/>
<path d="M8536 601 c-7 -10 22 -37 30 -28 4 3 -1 13 -9 22 -9 8 -18 11 -21 6z"/>
<path d="M5480 580 c0 -5 5 -10 10 -10 6 0 10 5 10 10 0 6 -4 10 -10 10 -5 0
-10 -4 -10 -10z"/>
<path d="M10125 8325 c-16 -14 -34 -25 -39 -25 -6 0 -20 -10 -33 -22 -23 -22
-116 -78 -243 -147 -30 -16 -77 -46 -105 -65 -27 -19 -71 -46 -96 -60 -71 -38
-160 -113 -316 -267 -79 -76 -150 -139 -158 -139 -8 0 -12 -6 -9 -14 3 -8 -10
-26 -29 -42 -19 -16 -37 -41 -41 -57 -4 -15 -17 -52 -31 -81 -27 -60 -85 -252
-85 -284 0 -23 -39 -187 -64 -273 -9 -30 -32 -128 -52 -219 -43 -201 -83 -357
-99 -390 -7 -14 -10 -31 -8 -38 7 -19 -18 -46 -28 -30 -4 7 -6 -12 -3 -42 2
-30 8 -143 13 -250 20 -426 105 -818 274 -1270 38 -103 46 -117 77 -133 41
-21 89 -18 179 12 63 21 111 43 341 164 80 41 186 92 235 112 50 21 110 46
135 57 25 12 71 24 104 28 41 5 63 13 75 27 9 11 33 23 55 26 21 3 44 14 52
24 11 15 13 295 14 1688 0 919 -4 1675 -8 1680 -9 14 -63 55 -71 55 -3 -1 -19
-12 -36 -25z"/>
<path d="M9370 8196 c0 -7 8 -20 17 -27 15 -12 16 -12 10 4 -4 10 -7 23 -7 28
0 5 -4 9 -10 9 -5 0 -10 -6 -10 -14z"/>
<path d="M6630 7826 c0 -8 8 -17 18 -21 11 -3 24 -17 30 -30 13 -29 45 -36 35
-7 -4 9 -15 26 -25 36 -10 11 -18 23 -18 28 0 4 -9 8 -20 8 -11 0 -20 -6 -20
-14z"/>
<path d="M9006 7794 c-4 -10 -1 -14 6 -12 15 5 23 28 10 28 -5 0 -13 -7 -16
-16z"/>
<path d="M8971 7766 c-14 -17 -7 -36 15 -36 15 0 18 18 5 38 -6 10 -10 10 -20
-2z"/>
<path d="M6626 7578 c3 -4 11 -5 19 -1 21 7 19 12 -4 10 -11 0 -18 -5 -15 -9z"/>
<path d="M8890 7480 c0 -13 7 -20 20 -20 13 0 20 7 20 20 0 13 -7 20 -20 20
-13 0 -20 -7 -20 -20z"/>
<path d="M6780 7330 c8 -5 20 -10 25 -10 6 0 3 5 -5 10 -8 5 -19 10 -25 10 -5
0 -3 -5 5 -10z"/>
<path d="M6565 7230 c-3 -5 -1 -10 4 -10 6 0 11 5 11 10 0 6 -2 10 -4 10 -3 0
-8 -4 -11 -10z"/>
<path d="M10215 4730 c-3 -5 -20 -14 -38 -18 l-32 -9 35 -21 c50 -31 60 -28
60 18 0 38 -12 52 -25 30z"/>
<path d="M10160 4630 c-36 -4 -93 -16 -127 -27 -37 -12 -66 -17 -75 -12 -19
13 -25 11 -46 -12 -22 -22 -150 -98 -203 -119 -19 -7 -43 -22 -55 -32 -11 -10
-27 -18 -35 -18 -8 0 -29 -9 -47 -20 -18 -11 -41 -20 -52 -20 -11 0 -20 -5
-20 -12 0 -6 -3 -9 -6 -6 -3 4 -15 -3 -25 -13 -11 -11 -28 -19 -37 -17 -9 2
-30 -9 -46 -24 -17 -16 -35 -28 -40 -28 -5 0 -17 -6 -25 -13 -9 -8 -32 -20
-51 -27 -66 -25 -99 -58 -136 -138 -47 -100 -69 -163 -85 -237 -16 -73 -16
-75 -18 -102 0 -12 -7 -28 -13 -35 -7 -7 -14 -26 -16 -43 -2 -16 -7 -46 -12
-65 -5 -19 -12 -53 -15 -75 -12 -78 -59 -245 -81 -287 -8 -14 -14 -39 -14 -55
-1 -15 -7 -44 -14 -63 -32 -82 -84 -239 -95 -284 -6 -27 -20 -60 -31 -74 -11
-13 -20 -35 -20 -48 0 -13 -5 -24 -11 -24 -6 0 -8 -9 -4 -20 4 -12 1 -28 -7
-37 -7 -9 -13 -19 -12 -22 0 -3 -9 -22 -20 -41 -12 -19 -21 -51 -21 -70 0 -20
-5 -35 -12 -35 -19 0 -28 -16 -14 -25 11 -6 9 -17 -14 -55 -31 -54 -41 -134
-19 -162 12 -17 13 -16 14 9 0 22 12 36 58 68 31 22 102 74 157 115 55 41 129
95 165 119 36 25 104 74 152 108 174 125 264 186 313 212 45 25 144 87 217
137 15 11 30 19 34 19 4 0 33 20 64 44 84 66 148 98 171 85 10 -5 19 -7 19 -4
0 3 9 1 20 -5 11 -6 18 -15 15 -21 -11 -17 55 -9 113 14 31 13 76 29 100 37
l42 13 0 729 c0 400 -3 727 -7 727 -5 -1 -37 -5 -73 -9z"/>
<path d="M8702 4541 c4 -13 18 -16 19 -4 0 4 -5 9 -11 12 -7 2 -11 -2 -8 -8z"/>
<path d="M10205 2971 c-14 -13 -167 -51 -177 -44 -5 3 -19 -3 -30 -14 -12 -10
-18 -12 -14 -5 4 7 1 12 -8 12 -9 0 -16 -4 -16 -10 0 -5 -7 -10 -15 -10 -8 0
-15 -4 -15 -9 0 -5 -9 -7 -19 -4 -29 8 -111 -32 -110 -54 0 -10 3 -13 6 -5 5
13 43 17 43 5 0 -5 -26 -19 -56 -33 -31 -14 -62 -33 -68 -42 -7 -10 -15 -16
-18 -13 -3 3 -13 -4 -23 -15 -10 -11 -27 -20 -37 -20 -21 0 -63 -35 -63 -52 0
-6 -17 -17 -38 -24 -22 -8 -54 -27 -73 -44 -19 -16 -38 -30 -42 -31 -4 0 -26
-2 -50 -3 -31 -2 -51 -11 -71 -30 -16 -16 -34 -25 -40 -22 -7 4 -8 1 -5 -8 8
-21 21 -20 47 5 31 29 57 42 57 29 0 -6 -8 -14 -17 -17 -10 -4 -24 -15 -31
-25 -14 -19 -62 -25 -62 -8 0 6 -11 3 -25 -6 -14 -9 -25 -23 -25 -31 0 -9 -6
-13 -15 -10 -8 4 -17 2 -20 -4 -4 -5 -22 -16 -41 -24 -19 -8 -34 -19 -34 -25
0 -6 -4 -8 -10 -5 -5 3 -10 1 -10 -6 0 -7 -3 -9 -7 -6 -3 4 -15 0 -25 -10 -10
-9 -18 -11 -18 -5 0 6 -7 9 -15 6 -8 -4 -15 -14 -15 -24 0 -10 -7 -20 -15 -24
-8 -3 -15 -13 -15 -22 0 -15 2 -15 22 2 14 12 18 13 10 3 -6 -9 -9 -19 -6 -22
3 -3 -3 -16 -15 -28 -12 -13 -21 -26 -21 -31 0 -13 -17 -9 -34 7 -10 11 -21
12 -38 6 l-23 -9 28 -7 c27 -7 35 -19 18 -30 -5 -3 -13 -1 -16 5 -5 8 -11 7
-21 -1 -13 -10 -18 -6 -15 14 1 10 -31 9 -49 -3 -9 -6 -17 -5 -22 3 -4 7 -8 8
-8 2 0 -19 21 -41 26 -28 3 7 11 10 18 7 18 -7 12 -48 -7 -52 -9 -2 -17 -8
-17 -13 0 -5 -5 -9 -11 -9 -6 0 -8 7 -5 16 3 8 2 12 -3 9 -6 -3 -9 -14 -8 -25
1 -10 5 -16 10 -13 5 3 8 0 5 -8 -3 -8 -10 -14 -17 -14 -7 0 -19 -11 -28 -25
-8 -14 -12 -17 -9 -8 3 10 -4 22 -19 32 -31 20 -35 20 -35 -3 0 -14 5 -18 20
-14 12 3 20 0 20 -7 0 -6 -9 -14 -20 -17 -11 -3 -23 -16 -26 -29 -4 -16 -13
-24 -28 -24 -20 1 -20 1 -2 15 10 7 16 18 15 23 -6 15 -49 -5 -49 -23 0 -12
-4 -13 -18 -6 -14 8 -18 6 -19 -10 -1 -14 5 -19 22 -19 18 0 22 -4 18 -20 -5
-19 -6 -19 -18 -4 -8 12 -14 13 -19 6 -4 -6 -13 -9 -21 -6 -7 3 -18 -3 -24
-15 -17 -31 -13 -34 15 -12 36 28 53 27 26 -2 -12 -13 -20 -26 -17 -29 3 -3
-7 -4 -24 -2 -24 3 -30 -1 -35 -22 -7 -25 -26 -29 -34 -6 -2 7 2 10 12 6 9 -3
16 -1 16 5 0 7 -12 11 -27 9 -24 -3 -28 1 -28 23 1 26 0 26 -22 10 -26 -18
-29 -31 -9 -31 19 0 27 -35 15 -68 -7 -21 -16 -27 -38 -28 -20 -1 -28 3 -24
12 4 10 0 11 -20 1 -26 -12 -26 -33 -1 -23 8 3 14 1 14 -4 0 -5 6 -7 14 -4 16
6 14 -32 -3 -65 -9 -17 -9 -22 2 -27 7 -2 12 -15 11 -27 -1 -12 -3 -31 -3 -42
-1 -17 -3 -17 -11 -5 -8 13 -10 13 -10 -2 0 -9 6 -18 12 -20 10 -4 10 -10 2
-29 -13 -28 1 -64 37 -100 10 -10 19 -23 19 -29 0 -5 7 -10 15 -10 13 0 15 -7
9 -36 -6 -31 -4 -35 12 -32 13 2 20 -4 22 -19 2 -12 12 -25 23 -28 11 -4 46
-31 78 -61 32 -30 64 -54 70 -54 6 0 33 -13 59 -30 27 -17 56 -30 65 -30 8 0
29 -11 45 -25 17 -14 38 -25 48 -25 9 0 38 -12 63 -27 47 -29 147 -70 191 -79
13 -3 29 -9 35 -14 6 -5 46 -19 90 -31 43 -12 86 -25 94 -29 9 -5 45 -18 81
-29 36 -11 106 -34 157 -50 50 -16 109 -33 130 -37 21 -4 53 -13 71 -21 18 -7
37 -11 42 -8 6 4 10 2 10 -4 0 -5 -8 -14 -17 -20 -10 -5 -15 -13 -10 -17 4 -4
15 2 24 12 17 19 38 21 73 7 8 -3 30 -7 48 -9 19 -2 40 -9 49 -15 8 -7 36 -14
61 -16 26 -2 77 -6 115 -9 l67 -6 0 1166 c0 1199 0 1192 -35 1157z m-1670
-1131 c-3 -5 -11 -10 -16 -10 -6 0 -7 5 -4 10 3 6 11 10 16 10 6 0 7 -4 4 -10z
m-84 -41 c-9 -23 -10 -22 -10 11 -1 23 2 31 9 24 7 -7 7 -19 1 -35z m-38 -70
c-18 -19 -19 -19 -20 1 -1 11 2 18 7 15 4 -3 11 3 15 13 6 13 9 14 12 3 3 -7
-3 -22 -14 -32z m0 -74 c-7 -21 -13 -19 -13 6 0 11 4 18 10 14 5 -3 7 -12 3
-20z"/>
<path d="M9761 2826 c-10 -12 -8 -13 8 -9 12 3 21 9 21 14 0 14 -16 11 -29 -5z"/>
<path d="M9636 2752 c-2 -4 -1 -13 3 -20 4 -8 11 -5 19 8 10 16 10 20 -2 20
-8 0 -17 -4 -20 -8z"/>
<path d="M8376 2671 c-4 -7 -5 -15 -2 -18 9 -9 19 4 14 18 -4 11 -6 11 -12 0z"/>
<path d="M9514 2666 c-18 -14 -18 -15 0 -22 11 -4 21 -2 27 7 19 31 5 38 -27
15z"/>
<path d="M8512 2260 c-7 -11 -8 -20 -3 -20 9 0 24 30 18 36 -1 2 -8 -6 -15
-16z"/>
<path d="M8922 2259 c2 -6 8 -10 13 -10 5 0 11 4 13 10 2 6 -4 11 -13 11 -9 0
-15 -5 -13 -11z"/>
<path d="M8469 2213 c-13 -17 -13 -17 6 -3 11 8 22 16 24 17 2 2 0 3 -6 3 -6
0 -17 -8 -24 -17z"/>
<path d="M8751 2126 c-6 -14 -15 -26 -21 -26 -5 0 -10 -4 -10 -10 0 -5 8 -10
19 -10 13 0 20 9 24 33 6 41 0 47 -12 13z"/>
<path d="M60 2030 c0 -5 7 -10 16 -10 8 0 12 5 9 10 -3 6 -10 10 -16 10 -5 0
-9 -4 -9 -10z"/>
<path d="M8080 2015 c0 -9 6 -12 15 -9 8 4 15 10 15 15 0 5 -7 9 -15 9 -8 0
-15 -7 -15 -15z"/>
<path d="M120 1962 c0 -4 9 -13 20 -20 22 -13 27 -3 8 16 -14 14 -28 16 -28 4z"/>
<path d="M200 1960 c0 -5 9 -10 20 -10 11 0 20 5 20 10 0 6 -9 10 -20 10 -11
0 -20 -4 -20 -10z"/>
<path d="M176 1935 c-3 -10 1 -15 14 -15 25 0 34 16 14 24 -21 8 -21 8 -28 -9z"/>
<path d="M8395 1940 c-3 -5 -1 -10 4 -10 6 0 11 5 11 10 0 6 -2 10 -4 10 -3 0
-8 -4 -11 -10z"/>
<path d="M8487 1930 c3 -11 13 -20 22 -20 13 0 13 2 2 9 -7 5 -10 14 -7 20 4
6 1 11 -7 11 -10 0 -13 -7 -10 -20z"/>
<path d="M8005 1929 c-10 -15 3 -25 16 -12 7 7 7 13 1 17 -6 3 -14 1 -17 -5z"/>
<path d="M345 1915 c-3 -8 -7 -21 -9 -29 -3 -8 2 -17 10 -20 11 -4 14 2 12 29
-2 38 -6 43 -13 20z"/>
<path d="M8051 1894 c0 -11 3 -14 6 -6 3 7 2 16 -1 19 -3 4 -6 -2 -5 -13z"/>
<path d="M250 1890 c-8 -5 -10 -10 -5 -10 6 0 17 5 25 10 8 5 11 10 5 10 -5 0
-17 -5 -25 -10z"/>
<path d="M517 1884 c6 -16 19 -18 27 -5 3 5 -3 11 -13 14 -14 3 -18 1 -14 -9z"/>
<path d="M8460 1890 c0 -5 5 -10 11 -10 5 0 7 5 4 10 -3 6 -8 10 -11 10 -2 0
-4 -4 -4 -10z"/>
<path d="M950 1879 c0 -5 5 -7 10 -4 6 3 10 8 10 11 0 2 -4 4 -10 4 -5 0 -10
-5 -10 -11z"/>
<path d="M8186 1881 c-4 -5 -2 -12 3 -15 5 -4 12 -2 15 3 4 5 2 12 -3 15 -5 4
-12 2 -15 -3z"/>
<path d="M7970 1860 c0 -5 5 -10 10 -10 6 0 10 5 10 10 0 6 -4 10 -10 10 -5 0
-10 -4 -10 -10z"/>
<path d="M8395 1820 c-3 -5 -1 -10 4 -10 6 0 11 5 11 10 0 6 -2 10 -4 10 -3 0
-8 -4 -11 -10z"/>
<path d="M752 1800 c0 -14 2 -19 5 -12 2 6 2 18 0 25 -3 6 -5 1 -5 -13z"/>
<path d="M716 1802 c-3 -5 1 -9 9 -9 8 0 12 4 9 9 -3 4 -7 8 -9 8 -2 0 -6 -4
-9 -8z"/>
<path d="M800 1801 c0 -6 4 -13 10 -16 6 -3 7 1 4 9 -7 18 -14 21 -14 7z"/>
<path d="M8017 1790 c7 -27 22 -35 36 -20 9 10 8 12 -5 7 -12 -4 -18 -1 -18 8
0 7 -4 16 -9 19 -5 4 -7 -3 -4 -14z"/>
<path d="M7921 1767 c2 -1 13 -9 24 -17 19 -14 19 -14 6 3 -7 9 -18 17 -24 17
-6 0 -8 -1 -6 -3z"/>
<path d="M8316 1732 c-3 -6 -1 -12 5 -14 8 -3 5 -10 -6 -22 -15 -15 -16 -19
-4 -26 17 -11 17 -11 22 21 6 29 -7 58 -17 41z"/>
<path d="M1190 1669 c-12 -16 -19 -33 -16 -36 8 -8 19 5 34 40 15 35 9 34 -18
-4z"/>
<path d="M8340 1640 c0 -5 5 -10 10 -10 6 0 10 5 10 10 0 6 -4 10 -10 10 -5 0
-10 -4 -10 -10z"/>
<path d="M8320 1628 c0 -7 -3 -23 -6 -35 -4 -13 -2 -23 2 -23 5 0 10 16 11 35
2 19 1 35 -2 35 -3 0 -5 -6 -5 -12z"/>
<path d="M7692 1608 c3 -7 15 -14 29 -16 23 -2 23 -2 5 13 -24 18 -39 20 -34
3z"/>
<path d="M8345 1610 c3 -5 8 -10 11 -10 2 0 4 5 4 10 0 6 -5 10 -11 10 -5 0
-7 -4 -4 -10z"/>
<path d="M8260 1584 c0 -8 5 -12 10 -9 6 4 8 11 5 16 -9 14 -15 11 -15 -7z"/>
<path d="M1535 1540 c3 -5 8 -10 11 -10 2 0 4 5 4 10 0 6 -5 10 -11 10 -5 0
-7 -4 -4 -10z"/>
<path d="M8250 1520 c0 -5 5 -10 11 -10 5 0 7 5 4 10 -3 6 -8 10 -11 10 -2 0
-4 -4 -4 -10z"/>
<path d="M8280 1519 c0 -5 5 -7 10 -4 6 3 10 8 10 11 0 2 -4 4 -10 4 -5 0 -10
-5 -10 -11z"/>
<path d="M1420 1509 c0 -5 5 -9 11 -9 5 0 7 -4 4 -10 -3 -5 3 -10 14 -10 28 0
26 13 -4 27 -14 6 -25 7 -25 2z"/>
<path d="M1533 1484 c16 -8 31 -13 35 -10 8 8 1 12 -33 20 l-30 6 28 -16z"/>
<path d="M1486 1464 c-9 -22 -8 -24 9 -18 8 4 15 12 15 20 0 19 -16 18 -24 -2z"/>
<path d="M1830 1476 c0 -2 8 -10 18 -17 15 -13 16 -12 3 4 -13 16 -21 21 -21
13z"/>
<path d="M8267 1460 c3 -11 7 -20 9 -20 2 0 4 9 4 20 0 11 -4 20 -9 20 -5 0
-7 -9 -4 -20z"/>
<path d="M1620 1450 c0 -5 7 -10 15 -10 8 0 15 5 15 10 0 6 -7 10 -15 10 -8 0
-15 -4 -15 -10z"/>
<path d="M1695 1440 c3 -5 8 -10 11 -10 2 0 4 5 4 10 0 6 -5 10 -11 10 -5 0
-7 -4 -4 -10z"/>
<path d="M8275 1380 c-3 -5 1 -10 10 -10 9 0 13 5 10 10 -3 6 -8 10 -10 10 -2
0 -7 -4 -10 -10z"/>
<path d="M1881 1318 c5 -10 13 -18 17 -18 4 0 8 8 9 18 1 11 -5 18 -17 18 -15
0 -16 -4 -9 -18z"/>
<path d="M8153 1295 c0 -27 4 -35 19 -35 10 0 18 7 18 15 0 8 -5 15 -10 15 -6
0 -10 7 -8 16 2 10 -2 19 -8 21 -6 2 -11 -11 -11 -32z"/>
<path d="M8345 1300 c-3 -5 -1 -10 4 -10 6 0 11 5 11 10 0 6 -2 10 -4 10 -3 0
-8 -4 -11 -10z"/>
<path d="M2388 1283 c7 -3 16 -2 19 1 4 3 -2 6 -13 5 -11 0 -14 -3 -6 -6z"/>
<path d="M2072 1264 c-7 -8 -8 -14 -3 -14 10 0 25 19 20 25 -2 1 -10 -3 -17
-11z"/>
<path d="M2130 1276 c0 -2 7 -7 16 -10 8 -3 12 -2 9 4 -6 10 -25 14 -25 6z"/>
<path d="M2160 1230 c8 -5 24 -9 35 -9 l20 0 -20 9 c-11 5 -27 9 -35 9 -13 1
-13 0 0 -9z"/>
<path d="M2325 1200 c-17 -6 -16 -7 8 -12 15 -3 27 -2 27 3 0 13 -14 17 -35 9z"/>
<path d="M3217 1171 c-3 -13 1 -21 14 -24 22 -6 26 15 5 32 -11 9 -15 7 -19
-8z"/>
<path d="M7976 1142 c-3 -6 -1 -14 5 -17 14 -9 20 -2 10 14 -6 8 -11 9 -15 3z"/>
<path d="M2570 1122 c0 -15 11 -21 27 -15 12 5 12 7 1 14 -17 11 -28 11 -28 1z"/>
<path d="M2640 1100 c0 -5 7 -10 16 -10 8 0 12 5 9 10 -3 6 -10 10 -16 10 -5
0 -9 -4 -9 -10z"/>
<path d="M2801 1083 c0 -13 -7 -23 -13 -23 -7 0 -2 -7 11 -16 19 -14 25 -14
32 -3 13 20 11 29 -5 29 -8 0 -17 8 -19 18 -4 13 -5 11 -6 -5z"/>
<path d="M4140 1046 c0 -18 6 -51 14 -72 20 -59 7 -139 -28 -167 l-26 -22 25
-12 c24 -11 31 -4 26 29 0 4 9 6 20 5 18 -1 18 -3 5 -13 -15 -10 -15 -13 -1
-24 12 -10 19 -10 27 -2 14 14 32 16 23 3 -3 -5 0 -13 6 -17 7 -4 10 -3 7 2
-3 5 3 17 14 27 15 14 18 14 18 2 0 -8 -5 -15 -11 -15 -5 0 -7 -5 -3 -11 5 -8
8 -8 14 0 3 7 13 9 22 6 9 -4 19 3 26 20 12 26 52 36 52 12 0 -7 13 -18 30
-24 28 -10 31 -9 50 22 11 18 20 49 20 69 0 39 -4 43 -25 23 -13 -14 -16 -69
-2 -60 4 2 7 -3 7 -11 0 -9 -8 -16 -19 -16 -16 0 -19 7 -17 40 2 31 -2 41 -16
46 -10 3 -29 24 -43 47 -14 26 -36 47 -55 54 -16 6 -30 18 -30 26 0 12 -26 27
-107 58 -21 8 -23 6 -23 -25z m120 -196 c0 -5 -2 -10 -4 -10 -3 0 -8 5 -11 10
-3 6 -1 10 4 10 6 0 11 -4 11 -10z m-35 -40 c3 -5 1 -10 -4 -10 -6 0 -11 5
-11 10 0 6 2 10 4 10 3 0 8 -4 11 -10z"/>
<path d="M8275 1071 c-3 -5 -1 -12 5 -16 5 -3 10 1 10 9 0 18 -6 21 -15 7z"/>
<path d="M8500 1066 c0 -8 4 -17 9 -20 5 -4 7 3 4 14 -6 23 -13 26 -13 6z"/>
<path d="M2715 1050 c3 -5 15 -15 26 -21 18 -9 19 -9 7 10 -7 12 -19 21 -26
21 -7 0 -10 -4 -7 -10z"/>
<path d="M3064 1035 c32 -27 42 -30 51 -15 4 6 -9 17 -29 25 -50 21 -55 19
-22 -10z"/>
<path d="M2675 1030 c3 -5 8 -10 11 -10 2 0 4 5 4 10 0 6 -5 10 -11 10 -5 0
-7 -4 -4 -10z"/>
<path d="M2875 970 c3 -5 8 -10 11 -10 2 0 4 5 4 10 0 6 -5 10 -11 10 -5 0 -7
-4 -4 -10z"/>
<path d="M8120 961 c0 -6 5 -13 10 -16 6 -3 10 1 10 9 0 9 -4 16 -10 16 -5 0
-10 -4 -10 -9z"/>
<path d="M8370 945 c0 -8 2 -15 4 -15 2 0 11 -3 19 -6 9 -3 20 2 25 13 9 15 6
18 -19 20 -20 2 -29 -2 -29 -12z"/>
<path d="M3430 931 c0 -6 5 -13 10 -16 6 -3 10 1 10 9 0 9 -4 16 -10 16 -5 0
-10 -4 -10 -9z"/>
<path d="M3139 910 c29 -25 44 -26 39 -2 -2 11 -14 18 -33 20 l-30 2 24 -20z"/>
<path d="M8610 923 c0 -15 18 -35 23 -27 3 5 -1 15 -9 22 -8 7 -14 9 -14 5z"/>
<path d="M2815 901 c-3 -5 -1 -12 5 -16 5 -3 10 1 10 9 0 18 -6 21 -15 7z"/>
<path d="M8305 900 c-3 -5 1 -10 9 -10 8 0 18 5 21 10 3 6 -1 10 -9 10 -8 0
-18 -4 -21 -10z"/>
<path d="M8895 860 c3 -5 8 -10 11 -10 2 0 4 5 4 10 0 6 -5 10 -11 10 -5 0 -7
-4 -4 -10z"/>
<path d="M8690 799 c-14 -4 -20 -7 -13 -8 6 -1 13 -9 15 -18 3 -15 6 -15 17 5
15 29 13 31 -19 21z"/>
<path d="M4340 789 c0 -5 5 -7 10 -4 6 3 10 8 10 11 0 2 -4 4 -10 4 -5 0 -10
-5 -10 -11z"/>
<path d="M8590 782 c0 -12 3 -12 15 -2 8 7 15 13 15 15 0 1 -7 2 -15 2 -8 0
-15 -7 -15 -15z"/>
<path d="M8605 760 c-3 -5 -1 -10 4 -10 6 0 11 5 11 10 0 6 -2 10 -4 10 -3 0
-8 -4 -11 -10z"/>
<path d="M8500 750 c0 -5 5 -10 11 -10 5 0 7 5 4 10 -3 6 -8 10 -11 10 -2 0
-4 -4 -4 -10z"/>
<path d="M8440 746 c0 -2 7 -7 16 -10 8 -3 12 -2 9 4 -6 10 -25 14 -25 6z"/>
<path d="M8180 721 c0 -6 4 -13 10 -16 6 -3 7 1 4 9 -7 18 -14 21 -14 7z"/>
<path d="M8330 702 c0 -4 10 -13 23 -21 22 -14 22 -14 3 8 -20 22 -26 25 -26
13z"/>
<path d="M8868 699 c-18 -10 -25 -39 -10 -39 13 1 42 27 42 39 0 13 -9 14 -32
0z"/>
<path d="M8820 689 c0 -5 5 -7 10 -4 6 3 10 8 10 11 0 2 -4 4 -10 4 -5 0 -10
-5 -10 -11z"/>
<path d="M8240 681 c0 -5 5 -13 10 -16 6 -3 10 -2 10 4 0 5 -4 13 -10 16 -5 3
-10 2 -10 -4z"/>
<path d="M8970 680 c0 -5 5 -10 10 -10 6 0 10 5 10 10 0 6 -4 10 -10 10 -5 0
-10 -4 -10 -10z"/>
<path d="M4285 640 c-4 -7 3 -8 22 -4 38 9 42 14 10 14 -14 0 -29 -5 -32 -10z"/>
<path d="M9030 634 c0 -10 39 -42 44 -36 14 13 4 30 -19 34 -14 3 -25 4 -25 2z"/>
<path d="M9295 617 c-4 -10 -5 -21 -1 -24 10 -10 18 4 13 24 -4 17 -4 17 -12
0z"/>
<path d="M9335 620 c-3 -5 -2 -10 4 -10 5 0 13 5 16 10 3 6 2 10 -4 10 -5 0
-13 -4 -16 -10z"/>
<path d="M9115 600 c-3 -5 1 -10 9 -10 9 0 16 5 16 10 0 6 -4 10 -9 10 -6 0
-13 -4 -16 -10z"/>
<path d="M9007 589 c7 -7 15 -10 18 -7 3 3 -2 9 -12 12 -14 6 -15 5 -6 -5z"/>
<path d="M9221 472 c-6 -2 -11 -7 -11 -12 0 -8 86 -7 95 2 7 7 -68 15 -84 10z"/>
<path d="M9882 430 c0 -14 2 -19 5 -12 2 6 2 18 0 25 -3 6 -5 1 -5 -13z"/>
<path d="M9420 430 c0 -5 5 -10 10 -10 6 0 10 5 10 10 0 6 -4 10 -10 10 -5 0
-10 -4 -10 -10z"/>
<path d="M9718 412 c5 -15 34 -12 39 3 2 6 -8 10 -21 10 -15 0 -22 -5 -18 -13z"/>
<path d="M9297 409 c7 -7 15 -10 18 -7 3 3 -2 9 -12 12 -14 6 -15 5 -6 -5z"/>
<path d="M9340 410 c0 -5 5 -10 11 -10 5 0 7 5 4 10 -3 6 -8 10 -11 10 -2 0
-4 -4 -4 -10z"/>
<path d="M9640 380 c0 -4 9 -10 20 -13 11 -3 20 -2 20 3 0 4 -9 10 -20 13 -11
3 -20 2 -20 -3z"/>
<path d="M9520 360 c0 -5 5 -10 10 -10 6 0 10 5 10 10 0 6 -4 10 -10 10 -5 0
-10 -4 -10 -10z"/>
<path d="M9558 343 c7 -3 16 -2 19 1 4 3 -2 6 -13 5 -11 0 -14 -3 -6 -6z"/>
<path d="M10065 300 c-3 -5 -1 -10 4 -10 6 0 11 5 11 10 0 6 -2 10 -4 10 -3 0
-8 -4 -11 -10z"/>
<path d="M10202 218 c2 -6 10 -14 16 -16 7 -2 10 2 6 12 -7 18 -28 22 -22 4z"/>
<path d="M9657 177 c-3 -7 6 -13 24 -14 18 -1 29 3 29 10 0 17 -47 20 -53 4z"/>
</g>
</svg>
