<svg width="580" height="400.00000000000006" xmlns="http://www.w3.org/2000/svg">
 <!-- Created with Method Draw - http://github.com/duopixel/Method-Draw/ -->

 <g>
  <title>background</title>
  <rect fill="none" id="canvas_background" height="402" width="582" y="-1" x="-1"/>
  <g display="none" overflow="visible" y="0" x="0" height="100%" width="100%" id="canvasGrid">
   <rect fill="url(#gridpattern)" stroke-width="0" y="0" x="0" height="100%" width="100%"/>
  </g>
 </g>
 <g>
  <title>Layer 1</title>
  <path fill="#ffffff" stroke="null" id="svg_4" d="m303.855585,8.154704c-101.765102,0 -184.190229,82.425127 -184.190229,184.190229c0,81.504176 52.724453,150.345274 125.940069,174.75048c9.209511,1.611665 12.663078,-3.914042 12.663078,-8.749036c0,-4.374518 -0.230238,-18.879498 -0.230238,-34.30543c-46.277795,8.518798 -58.25016,-11.281652 -61.933965,-21.642352c-2.07214,-5.295469 -11.051414,-21.642352 -18.879498,-26.01687c-6.446658,-3.453567 -15.656169,-11.972365 -0.230238,-12.202603c14.504981,-0.230238 24.865681,13.353792 28.319248,18.879498c16.577121,27.858772 43.054466,20.030687 53.645404,15.195694c1.611665,-11.972365 6.446658,-20.030687 11.742127,-24.635443c-40.982326,-4.604756 -83.806554,-20.491163 -83.806554,-90.943926c0,-20.030687 7.137371,-36.607808 18.879498,-49.501124c-1.841902,-4.604756 -8.28856,-23.484254 1.841902,-48.810411c0,0 15.425932,-4.834994 50.652313,18.879498c14.735218,-4.14428 30.391388,-6.21642 46.047557,-6.21642c15.656169,0 31.312339,2.07214 46.047557,6.21642c35.226381,-23.94473 50.652313,-18.879498 50.652313,-18.879498c10.130463,25.326156 3.683805,44.205655 1.841902,48.810411c11.742127,12.893316 18.879498,29.240199 18.879498,49.501124c0,70.683 -43.054466,86.33917 -84.036792,90.943926c6.676896,5.755945 12.43284,16.807358 12.43284,34.075192c0,24.635443 -0.230238,44.435893 -0.230238,50.652313c0,4.834994 3.453567,10.590938 12.663078,8.749036a184.489538,184.489538 0 0 0 125.479594,-174.75048c0,-101.765102 -82.425127,-184.190229 -184.190229,-184.190229z" fill-rule="evenodd"/>
  <g stroke="null" id="svg_5"/>
 </g>
</svg>